<?xml version="1.0" encoding="utf-8"?>
<svg width="12.54" height="7.1" viewBox="0 0 12.54 7.1" fill="none" xmlns="http://www.w3.org/2000/svg">
  <path d="M4.1001 0.549927C4.1001 0.246216 3.85388 0 3.55005 0C3.24634 0 3.00012 0.246216 3.00012 0.549927L3.00012 10.9724L0.938965 8.91125C0.724121 8.69653 0.375854 8.69653 0.161133 8.91125C-0.0537109 9.1261 -0.0537109 9.47437 0.161133 9.68909L2.63086 12.1589C3.13855 12.6665 3.96167 12.6665 4.46936 12.1589L6.93909 9.68909C7.15381 9.47437 7.15381 9.1261 6.93909 8.91125C6.72424 8.69653 6.3761 8.69653 6.16125 8.91125L4.1001 10.9724L4.1001 0.549927L4.1001 0.549927Z" fill="#FFFFFF" fill-rule="evenodd" transform="matrix(-0 -1 1 -0 0 7.1)" />
</svg>