<?xml version="1.0" encoding="utf-8"?>
<svg width="24" height="24" viewBox="0 0 24 24" fill="none" xmlns="http://www.w3.org/2000/svg">
  <g transform="matrix(-1 0 0 1 24 0)">
    <g transform="translate(4.414 8)">
      <path d="M12.2803 -0.21967C11.9874 0.0732222 11.5126 0.0732222 11.2197 -0.21967C10.9268 -0.512564 10.9268 -0.987437 11.2197 -1.28033L13.9394 -4L0.75 -4C0.335786 -4 0 -4.33579 0 -4.75C0 -5.16422 0.335787 -5.5 0.749999 -5.5L13.9394 -5.5L11.2197 -8.21967C10.9268 -8.51256 10.9268 -8.98744 11.2197 -9.28033C11.5126 -9.57322 11.9874 -9.57322 12.2803 -9.28033L15.5732 -5.98744C16.2566 -5.30402 16.2566 -4.19598 15.5732 -3.51256L12.2803 -0.21967L12.2803 -0.21967Z" fill="#717171" fill-rule="evenodd" transform="matrix(-1 0 0 1 13.836 -0.75)" />
    </g>
  </g>
</svg>