<?xml version="1.0" encoding="utf-8"?>
<svg width="65" height="56" viewBox="0 0 65 56" fill="none" xmlns="http://www.w3.org/2000/svg">
  <g>
    <path d="M45 3.8147e-06C47.7618 3.8147e-06 50 2.2382 50 5L50 39C50 44.5236 45.5236 49 40 49L5 49C2.2382 49 -7.62939e-06 46.7618 -7.62939e-06 44L0 18C0 8.05752 8.05752 0 18 0L45 3.8147e-06Z" fill="#E8F5E9" transform="matrix(-1 -0 0 -1 65 56)" />
    <g>
      <g transform="translate(6 9)">
        <path d="M0.565674 2.09267C0.253653 2.09267 0 1.83942 0 1.52699L0 0.565673C0 0.253652 0.253248 0 0.565674 0C0.877693 0 1.13135 0.253248 1.13135 0.565673L1.13135 1.52699C1.13135 1.83942 0.877705 2.09267 0.565674 2.09267L0.565674 2.09267Z" fill="#103E13" fill-rule="evenodd" transform="translate(20.351 7.918)" />
        <path d="M0.565674 2.09267C0.253653 2.09267 0 1.83942 0 1.52699L0 0.565673C0 0.253652 0.253248 0 0.565674 0C0.877693 0 1.13135 0.253248 1.13135 0.565673L1.13135 1.52699C1.13095 1.83942 0.878098 2.09267 0.565674 2.09267L0.565674 2.09267Z" fill="#103E13" fill-rule="evenodd" transform="translate(17.972 7.918)" />
        <path d="M0.565676 2.09267C0.253655 2.09267 0 1.83942 0 1.52699L0 0.565673C0 0.253652 0.253251 0 0.565676 0C0.877697 0 1.13135 0.253248 1.13135 0.565673L1.13135 1.52699C1.13135 1.83942 0.878101 2.09267 0.565676 2.09267L0.565676 2.09267Z" fill="#103E13" fill-rule="evenodd" transform="translate(15.594 7.918)" />
        <path d="M0.565674 2.09227C0.253653 2.09227 0 1.83903 0 1.5266L0 0.565673C0 0.253652 0.253248 0 0.565674 0C0.877693 0 1.13135 0.253248 1.13135 0.565673L1.13135 1.5266C1.13135 1.83903 0.877705 2.09227 0.565674 2.09227L0.565674 2.09227Z" fill="#103E13" fill-rule="evenodd" transform="translate(20.351 11.85)" />
        <path d="M0.565674 2.09227C0.253653 2.09227 0 1.83903 0 1.5266L0 0.565673C0 0.253652 0.253248 0 0.565674 0C0.877693 0 1.13135 0.253248 1.13135 0.565673L1.13135 1.5266C1.13095 1.83903 0.878098 2.09227 0.565674 2.09227L0.565674 2.09227Z" fill="#103E13" fill-rule="evenodd" transform="translate(17.972 11.85)" />
        <path d="M0.565676 2.09227C0.253655 2.09227 0 1.83903 0 1.5266L0 0.565673C0 0.253652 0.253251 0 0.565676 0C0.877697 0 1.13135 0.253248 1.13135 0.565673L1.13135 1.5266C1.13135 1.83903 0.878101 2.09227 0.565676 2.09227L0.565676 2.09227Z" fill="#103E13" fill-rule="evenodd" transform="translate(15.594 11.85)" />
        <path d="M0.565674 2.09267C0.253653 2.09267 0 1.83942 0 1.52699L0 0.565674C0 0.253653 0.253248 0 0.565674 0C0.877693 0 1.13135 0.253248 1.13135 0.565674L1.13135 1.52699C1.13135 1.83942 0.877705 2.09267 0.565674 2.09267L0.565674 2.09267Z" fill="#103E13" fill-rule="evenodd" transform="translate(20.351 15.781)" />
        <path d="M0.565674 2.09267C0.253653 2.09267 0 1.83942 0 1.52699L0 0.565674C0 0.253653 0.253248 0 0.565674 0C0.877693 0 1.13135 0.253248 1.13135 0.565674L1.13135 1.52699C1.13095 1.83942 0.878098 2.09267 0.565674 2.09267L0.565674 2.09267Z" fill="#103E13" fill-rule="evenodd" transform="translate(17.972 15.781)" />
        <path d="M0.565676 2.09267C0.253655 2.09267 0 1.83942 0 1.52699L0 0.565674C0 0.253653 0.253251 0 0.565676 0C0.877697 0 1.13135 0.253248 1.13135 0.565674L1.13135 1.52699C1.13135 1.83942 0.878101 2.09267 0.565676 2.09267L0.565676 2.09267Z" fill="#103E13" fill-rule="evenodd" transform="translate(15.594 15.781)" />
        <path d="M0.565674 2.09267C0.253653 2.09267 0 1.83942 0 1.52699L0 0.565674C0 0.253653 0.253248 0 0.565674 0C0.877693 0 1.13135 0.253248 1.13135 0.565674L1.13135 1.52699C1.13135 1.83942 0.877705 2.09267 0.565674 2.09267L0.565674 2.09267Z" fill="#103E13" fill-rule="evenodd" transform="translate(20.351 19.711)" />
        <path d="M0.565674 2.09267C0.253653 2.09267 0 1.83942 0 1.52699L0 0.565674C0 0.253653 0.253248 0 0.565674 0C0.877693 0 1.13135 0.253248 1.13135 0.565674L1.13135 1.52699C1.13095 1.83942 0.878098 2.09267 0.565674 2.09267L0.565674 2.09267Z" fill="#103E13" fill-rule="evenodd" transform="translate(17.972 19.711)" />
        <path d="M0.565676 2.09267C0.253655 2.09267 0 1.83942 0 1.52699L0 0.565674C0 0.253653 0.253251 0 0.565676 0C0.877697 0 1.13135 0.253248 1.13135 0.565674L1.13135 1.52699C1.13135 1.83942 0.878101 2.09267 0.565676 2.09267L0.565676 2.09267Z" fill="#103E13" fill-rule="evenodd" transform="translate(15.594 19.711)" />
        <path d="M0.565674 2.09227C0.253653 2.09227 0 1.83903 0 1.5266L0 0.565676C0 0.253654 0.253248 0 0.565674 0C0.877693 0 1.13135 0.25325 1.13135 0.565676L1.13135 1.5266C1.13135 1.83862 0.877705 2.09227 0.565674 2.09227L0.565674 2.09227Z" fill="#103E13" fill-rule="evenodd" transform="translate(20.351 23.643)" />
        <path d="M0.565674 2.09227C0.253653 2.09227 0 1.83903 0 1.5266L0 0.565676C0 0.253654 0.253248 0 0.565674 0C0.877693 0 1.13135 0.25325 1.13135 0.565676L1.13135 1.5266C1.13095 1.83862 0.878098 2.09227 0.565674 2.09227L0.565674 2.09227Z" fill="#103E13" fill-rule="evenodd" transform="translate(17.972 23.643)" />
        <path d="M0.565676 2.09227C0.253655 2.09227 0 1.83903 0 1.5266L0.000394821 0.565676C0.000394821 0.253654 0.253645 0 0.566071 0C0.878092 0 1.13174 0.25325 1.13174 0.565676L1.13174 1.5266C1.13135 1.83862 0.878101 2.09227 0.565676 2.09227L0.565676 2.09227Z" fill="#103E13" fill-rule="evenodd" transform="translate(15.594 23.643)" />
        <path d="M0.000474596 29.6471C0.000474596 29.9592 0.253724 30.2128 0.566149 30.2128L35.0139 30.2128C35.3259 30.2128 35.5796 29.9596 35.5796 29.6471C35.5796 29.3351 35.3263 29.0815 35.0139 29.0815L33.9682 29.0815L33.9682 12.8402C33.9682 12.5281 33.715 12.2745 33.4025 12.2745L24.1668 12.2749L24.1668 0.565762C24.1668 0.367742 24.0635 0.184709 23.8946 0.0821389C23.7262 -0.0208145 23.5156 -0.0271258 23.3404 0.0639933L12.8401 5.53098C12.6527 5.62841 12.5359 5.8217 12.5359 6.03275L12.5359 16.2604L2.37388 16.2604C2.06186 16.2604 1.8082 16.5137 1.8082 16.8261L1.8082 29.0816L0.564887 29.0816C0.252866 29.0812 0 29.3344 0 29.6468L0.000474596 29.6471L0.000474596 29.6471ZM13.6667 6.37622L23.0353 1.49818L23.0353 29.081L13.6667 29.081L13.6667 6.37622L13.6667 6.37622ZM24.167 13.4056L32.8374 13.4056L32.8374 15.7808L24.167 15.7808L24.167 13.4056L24.167 13.4056ZM24.167 16.9113L32.8374 16.9113L32.8374 19.7113L24.167 19.7109L24.167 16.9113L24.167 16.9113ZM2.93952 17.3916L12.5358 17.3916L12.5358 29.0815L11.015 29.0815L11.015 24.5633C11.015 22.7657 9.57762 21.303 7.80959 21.303C6.04236 21.303 4.60495 22.7653 4.60495 24.5633L4.60495 29.0815L2.93952 29.0815L2.93952 17.3916L2.93952 17.3916ZM24.167 20.8422L32.8374 20.8422L32.8374 29.0819L24.167 29.0815L24.167 20.8422L24.167 20.8422ZM5.73588 24.5635C5.73588 23.3895 6.66603 22.4341 7.80959 22.4341C8.95314 22.4341 9.88371 23.3891 9.88371 24.5635L9.88371 29.0817L5.73588 29.0817L5.73588 24.5635L5.73588 24.5635Z" fill="#103E13" fill-rule="evenodd" />
      </g>
    </g>
  </g>
</svg>