<?xml version="1.0" encoding="utf-8"?>
<svg width="65" height="56" viewBox="0 0 65 56" fill="none" xmlns="http://www.w3.org/2000/svg">
  <g>
    <path d="M45 3.8147e-06C47.7618 3.8147e-06 50 2.2382 50 5L50 39C50 44.5236 45.5236 49 40 49L5 49C2.2382 49 -7.62939e-06 46.7618 -7.62939e-06 44L0 18C0 8.05752 8.05752 0 18 0L45 3.8147e-06Z" fill="#E8F5E9" transform="matrix(-1 -0 0 -1 65 56)" />
    <g>
      <g transform="translate(7.968 9)">
        <path d="M11.1408 -2.40078C10.9 -2.40078 10.6764 -2.46698 10.4778 -2.57347L10.4778 -2.57064C10.4778 -2.19181 10.3305 -1.83603 10.0634 -1.56957C9.79621 -1.3024 9.4407 -1.15515 9.0623 -1.15515C8.81798 -1.15515 8.59157 -1.223 8.39083 -1.33232C8.37057 -0.985758 8.23204 -0.661821 7.9849 -0.414417C7.71773 -0.147247 7.36222 0 6.98358 0C6.23129 0 5.62038 -0.591351 5.57635 -1.33256C5.34358 -1.20675 5.08042 -1.14078 4.80899 -1.15821C4.06895 -1.20675 3.4894 -1.84615 3.4894 -2.61423L3.4894 -8.98088L2.76444 -7.72492C2.48832 -7.24454 1.97144 -6.94628 1.41493 -6.94628C1.14376 -6.94628 0.875887 -7.01743 0.638645 -7.15337C0.343208 -7.32465 0.131877 -7.59959 0.0439949 -7.92851C-0.0443516 -8.25764 0.00135136 -8.60185 0.17216 -8.89684C0.172395 -8.89684 2.54415 -13.004 2.68884 -13.2563C2.70604 -13.2943 2.75505 -13.4043 2.79675 -13.498C2.83657 -13.5876 2.87073 -13.6795 2.90347 -13.7718C3.61873 -15.7911 5.38976 -17.0454 7.52569 -17.0454C10.2994 -17.0454 12.5559 -14.5985 12.5559 -11.5908L12.5561 -3.81648C12.5561 -3.43811 12.4091 -3.08259 12.1422 -2.81517C11.875 -2.548 11.5195 -2.40075 11.1407 -2.40075L11.1408 -2.40078L11.1408 -2.40078ZM7.52571 -16.2933C5.69038 -16.2933 4.22755 -15.2566 3.61242 -13.5203C3.57307 -13.41 3.53208 -13.2998 3.48425 -13.1923C3.34548 -12.8811 3.34548 -12.8811 3.30638 -12.8363L3.30119 -12.8408C3.10753 -12.4754 2.5322 -11.4791 0.823412 -8.52041C0.753202 -8.39908 0.734588 -8.25818 0.770402 -8.12343C0.806684 -7.98866 0.893622 -7.87511 1.01401 -7.80561C1.38767 -7.59098 1.89941 -7.72951 2.11237 -8.10057L3.53986 -10.572C3.62515 -10.7193 3.79761 -10.7916 3.963 -10.7468C4.12745 -10.7028 4.24171 -10.5536 4.24171 -10.3835L4.24171 -2.61401C4.24171 -2.24743 4.5183 -1.93103 4.85829 -1.90865C5.05431 -1.89829 5.23713 -1.96402 5.37448 -2.10114C5.49935 -2.226 5.56814 -2.39233 5.56814 -2.57021L5.56814 -7.65159C5.56814 -7.85938 5.7366 -8.02784 5.94439 -8.02784C6.15219 -8.02784 6.32064 -7.85962 6.32064 -7.65159L6.32041 -1.41522C6.32041 -1.04957 6.61797 -0.752012 6.98361 -0.752012C7.16125 -0.752012 7.32805 -0.820807 7.45316 -0.945671C7.57803 -1.07077 7.64682 -1.23757 7.64682 -1.41522L7.64682 -7.65159C7.64682 -7.85939 7.81504 -8.02784 8.02307 -8.02784C8.23087 -8.02784 8.39932 -7.85962 8.39932 -7.65159L8.39909 -2.62866L8.39909 -2.57023C8.39909 -2.20482 8.69665 -1.90727 9.06253 -1.90727C9.23993 -1.90727 9.40627 -1.9763 9.53208 -2.10164C9.65694 -2.22627 9.72574 -2.3926 9.72574 -2.57048L9.72574 -7.65185C9.72574 -7.85965 9.89396 -8.0281 10.102 -8.0281C10.3098 -8.0281 10.4782 -7.85989 10.4782 -7.65185L10.4778 -3.81631C10.4778 -3.45042 10.7753 -3.15286 11.1407 -3.15286C11.3186 -3.15286 11.4849 -3.22189 11.6098 -3.34652C11.7351 -3.47186 11.8037 -3.63867 11.8037 -3.81631L11.8039 -11.5907C11.8039 -14.1834 9.88477 -16.2932 7.52569 -16.2932L7.52571 -16.2933L7.52571 -16.2933Z" fill="#103E13" fill-rule="evenodd" transform="matrix(1 0 0 -1 9.203 17.045)" />
        <path d="M5.56096 -9.95199L11.0207 -13.2273C11.6789 -13.6226 12.5259 -13.4546 12.9481 -12.8447C13.1022 -12.6225 13.1809 -12.3636 13.1931 -12.0999C13.3967 -12.2062 13.6181 -12.2639 13.8436 -12.2639C13.959 -12.2639 14.075 -12.2495 14.1895 -12.221C14.5563 -12.1294 14.8654 -11.9001 15.0598 -11.576C15.2544 -11.2513 15.3112 -10.8709 15.2195 -10.5045C15.1349 -10.1654 14.9288 -9.8801 14.6421 -9.68432C14.8426 -9.56606 15.0155 -9.40467 15.1385 -9.19923C15.3331 -8.87457 15.3899 -8.49429 15.2984 -8.12746C15.2068 -7.76111 14.9776 -7.45202 14.6529 -7.25715L14.651 -7.25597C14.848 -7.13794 15.0178 -6.9782 15.1394 -6.77582C15.3343 -6.45117 15.391 -6.0707 15.2994 -5.70388C15.2075 -5.33729 14.9783 -5.02819 14.6541 -4.83356L7.98769 -0.834263C6.7435 -0.088129 5.30515 0.169407 3.93822 -0.109781C2.55904 -0.391558 1.41683 -1.18432 0.722324 -2.34209C-0.37676 -4.17386 -0.212046 -6.33807 1.15135 -7.98986C1.21379 -8.06525 1.27527 -8.14206 1.33111 -8.22169C1.39025 -8.3058 1.45928 -8.40476 1.48284 -8.43868C1.60266 -8.65271 3.28069 -11.6758 3.78448 -12.5834C3.87403 -12.7447 3.92648 -12.8392 3.92648 -12.8392C4.15902 -13.2588 4.59487 -13.4963 5.04438 -13.4961C5.25407 -13.4961 5.46681 -13.4445 5.66307 -13.3356C5.90009 -13.2032 6.09917 -13.0102 6.23841 -12.7777C6.52466 -12.3006 6.53479 -11.7036 6.26526 -11.2204L5.56096 -9.95199L5.56096 -9.95199ZM5.59371 -12.3909C5.52068 -12.5127 5.42031 -12.6098 5.29756 -12.6786C5.04382 -12.819 4.72435 -12.7276 4.58466 -12.4748C2.93691 -9.50625 2.37521 -8.49462 2.15845 -8.13461L2.16339 -8.13343C2.14525 -8.07312 2.14525 -8.07312 1.94688 -7.7897C1.8795 -7.69381 1.80623 -7.60169 1.73155 -7.51099C0.55918 -6.09055 0.423054 -4.30306 1.36707 -2.72907C1.95183 -1.75417 2.91827 -1.08578 4.08846 -0.846876C5.27138 -0.606329 6.51817 -0.830149 7.60031 -1.47944L14.2673 -5.47892C14.4195 -5.57009 14.5269 -5.71499 14.5698 -5.88674C14.6127 -6.05826 14.5861 -6.2366 14.4947 -6.38879C14.3067 -6.70214 13.8984 -6.80509 13.585 -6.61638L10.2961 -4.64324C10.118 -4.53628 9.88662 -4.59376 9.77989 -4.77211C9.67293 -4.95022 9.73065 -5.18135 9.90876 -5.28831L13.1979 -7.26145L14.2661 -7.90227C14.4183 -7.99368 14.526 -8.13858 14.5689 -8.30986C14.6118 -8.48161 14.5851 -8.66019 14.4937 -8.81215C14.3055 -9.12573 13.8972 -9.22774 13.5841 -9.03973L9.22671 -6.42577C9.04813 -6.31857 8.81747 -6.37653 8.71051 -6.55464C8.60355 -6.73275 8.66151 -6.96387 8.83938 -7.07083L14.1872 -10.2789C14.3394 -10.3704 14.4469 -10.515 14.4897 -10.6868C14.5326 -10.8583 14.506 -11.0366 14.4148 -11.1888C14.3236 -11.3408 14.1787 -11.4482 14.007 -11.4911C13.8343 -11.534 13.6567 -11.5073 13.5049 -11.4164L12.515 -10.8225L12.5145 -10.8222L12.5142 -10.8222L8.15711 -8.20826C7.97853 -8.10083 7.74764 -8.15878 7.64091 -8.33713C7.53396 -8.51524 7.59191 -8.74637 7.76979 -8.85332L12.1272 -11.4673C12.2794 -11.5587 12.387 -11.7036 12.4299 -11.8749C12.477 -12.0629 12.4412 -12.2551 12.3295 -12.4163C12.1359 -12.6964 11.7217 -12.7709 11.4077 -12.5821L4.74547 -8.58544C4.59964 -8.49827 4.41281 -8.51947 4.29053 -8.63751C4.16802 -8.75577 4.14045 -8.94166 4.22291 -9.09032L5.60824 -11.5863C5.74725 -11.8358 5.74183 -12.1439 5.59364 -12.3908L5.59371 -12.3909L5.59371 -12.3909Z" fill="#103E13" fill-rule="evenodd" transform="matrix(1 0 0 -1 -0 30)" />
        <path d="M14.6203 -2.34187C13.926 -1.18393 12.7841 -0.391361 11.4046 -0.109581C10.0375 0.169132 8.59961 -0.0879059 7.35517 -0.834061L0.688166 -4.83354C0.363749 -5.02815 0.134275 -5.33725 0.0423946 -5.70434C-0.0487823 -6.07069 0.00823212 -6.4512 0.202597 -6.77538C0.323929 -6.978 0.494028 -7.13773 0.691229 -7.25576L0.689344 -7.25694C0.364925 -7.45155 0.135454 -7.76065 0.0440559 -8.12726C-0.0478249 -8.49385 0.00918579 -8.8746 0.203789 -9.1992C0.329124 -9.4077 0.500877 -9.57074 0.696896 -9.68642C0.412291 -9.8822 0.207323 -10.1666 0.12298 -10.504C0.0310993 -10.8708 0.0881138 -11.2513 0.282715 -11.5755C0.477085 -11.8999 0.786425 -12.1291 1.15303 -12.2208C1.26753 -12.2495 1.38368 -12.2637 1.49866 -12.2637C1.72436 -12.2634 1.94582 -12.2062 2.14937 -12.0997C2.16186 -12.3633 2.24031 -12.6222 2.39439 -12.8444C2.81682 -13.4539 3.66308 -13.6226 4.3223 -13.227L9.78184 -9.95221L9.07811 -11.2198C8.80811 -11.7037 8.81801 -12.3007 9.10426 -12.778C9.24373 -13.0103 9.44305 -13.2033 9.68123 -13.3368C9.87702 -13.4452 10.0891 -13.4966 10.2982 -13.4966C10.7475 -13.4963 11.1839 -13.2593 11.4161 -12.8397C12.2257 -11.3811 13.7533 -8.63027 13.8607 -8.43823C13.8835 -8.40501 13.9526 -8.30606 14.0117 -8.22196C14.068 -8.14209 14.1288 -8.06576 14.1917 -7.98989C15.5549 -6.33743 15.7193 -4.17346 14.6203 -2.34187L14.6203 -2.34187ZM13.6113 -7.51042C13.5363 -7.60112 13.4628 -7.69371 13.3959 -7.78913C13.1924 -8.07797 13.1872 -8.08551 13.1719 -8.16114C12.9339 -8.55482 12.3534 -9.59991 10.7577 -12.4747C10.6178 -12.7271 10.2997 -12.8192 10.0465 -12.6792C9.92182 -12.6095 9.82169 -12.5122 9.74866 -12.3904C9.6007 -12.1437 9.59505 -11.8355 9.73476 -11.5853L11.1196 -9.09011C11.2023 -8.94121 11.1747 -8.75556 11.0525 -8.63729C10.9304 -8.51879 10.7438 -8.49805 10.5973 -8.58523L3.9351 -12.5819C3.62105 -12.7702 3.20712 -12.6964 3.01298 -12.4161C2.9013 -12.2549 2.86573 -12.0627 2.91237 -11.8749C2.95525 -11.7034 3.06292 -11.5587 3.21535 -11.4673L3.21653 -11.4664L7.57252 -8.85313C7.75063 -8.74617 7.80835 -8.51528 7.70139 -8.33693C7.59443 -8.15906 7.36377 -8.10086 7.18519 -8.20806L1.83736 -11.4162C1.68563 -11.5071 1.50705 -11.534 1.33553 -11.4909C1.16354 -11.448 1.01889 -11.3405 0.927713 -11.1881C0.836304 -11.0362 0.809916 -10.8578 0.852322 -10.6863C0.895201 -10.5148 1.00287 -10.3699 1.15506 -10.2785L2.19571 -9.65436L6.50266 -7.07031C6.68077 -6.96335 6.7385 -6.73246 6.63153 -6.55411C6.52457 -6.37623 6.29392 -6.31827 6.11534 -6.42524L1.75844 -9.03921C1.4451 -9.22768 1.03704 -9.12544 0.84856 -8.81162C0.757151 -8.65943 0.730762 -8.48108 0.773169 -8.30956C0.816048 -8.13804 0.923717 -7.99339 1.07615 -7.90174L2.14435 -7.26092L5.43304 -5.28778C5.61115 -5.18082 5.66888 -4.94993 5.56191 -4.77158C5.45495 -4.59371 5.2243 -4.53527 5.04572 -4.64271L1.75703 -6.61585C1.6053 -6.70679 1.42743 -6.73365 1.25497 -6.69054C1.08345 -6.64766 0.938324 -6.54023 0.847149 -6.38827C0.755974 -6.23607 0.729351 -6.05749 0.771757 -5.88621C0.814636 -5.71469 0.922304 -5.57004 1.07473 -5.47839L7.74174 -1.47891C8.82363 -0.829821 10.0713 -0.605093 11.2536 -0.846348C12.4235 -1.08524 13.39 -1.75364 13.9747 -2.72854C14.9197 -4.30283 14.7838 -6.09051 13.6117 -7.51046L13.6113 -7.51042L13.6113 -7.51042Z" fill="#103E13" fill-rule="evenodd" transform="matrix(1 0 0 -1 17.03 30)" />
      </g>
    </g>
  </g>
</svg>