<?xml version="1.0" encoding="utf-8"?>
<svg width="40" height="28" viewBox="0 0 40 28" fill="none" xmlns="http://www.w3.org/2000/svg">
  <g>
    <path d="M9.98578 4.11462L0 14C1.99734 15.9773 4.27899 17.6437 6.76664 18.9474C7.45424 20.753 8.53203 22.4463 10 23.8995C15.5229 29.3668 24.4772 29.3668 30 23.8995C31.468 22.4463 32.5458 20.753 33.2334 18.9473C35.721 17.6437 38.0027 15.9773 40 14L30.0223 4.12266C30.0149 4.11527 30.0075 4.10788 30 4.1005C24.4772 -1.36683 15.5229 -1.36683 10 4.1005C9.99527 4.10521 9.99052 4.10991 9.98578 4.11462L9.98578 4.11462ZM12.2051 5.88245C12.9554 6.37316 13.7532 6.79307 14.588 7.13541C16.3038 7.83897 18.1428 8.20109 20 8.20109C21.8572 8.20109 23.6962 7.83897 25.412 7.13541C26.2468 6.79307 27.0446 6.37315 27.795 5.88243C23.4318 1.77258 16.5682 1.77259 12.2051 5.88245L12.2051 5.88245ZM29.0445 20.7308C26.1345 21.703 23.0797 22.2009 20 22.2009C16.9203 22.2009 13.8656 21.703 10.9556 20.7308C11.2709 21.1449 11.619 21.5423 12 21.9195C16.4183 26.2934 23.5817 26.2934 28 21.9195C28.381 21.5423 28.7292 21.1449 29.0445 20.7308L29.0445 20.7308Z" fill="#3B4158" fill-rule="evenodd" transform="translate(0 -0)" />
  </g>
</svg>