<?xml version="1.0" encoding="utf-8"?>
<svg width="52" height="48" viewBox="0 0 52 48" fill="none" xmlns="http://www.w3.org/2000/svg">
  <g transform="translate(2 0)">
    <g transform="translate(-2 13.847)">
      <path d="M12.3431 0C10.3124 0 8.36487 0.8067 6.92893 2.24264L2.24264 6.92893C0.8067 8.36487 0 10.3124 0 12.3431C0 16.5719 3.42809 20 7.65687 20C9.6876 20 11.6351 19.1933 13.0711 17.7573L16.3126 14.5158L25.7573 5.07107C26.4431 4.38527 27.3733 4 28.3431 4C29.9669 4 31.3435 5.05827 31.8207 6.52271L34.8015 3.54197C33.4417 1.41223 31.0573 0 28.3431 0C26.3124 0 24.3649 0.8067 22.9289 2.24264L10.2427 14.9289C9.55687 15.6147 8.62673 16 7.65687 16C5.63723 16 4 14.3628 4 12.3431C4 11.3733 4.38527 10.4431 5.07107 9.75733L9.75733 5.07107C10.4431 4.38527 11.3733 4 12.3431 4C13.9669 4 15.3435 5.05832 15.8207 6.52281L18.8015 3.54205C17.4417 1.41227 15.0574 0 12.3431 0L12.3431 0Z" fill="#394149" fill-rule="evenodd" />
      <path d="M9.04386 14.9289C8.35806 15.6147 7.42793 16 6.45806 16C4.83453 16 3.45807 14.942 2.98067 13.4778L0 16.4585C1.35987 18.5879 3.74406 20 6.45806 20C8.4888 20 10.4363 19.1933 11.8723 17.7573L24.5585 5.07107C25.2443 4.38527 26.1745 4 27.1443 4C29.164 4 30.8012 5.63723 30.8012 7.65687C30.8012 8.62673 30.4159 9.55687 29.7301 10.2427L25.0439 14.9289C24.3581 15.6147 23.4279 16 22.4581 16C20.8344 16 19.4579 14.9418 18.9805 13.4775L15.9999 16.4582C17.3597 18.5879 19.7439 20 22.4581 20C24.4888 20 26.4363 19.1933 27.8723 17.7573L32.5585 13.0711C33.9945 11.6351 34.8012 9.6876 34.8012 7.65687C34.8012 3.42809 31.3731 0 27.1443 0C25.1136 0 23.1661 0.8067 21.7301 2.24264L9.04386 14.9289L9.04386 14.9289Z" fill="#394149" fill-rule="evenodd" transform="translate(17.199 0)" />
    </g>
  </g>
</svg>