<?xml version="1.0" encoding="utf-8"?>
<svg width="55" height="30" viewBox="0 0 55 30" fill="none" xmlns="http://www.w3.org/2000/svg">
  <defs>
    <clipPath id="clip_path_1">
      <rect width="55" height="30" />
    </clipPath>
  </defs>
  <g clip-path="url(#clip_path_1)">
    <path d="M54.9957 10.6697C55.0015 10.6279 55.0015 10.5858 54.9957 10.5441C55.0011 10.5101 55.0011 10.4755 54.9957 10.4414L54.5883 7.50877C54.5295 7.15792 54.3723 6.82999 54.1344 6.56166L54.0645 6.48178L53.9365 6.35625L46.9443 0.451555C46.8099 0.327092 46.6551 0.224826 46.4861 0.149222C46.2565 0.0465303 46.0062 -0.00436252 45.7539 0.000298063L43.6122 0.000298063C43.2639 -0.0064666 42.9236 0.102086 42.6461 0.308402C42.3547 0.103328 42.0038 -0.00466859 41.6451 0.000298063L39.5034 0.000298063C39.2225 -0.00416973 38.9454 0.0641735 38.7001 0.198428C38.4549 0.332683 38.2501 0.528082 38.1067 0.764835C37.8855 1.10299 37.8023 1.51041 37.8738 1.90595L38.1416 3.75453C37.9642 3.65597 37.7635 3.60482 37.5596 3.6062L27.1887 3.6062C26.8166 3.60849 26.4531 3.71541 26.1411 3.91429C25.8395 4.0994 25.5973 4.36447 25.4428 4.67882L24.6396 4.00558C24.3235 3.71884 23.9063 3.56343 23.4757 3.57196L7.20353 3.57196C6.83012 3.57863 6.46501 3.6809 6.14436 3.86865C5.70569 4.12036 5.38421 4.52965 5.24809 5.00975L0.0801167 21.9552C-0.0164452 22.2344 -0.0259442 22.5355 0.0528362 22.8201C0.131617 23.1046 0.295109 23.3597 0.522426 23.5528C0.558379 23.5827 0.595422 23.6112 0.63348 23.6385L7.59931 29.5322C7.89769 29.8015 8.28781 29.952 8.69336 29.9543L25.0936 29.9543C25.4681 29.9448 25.8335 29.8385 26.1528 29.6462C26.3334 29.5495 26.495 29.422 26.63 29.2696L26.6882 29.1898L26.7813 29.0757L26.8512 28.9501L27.6194 29.6006C27.9135 29.8592 28.2951 30.0015 28.6902 30L45.1253 30C45.4994 29.9878 45.8641 29.8817 46.1845 29.6919C46.361 29.5892 46.5217 29.4624 46.6618 29.3153L46.7199 29.2354L46.813 29.1214C46.8625 29.0491 46.9055 28.9728 46.941 28.8931C46.9791 28.8239 47.0103 28.7513 47.0342 28.6763L51.7482 13.2029L51.7482 13.066C51.754 13.0129 51.754 12.9593 51.7482 12.9062L51.7482 12.8035C51.7539 12.7695 51.7539 12.7349 51.7482 12.7008C51.7535 12.6287 51.7535 12.5562 51.7482 12.484L53.2614 12.484C53.393 12.4958 53.5255 12.4958 53.6571 12.484L53.7619 12.484C53.8471 12.4591 53.9291 12.4246 54.0063 12.3813L54.1227 12.3813L54.3322 12.2215L54.4253 12.1531L54.5883 11.9476L54.5883 11.8792L54.7047 11.6852C54.6982 11.6475 54.6982 11.6089 54.7047 11.5711C54.6985 11.5526 54.6985 11.5326 54.7047 11.5141C54.7294 11.4472 54.7489 11.3785 54.7629 11.3087C54.7575 11.2861 54.7575 11.2627 54.7629 11.2402C54.7572 11.2062 54.7572 11.1715 54.7629 11.1375C54.7629 11.1375 54.9957 10.6925 54.9957 10.6697L54.9957 10.6697ZM0.545715 23.5642L1.54572 24.5642C1.19283 24.2449 0.8298 23.893 0.545715 23.5642L0.545715 23.5642Z" fill="#000000" fill-rule="evenodd" transform="translate(-0 -0)" />
    <path d="M45.1993 0.570945C45.1593 0.431513 45.0877 0.302768 44.9897 0.194378C44.9362 0.130905 44.8683 0.0804003 44.7916 0.0467553C44.715 0.0131178 44.6314 -0.00275218 44.5474 0.000390291L42.4057 0.000390291C42.326 -0.00183725 42.2471 0.0171378 42.1774 0.0553052C42.1077 0.0934728 42.0499 0.149423 42.01 0.2172C41.9326 0.318435 41.899 0.445598 41.9169 0.570945L42.3475 3.58346C42.3745 3.7286 42.4431 3.86318 42.5454 3.97144C42.6023 4.0339 42.6724 4.08357 42.7508 4.11705C42.8291 4.15053 42.9138 4.16703 42.9993 4.16542L45.141 4.16542C45.2206 4.16645 45.299 4.14698 45.3685 4.10892C45.438 4.07087 45.496 4.0156 45.5368 3.94862C45.5773 3.89757 45.6056 3.83826 45.6197 3.77508C45.6338 3.7119 45.6333 3.64643 45.6182 3.58346L45.1993 0.570945L45.1993 0.570945ZM38.4366 3.99428C38.4925 4.05799 38.5624 4.10851 38.641 4.14209C38.7196 4.17568 38.8049 4.19146 38.8906 4.18827L41.0206 4.18827C41.1018 4.18905 41.1817 4.16955 41.253 4.13161C41.3243 4.09368 41.3845 4.03855 41.428 3.97146C41.4658 3.91905 41.4926 3.85972 41.5065 3.79699C41.5205 3.73426 41.5215 3.66943 41.5094 3.60631L41.0905 0.593785C41.0506 0.45436 40.9789 0.325615 40.881 0.217217C40.825 0.153512 40.7552 0.102992 40.6766 0.0694072C40.598 0.0358222 40.5126 0.0200421 40.427 0.0232296L38.297 0.0232296C38.2159 0.0224571 38.1359 0.0419571 38.0646 0.0798922C37.9933 0.117827 37.9331 0.172945 37.8896 0.240047C37.8081 0.399797 37.7732 0.502495 37.8081 0.593785L38.2388 3.60631C38.2609 3.753 38.3302 3.88892 38.4366 3.99428L38.4366 3.99428ZM36.5626 5.13542L36.3531 3.65198L26.0289 3.65198C25.8668 3.66074 25.7099 3.71197 25.5749 3.80032C25.4892 3.84616 25.4145 3.90968 25.3562 3.98651C25.298 4.06335 25.2575 4.15165 25.2374 4.24536L24.376 7.07528C24.3416 7.14601 24.3299 7.22536 24.3423 7.30276C24.3549 7.38016 24.3909 7.45201 24.4458 7.50893C24.544 7.59938 24.6721 7.65211 24.8067 7.65728L37.3542 7.65728L34.2697 17.7675L21.7571 17.7675C21.5958 17.7711 21.4386 17.8185 21.3032 17.9044C21.1386 18.007 21.0184 18.1653 20.9656 18.3494L20.0927 21.1794C20.0642 21.252 20.0567 21.3309 20.0711 21.4074C20.0855 21.4839 20.1211 21.555 20.1741 21.6129C20.2692 21.7095 20.3983 21.7666 20.535 21.7727L36.97 21.7727C37.14 21.7584 37.3039 21.7035 37.4472 21.6129C37.6191 21.5183 37.7481 21.3634 37.8081 21.1794L42.5337 5.70597L37.2145 5.70597C37.1301 5.7076 37.0463 5.69224 36.9682 5.66084C36.8901 5.62944 36.8195 5.58264 36.7606 5.52339C36.6643 5.41991 36.5963 5.29433 36.5626 5.15824L36.5626 5.13542L36.5626 5.13542ZM22.793 3.82315C22.8548 3.87793 22.898 3.94996 22.9167 4.02954C22.9355 4.10911 22.9288 4.1924 22.8978 4.26818L17.7415 21.2023C17.6766 21.3871 17.5437 21.5417 17.369 21.6359C17.2269 21.7291 17.0623 21.7842 16.8917 21.7957L0.503251 21.7957C0.363291 21.7891 0.230696 21.7322 0.130779 21.6359C0.0713407 21.582 0.0296247 21.5119 0.0109628 21.4348C-0.00769889 21.3575 -0.00244331 21.2766 0.0260268 21.2023L5.194 4.26818C5.25355 4.08097 5.38221 3.92227 5.55483 3.82315C5.69933 3.73662 5.86309 3.68572 6.03205 3.6748L22.4205 3.6748C22.5594 3.67612 22.6926 3.72916 22.793 3.82315L22.793 3.82315ZM14.2379 17.7903L17.3224 7.68005L8.68593 7.68005L5.61304 17.7903L14.2379 17.7903L14.2379 17.7903Z" fill="#FFFFFF" fill-rule="evenodd" transform="translate(1.16 1.05)" />
  </g>
</svg>