<?xml version="1.0" encoding="utf-8"?>
<svg width="47" height="29" viewBox="0 0 47 29" fill="none" xmlns="http://www.w3.org/2000/svg">
  <g>
    <path d="M0.554871 0.371958C0.554871 0.405769 0.554871 0.448037 0.546074 0.473398C0.502029 0.803082 0.502026 1.13277 0.528412 1.47091C0.54607 1.55544 0.563663 1.63998 0.634163 1.70761C0.748638 1.8344 0.924759 1.80905 0.995258 1.65688C1.03051 1.5808 1.03051 1.50472 1.01285 1.42864C0.924759 1.1074 0.907166 0.769271 0.898369 0.439581L0.898369 0.371958C0.995258 0.363502 1.08335 0.355046 1.16258 0.355046C1.22428 0.346596 1.27712 0.33814 1.32117 0.312778C1.45324 0.245155 1.45324 0.101447 1.31231 0.033818C1.25946 0.00845623 1.18903 0 1.1274 0C0.907169 0.00845599 0.687012 0.00845599 0.466789 0.00845599L0.466778 0.00845599C0.387547 0.00845599 0.30825 0.016912 0.228954 0.0253618C0.18491 0.0338178 0.132072 0.033818 0.0968895 0.0591798C0.035183 0.0845349 0 0.126802 0 0.185976C0.00879669 0.245155 0.035183 0.278967 0.0968895 0.304329C0.132072 0.32969 0.176113 0.33814 0.220158 0.33814C0.325844 0.346596 0.440392 0.363502 0.554871 0.371958L0.554871 0.371958ZM2.97693 0.76081C2.97693 0.769267 2.98573 0.777716 2.98573 0.777716C3.02098 1.00596 3.05623 1.22576 3.08261 1.44554C3.09148 1.52162 3.10027 1.58925 3.15311 1.64843C3.26759 1.79213 3.44377 1.77523 3.523 1.62307C3.55825 1.54699 3.56705 1.47091 3.54946 1.38637C3.49662 1.13277 3.47016 0.879157 3.41732 0.634007C3.38207 0.481843 3.33809 0.338135 3.29404 0.202883C3.26759 0.118349 3.20595 0.0591686 3.10027 0.0507193C2.99459 0.0338135 2.91529 0.0845306 2.87125 0.160615C2.81841 0.228239 2.77436 0.295868 2.73911 0.371953C2.67747 0.507205 2.62463 0.642464 2.5542 0.769267C2.54534 0.803077 2.53654 0.82844 2.51895 0.853795C2.51015 0.836889 2.50136 0.82844 2.50136 0.82844C2.38681 0.617102 2.28113 0.405765 2.16665 0.202883C2.14899 0.185971 2.14021 0.169065 2.1314 0.152159C2.07856 0.0760808 2.01692 0.0338135 1.92003 0.0338135C1.83194 0.042263 1.76144 0.0929866 1.71746 0.169065C1.6998 0.202883 1.69981 0.228239 1.69101 0.262056C1.65576 0.532568 1.61171 0.803077 1.57653 1.07359C1.55887 1.22576 1.55008 1.37792 1.55008 1.53008C1.54128 1.56389 1.55008 1.60616 1.56767 1.63998C1.58533 1.7076 1.63817 1.74987 1.7086 1.75832C1.79669 1.76678 1.85833 1.74142 1.88478 1.67379C1.91117 1.62307 1.92003 1.5808 1.92883 1.53854C1.96408 1.38637 1.99047 1.24266 2.01692 1.09895C2.03451 1.01442 2.04331 0.946785 2.06976 0.853795C2.08735 0.887612 2.10495 0.912974 2.1226 0.938329C2.20183 1.03978 2.28113 1.14122 2.37803 1.22576C2.4749 1.29338 2.5542 1.28493 2.63342 1.20885C2.65108 1.19194 2.65988 1.18349 2.67747 1.16658C2.75677 1.04823 2.85366 0.929881 2.93289 0.811527C2.95054 0.794621 2.95934 0.777716 2.97693 0.76081L2.97693 0.76081Z" fill="#3A3B7B" fill-rule="evenodd" transform="translate(43.442 3.193)" />
    <path d="M0.0592499 0.456753C-0.00198555 0.617407 -0.0136662 0.73315 0.0146008 0.829351C0.0458221 0.960167 0.126862 1.00299 0.236841 0.969724C1.08973 0.767306 2.78132 1.20543 3.81967 1.47437C4.04083 1.53165 4.23235 1.58125 4.37983 1.61536C4.5779 1.65614 4.73904 1.41073 4.60388 1.1907C4.40662 0.977613 2.13907 0.0653193 1.27386 0.0155776C1.24901 0.0142295 1.22272 0.0125322 1.19524 0.0107574C0.847675 -0.0116863 0.308701 -0.0464907 0.0592499 0.456753L0.0592499 0.456753Z" fill="#3A3B7B" fill-rule="evenodd" transform="translate(26.065 3.274)" />
    <path d="M2.13904 0.0537971C2.24928 0.114875 2.31092 0.173139 2.34134 0.238237C2.38666 0.323629 2.36276 0.38271 2.28662 0.412857C1.60277 0.733188 0.69278 2.11228 0.325439 2.58791C0.236408 2.69733 0.0310211 2.63374 0 2.45381C0.00637817 2.25036 0.81303 0.753745 1.26322 0.346117C1.27618 0.334464 1.28975 0.32199 1.30394 0.308948C1.48356 0.143872 1.76219 -0.112191 2.13904 0.0537971L2.13904 0.0537971Z" fill="#3A3B7B" fill-rule="evenodd" transform="translate(32.851 0.724)" />
    <path d="M0.210964 0.0987292C0.343437 0.00291245 0.481079 -0.0306646 0.551376 0.0316042C1.58316 0.878502 2.13031 2.21964 2.46911 3.44742C2.48187 3.47603 2.48267 3.51707 2.47247 3.5599C2.46824 3.59649 2.44038 3.63516 2.39613 3.66507C2.34886 3.6981 2.30817 3.70816 2.28904 3.6797C2.19691 3.55943 2.01633 3.36831 1.79527 3.13435C0.931328 2.21999 -0.550993 0.651154 0.210964 0.0987292L0.210964 0.0987292Z" fill="#3A3B7B" fill-rule="evenodd" transform="translate(29.334 0)" />
    <path d="M7.69524 6.16364C7.94253 5.98694 8.21137 5.83983 8.49586 5.72567C8.7935 5.64401 9.11075 5.65752 9.39966 5.76429C9.68851 5.87107 9.93338 6.06517 10.0971 6.31734C10.2435 6.56885 10.3008 6.85924 10.2604 7.14476C10.2199 7.43021 10.084 7.69536 9.87289 7.90028C9.70926 8.06637 9.52348 8.21104 9.3205 8.3306C8.41582 8.89155 7.50308 9.42172 6.59039 9.98267C6.40363 10.1231 6.20551 10.249 5.99793 10.3592C5.68217 10.5103 5.32132 10.5508 4.97776 10.4736C4.6342 10.3965 4.32955 10.2065 4.11648 9.9366C3.95719 9.74547 3.82277 9.53647 3.71616 9.31416C2.8515 7.56987 1.95481 5.83324 1.12217 4.05817C0.737866 3.2898 0.425627 2.40609 0.121393 1.55316C-0.010233 1.30535 -0.0359366 1.01805 0.0497553 0.752304C0.135447 0.486558 0.325774 0.26339 0.580249 0.130254C0.834727 -0.00288296 1.13327 -0.0354414 1.4124 0.0394306C1.69152 0.114304 1.92921 0.290742 2.0749 0.531178C2.52271 1.10235 2.91911 1.70904 3.25981 2.34467C4.12448 3.88147 4.94912 5.41827 5.78176 6.909C5.83024 6.99139 5.8837 7.07088 5.94188 7.1472C6.56859 6.89431 7.15803 6.56364 7.69524 6.16364L7.69524 6.16364Z" fill="#3A3B7B" fill-rule="evenodd" transform="translate(0 8.618)" />
    <path d="M7.80027 9.607C5.82278 11.8277 2.50821 11.2667 0.84293 8.40825C-0.342008 6.37963 -0.550151 3.02934 2.02787 0.916208C2.57837 0.473807 3.23664 0.172437 3.9413 0.0402102C4.8053 -0.07867 5.68635 0.0676217 6.45849 0.458186C7.23063 0.84875 7.85439 1.46358 8.24066 2.21483C9.64972 4.67377 9.44957 7.80887 7.80027 9.607L7.80027 9.607ZM6.99966 4.42788C6.78957 3.82363 6.36811 3.30776 5.80673 2.96787C5.48908 2.75056 5.10308 2.64491 4.71378 2.6687C4.32442 2.6925 3.95554 2.84429 3.66911 3.0985C2.52425 4.07441 2.28402 6.38736 3.11666 7.76282C3.22281 7.98711 3.37865 8.18642 3.57343 8.34684C3.76821 8.50726 3.99717 8.62491 4.24425 8.69148C4.49134 8.75811 4.75058 8.77208 5.00391 8.73247C5.25724 8.6928 5.49841 8.60052 5.71072 8.46205C6.33132 8.00022 6.78662 7.36433 7.01329 6.64276C7.24003 5.92112 7.22687 5.14966 6.97569 4.4356L6.99966 4.42788L6.99966 4.42788Z" fill="#3A3B7B" fill-rule="evenodd" transform="translate(8.835 4.639)" />
    <path d="M5.92087 6.62952C5.71843 6.67131 5.50928 6.67381 5.30577 6.63684C5.10233 6.59986 4.90856 6.52427 4.736 6.4144C4.58499 6.33148 4.45501 6.21753 4.35537 6.08063C4.25579 5.94374 4.18905 5.7874 4.15998 5.62276C4.13084 5.45819 4.14017 5.28946 4.18711 5.12871C4.23411 4.96796 4.3177 4.8192 4.43178 4.69311C4.63052 4.43976 4.91265 4.25838 5.23239 4.1783C6.06717 3.94577 6.92653 3.804 7.79436 3.75569C7.98504 3.7344 8.17821 3.74989 8.36252 3.80123C8.54689 3.85264 8.71865 3.93878 8.86784 4.05478C9.01696 4.17072 9.1405 4.31414 9.23115 4.47654C9.32172 4.63894 9.37765 4.81709 9.39558 5.00051C9.64575 5.90149 9.67315 6.84617 9.47561 7.75914C8.7551 10.7098 6.27317 11.7241 3.48701 10.779C2.70493 10.5263 2.0192 10.0554 1.51751 9.42657C0.848362 8.66928 0.373928 7.77179 0.132416 6.80629C-0.0632381 5.94651 -0.0418205 5.05436 0.194992 4.2042C0.431738 3.35404 0.876963 2.57055 1.49347 1.91917C2.07855 1.21119 2.83794 0.654014 3.70321 0.297809C4.24995 0.00856662 4.88976 -0.0736747 5.49659 0.0672851C5.63424 0.103851 5.75919 0.175099 5.85849 0.27364C5.9578 0.372187 6.02783 0.494429 6.06133 0.627703C6.09484 0.760972 6.09054 0.900415 6.04898 1.03157C6.00735 1.16273 5.93 1.28082 5.82485 1.37359C5.6249 1.54729 5.4077 1.70172 5.17632 1.83464C4.46454 2.26968 3.84515 2.83027 3.35091 3.48671C3.02694 3.9115 2.80383 4.39929 2.69734 4.91569C2.59078 5.43209 2.60348 5.96463 2.73447 6.47589C2.91603 7.17294 3.31895 7.79862 3.88731 8.26624C5.64867 9.80311 7.93845 8.32003 7.53814 6.22227C6.95373 6.36061 6.44129 6.5066 5.92087 6.62952L5.92087 6.62952Z" fill="#3A3B7B" fill-rule="evenodd" transform="translate(18.785 3.405)" />
    <path d="M6.33088 10.2815C3.72889 11.8184 0.766615 10.2815 0.118082 7.05418C-0.354269 4.74895 0.542425 1.52159 3.68088 0.292129C4.34862 0.0361714 5.07289 -0.0536957 5.78648 0.0308657C6.64383 0.181501 7.43034 0.586598 8.03503 1.18905C8.63972 1.7915 9.03224 2.5609 9.15705 3.38885C9.68547 6.13205 8.48455 9.05973 6.33088 10.2815L6.33088 10.2815ZM7.23569 5.11003C7.23488 4.4717 6.99961 3.854 6.57118 3.36575C6.34215 3.06375 6.01107 2.84737 5.6344 2.75345C5.25766 2.6596 4.85876 2.694 4.50553 2.85093C3.09647 3.43489 2.10369 5.55571 2.46398 7.11565C2.49151 7.36043 2.57436 7.59652 2.70683 7.80736C2.83931 8.01821 3.01818 8.19873 3.23095 8.33635C3.44366 8.4739 3.68517 8.56525 3.9385 8.60394C4.1919 8.64256 4.451 8.62767 4.69769 8.56024C5.4425 8.31051 6.08741 7.84381 6.54237 7.22525C6.9974 6.6067 7.23978 5.8672 7.23569 5.11003L7.23569 5.11003Z" fill="#3A3B7B" fill-rule="evenodd" transform="translate(29.135 4.087)" />
    <path d="M1.52303 0.55943C1.6753 0.336228 1.89869 0.166255 2.15987 0.0748591C2.42099 -0.0165372 2.70594 -0.0244594 2.97216 0.052279C3.24282 0.117272 3.48191 0.269528 3.64957 0.483555C3.81717 0.697588 3.90303 0.960388 3.89289 1.22795C3.85759 1.65713 3.7907 2.08339 3.69275 2.5035C3.42854 3.9251 3.17233 5.34662 2.89214 6.75286C2.76402 7.31381 2.59591 7.8517 2.41172 8.42029C2.34768 8.59805 2.24065 8.75867 2.09951 8.88904C2.01175 8.98711 1.8997 9.06232 1.77361 9.10773C1.6475 9.1532 1.51154 9.16737 1.37827 9.14899C1.24498 9.1306 1.11863 9.08024 1.01099 9.0026C0.903362 8.9249 0.81789 8.82241 0.762497 8.70463C0.66729 8.49332 0.615589 8.26627 0.610352 8.03611C0.610352 7.08326 0.610352 6.12277 0.674408 5.16221C0.783245 3.79143 0.997295 2.4302 1.31488 1.08964C1.35228 0.910033 1.42271 0.73828 1.52303 0.582485L1.52303 0.55943L1.52303 0.55943ZM2.21956 10.9254C2.18028 11.2066 2.02626 11.4613 1.79126 11.6336C1.55626 11.8057 1.25962 11.8813 0.966606 11.8436C0.673595 11.8059 0.40818 11.658 0.228775 11.4325C0.0493011 11.207 -0.0293884 10.9223 0.0098877 10.641C0.0491676 10.3598 0.203259 10.1051 0.43819 9.9328C0.673191 9.76058 0.96983 9.68505 1.26284 9.72275C1.55585 9.76045 1.82127 9.90829 2.00074 10.1339C2.18015 10.3594 2.25891 10.6441 2.21956 10.9254L2.21956 10.9254Z" fill="#3A3B7B" fill-rule="evenodd" transform="translate(38.704 4.089)" />
    <path d="M0.0965686 0.623514C0.002038 0.826054 -0.0238857 1.05186 0.0223088 1.26916C0.05304 1.5556 0.120539 1.83736 0.223267 2.10799C0.351524 2.43938 0.495041 2.76708 0.672003 3.17097C0.712698 3.2639 0.755226 3.36092 0.799729 3.46301C1.03837 4.01019 1.3378 4.70948 1.7372 5.72152C1.85025 6.00901 1.95063 6.29888 2.05172 6.59073C2.09256 6.70864 2.13354 6.82694 2.17549 6.94551C2.32587 7.36707 2.58461 7.74578 2.92757 8.04593C3.07321 8.2109 3.26638 8.33112 3.48298 8.39123C3.70381 8.45253 3.93868 8.44864 4.15716 8.38009C4.37564 8.31148 4.56754 8.18138 4.70793 8.00665C4.84558 7.83535 4.92742 7.62893 4.94334 7.41327C5.03264 6.99317 5.00215 6.55757 4.85498 6.15256C4.62139 5.48009 4.3553 4.80663 4.04846 4.14794L4.04705 4.14504C3.54227 3.11448 3.02916 2.09105 2.49178 1.06721L2.48775 1.06003C2.33044 0.793297 2.12599 0.554838 1.88361 0.355396C1.72625 0.177378 1.5092 0.057291 1.2695 0.0158997C1.02469 -0.0263481 0.772207 0.0162296 0.557121 0.136118C0.353652 0.247637 0.192361 0.418274 0.0965686 0.623514L0.0965686 0.623514Z" fill="#3A3B7B" fill-rule="evenodd" transform="translate(4.216 20.565)" />
    <path d="M4.6542 0.172318C3.86272 -0.0244217 3.03612 -0.053091 2.23202 0.0883503C1.6092 0.147205 0.996659 0.285088 0.571309 0.558214C0.354974 0.697218 0.180068 0.875698 0.082778 1.10256C-0.0150495 1.33067 -0.0275378 1.59154 0.0526309 1.8822C0.199002 2.41461 0.389083 2.93226 0.578493 3.44826L0.609177 3.53184L0.609916 3.53368C1.18023 5.03272 1.75598 6.52668 2.33696 8.0155C2.40471 8.25014 2.50052 8.47647 2.62246 8.68995L2.62474 8.6939C2.78581 8.95912 2.99241 9.19633 3.23581 9.39557C3.35754 9.50511 3.50807 9.5809 3.67129 9.61478C3.83613 9.64892 4.00755 9.63904 4.16688 9.58605C4.32627 9.53312 4.46741 9.4392 4.57497 9.3145C4.68079 9.19184 4.75008 9.04408 4.77553 8.88682C4.88054 8.45959 4.8469 8.01174 4.67904 7.60337C4.62667 7.46595 4.58558 7.3255 4.54227 7.17766C4.52784 7.12836 4.5132 7.07821 4.49776 7.02713C5.82766 6.5282 7.24269 5.85731 7.74029 4.29658C7.93514 3.75724 7.95138 3.17322 7.78675 2.6246C7.62198 2.07538 7.28392 1.58857 6.81915 1.23121C6.1866 0.730963 5.44769 0.369516 4.6542 0.172318L4.6542 0.172318ZM2.46033 2.08661C2.48651 2.07936 2.5129 2.07263 2.53935 2.06637C3.40516 1.93574 4.29098 2.10981 5.03371 2.55641C5.36103 2.7749 5.49512 3.01764 5.51815 3.25122C5.54191 3.49172 5.4508 3.75233 5.26777 4.00285C4.92192 4.47608 4.29078 4.85485 3.72067 4.92544C3.30505 4.0068 2.88299 3.05099 2.46033 2.08661L2.46033 2.08661Z" fill="#3A3B7B" fill-rule="evenodd" transform="translate(7.368 18.479)" />
    <path d="M1.69827 0.374411C2.64082 -0.0433865 3.80837 -0.115557 4.72198 0.178202C4.95208 0.242527 5.1517 0.381662 5.28672 0.57181C5.42087 0.760771 5.48278 0.988487 5.4621 1.21614C5.46076 1.36391 5.42295 1.5093 5.35185 1.64046C5.27947 1.77399 5.17466 1.88881 5.04628 1.97528C4.9179 2.06169 4.76972 2.11725 4.61428 2.13708C4.45878 2.15699 4.30066 2.14064 4.15315 2.08943L4.14194 2.08554L4.13139 2.0802C4.05592 2.04231 3.97576 2.01377 3.89284 1.99518L3.8876 1.99406C3.24491 1.83021 2.63867 2.10169 2.41724 2.43526C2.31162 2.5943 2.29853 2.75485 2.38649 2.90091C2.48069 3.05731 2.71173 3.23282 3.17924 3.35792C3.30782 3.3918 3.43962 3.42449 3.5733 3.4577C3.94299 3.54958 4.32718 3.64502 4.69868 3.7773L4.70009 3.77783C6.41398 4.4037 7.05218 5.69993 6.83369 6.91912C6.61756 8.12479 5.56845 9.22205 3.9908 9.48087C3.41673 9.603 2.81929 9.57921 2.25764 9.41187C1.69458 9.244 1.18705 8.93772 0.785463 8.52328L0.774988 8.51247C0.648224 8.35633 0.562954 8.17291 0.52515 7.97828C0.490372 7.80263 0.508701 7.62111 0.577858 7.45509C0.646612 7.29005 0.762903 7.14723 0.912968 7.04316C1.07149 6.92518 1.26258 6.85439 1.4626 6.83963C1.66195 6.82493 1.86143 6.86652 2.03647 6.95919C2.21131 7.04026 2.37393 7.14367 2.5199 7.26666L2.52265 7.2689C2.78088 7.49556 3.0933 7.55461 3.39289 7.49991C3.69685 7.44441 3.98267 7.2718 4.16651 7.04276C4.34914 6.81518 4.42246 6.54482 4.33544 6.28237C4.24789 6.01801 3.98462 5.72181 3.40618 5.47419C3.25498 5.41257 3.0982 5.36287 2.93511 5.3145C2.89113 5.30145 2.84641 5.28846 2.80116 5.27528C2.68057 5.24015 2.55649 5.20397 2.43483 5.16409C2.35103 5.13667 2.26791 5.1107 2.18559 5.08493C1.9606 5.01461 1.74124 4.94606 1.53015 4.85412C1.07069 4.70398 0.673738 4.41569 0.398385 4.03191C0.121891 3.6466 -0.0172291 3.18583 0.00170517 2.7184C0.00318241 1.5793 0.750685 0.794516 1.69827 0.374411L1.69827 0.374411Z" fill="#3A3B7B" fill-rule="evenodd" transform="translate(15.601 16.595)" />
    <path d="M6.43931 0.119354C6.25654 0.0336742 6.05444 -0.00699234 5.85127 0.000982285C5.64803 0.00902367 5.45009 0.0654411 5.27532 0.165295C5.10162 0.264421 4.95619 0.403227 4.85198 0.569384C4.75644 0.709309 4.6903 0.865774 4.65733 1.03009C4.62437 1.19427 4.62517 1.36299 4.65962 1.52678C4.69366 1.73729 4.73139 1.942 4.76866 2.14388C4.83036 2.47798 4.89039 2.80456 4.93 3.13753L4.93148 3.14597C5.02165 3.66816 5.06885 4.19629 5.07308 4.72554L5.07348 4.73306C5.1043 5.30462 4.9014 5.86505 4.50828 6.29543L4.50203 6.30308C4.37413 6.4604 4.20311 6.58049 4.00806 6.64989C3.81308 6.71929 3.60185 6.73524 3.39793 6.69596C3.19402 6.65668 3.00555 6.56375 2.85354 6.42751C2.70153 6.29128 2.59188 6.11662 2.53716 5.9241C2.42033 5.5183 2.35272 5.1009 2.33553 4.68026L2.53508 1.63111C2.53804 1.5913 2.54139 1.55044 2.54482 1.50918C2.55241 1.41658 2.56019 1.32226 2.56342 1.23427C2.56812 1.10483 2.56409 0.971691 2.53267 0.845673C2.5005 0.716887 2.43934 0.594362 2.33083 0.490028C2.22341 0.386749 2.07838 0.310556 1.89588 0.258686C1.56588 0.167007 1.28683 0.169907 1.05431 0.26462C0.821663 0.359329 0.662266 0.535175 0.549465 0.738308C0.437538 0.939726 0.365629 1.17819 0.311245 1.41704C0.270891 1.59427 0.238461 1.78033 0.207644 1.95743C0.196966 2.01846 0.18656 2.07837 0.176018 2.13657L0.175751 2.13828C0.0108471 3.10952 -0.0382347 4.09565 0.0294456 5.07756C0.0420685 5.6082 0.157352 6.13198 0.369524 6.62214C0.608889 7.25461 1.04243 7.80257 1.61294 8.19374C2.18466 8.58571 2.8669 8.80169 3.56935 8.81309C4.2718 8.8245 4.96129 8.63079 5.54651 8.25768C6.13078 7.88509 6.58359 7.3511 6.84505 6.72635C7.21078 5.93049 7.38253 5.06498 7.34708 4.19577C7.32559 3.56119 7.2896 2.92174 7.25382 2.28552C7.23623 1.97344 7.2187 1.66202 7.20299 1.35251C7.19506 1.04215 7.08844 0.741537 6.89735 0.491016C6.77911 0.332638 6.62173 0.204905 6.43931 0.119354L6.43931 0.119354Z" fill="#3A3B7B" fill-rule="evenodd" transform="translate(22.809 16.729)" />
    <path d="M5.90889 4.59003C5.89036 4.61263 5.87083 4.63603 5.85041 4.66035C5.70176 3.83728 5.56398 3.01447 5.426 2.19041C5.37652 1.89474 5.32677 1.59782 5.27675 1.30176L5.27111 1.26874L5.25284 1.2402C5.2184 1.18648 5.21498 1.13382 5.21498 1.02151L5.21498 1.00853L5.21289 0.995674C5.17556 0.763741 5.06625 0.54789 4.89927 0.376394C4.73276 0.20536 4.51649 0.0863285 4.2786 0.0346546C4.04112 -0.0215645 3.79155 -0.00917435 3.56131 0.0703125C3.33168 0.149601 3.13153 0.292095 2.98583 0.479937C2.86471 0.624081 2.7654 0.783976 2.69101 0.954811C2.52214 1.32285 2.3518 1.69181 2.18099 2.06176L2.17804 2.06815C1.75161 2.99173 1.3223 3.92151 0.905478 4.85861L0.9042 4.86164C0.648319 5.46926 0.437088 6.1095 0.226597 6.74776C0.184565 6.87516 0.142532 7.0025 0.100166 7.12951C0.0241604 7.33092 -0.00907516 7.54486 0.00234032 7.75874C-0.0114918 7.95021 0.0362453 8.14121 0.139242 8.30592C0.244255 8.47398 0.401569 8.6062 0.588966 8.68404C0.787575 8.76761 1.00962 8.78534 1.21997 8.73446C1.42986 8.68364 1.61625 8.56738 1.7498 8.40392C1.92034 8.20257 2.06705 7.98296 2.1867 7.7503C2.5398 7.05707 2.87726 6.3554 3.21318 5.65677C3.34316 5.38654 3.46946 5.14452 3.61315 4.88095C3.62302 4.91344 3.63309 4.94515 3.6435 4.97691C3.7941 5.61327 4.0483 6.22279 4.39671 6.78315C4.46264 6.90185 4.55449 7.0056 4.66595 7.08726C4.77875 7.16991 4.90894 7.22791 5.04745 7.25737C5.18597 7.28683 5.32952 7.28696 5.4681 7.25776C5.60648 7.22863 5.73708 7.17057 5.84994 7.08831L6.07333 6.92782L7.80716 5.52613L7.70463 6.15326C7.5639 7.01528 7.42424 7.87013 7.27586 8.72517C7.17877 9.10414 7.1789 9.49999 7.27626 9.87884C7.31843 10.0921 7.42585 10.2883 7.58485 10.4427C7.74518 10.5983 7.95051 10.704 8.17423 10.7462C8.39795 10.7883 8.62972 10.765 8.83941 10.6791C9.04608 10.5945 9.22186 10.4531 9.34473 10.2728C9.63062 9.93242 9.80855 9.52029 9.85743 9.08549C9.93102 8.47148 10.0141 7.8491 10.0973 7.22692C10.1931 6.50976 10.289 5.7928 10.3699 5.08962L10.3701 5.08744C10.448 4.31769 10.4857 3.54478 10.4831 2.7714C10.5001 2.52701 10.4367 2.28354 10.3016 2.07546C10.1661 1.86666 9.96533 1.70433 9.72805 1.61146C9.48123 1.50377 9.20494 1.47497 8.93979 1.52941C8.67639 1.58345 8.43797 1.71672 8.2591 1.90977C7.9393 2.19364 7.6393 2.49741 7.36099 2.81912L7.35911 2.82129C7.05529 3.18465 6.75355 3.55512 6.45376 3.92323C6.27147 4.14699 6.08971 4.37022 5.90889 4.59003L5.90889 4.59003Z" fill="#3A3B7B" fill-rule="evenodd" transform="translate(29.808 17.04)" />
  </g>
</svg>