<?xml version="1.0" encoding="utf-8"?>
<svg width="441.533" height="328.995" viewBox="0 0 441.533 328.995" fill="none" xmlns="http://www.w3.org/2000/svg">
  <g>
    <g>
      <path d="M441.533 0L0 0L0 1L441.533 1L441.533 0L441.533 0Z" fill="#E6E6E6" fill-rule="evenodd" transform="translate(0 289.116)" />
      <path d="M29.2471 0L0 0L0 1L29.2471 1L29.2471 0L29.2471 0Z" fill="#E6E6E6" fill-rule="evenodd" transform="translate(80.977 302.477)" />
      <path d="M16.946 0L0 0L0 1L16.946 1L16.946 0L16.946 0Z" fill="#E6E6E6" fill-rule="evenodd" transform="translate(54.777 302.477)" />
      <path d="M16.946 0L0 0L0 1L16.946 1L16.946 0L16.946 0Z" fill="#E6E6E6" fill-rule="evenodd" transform="translate(168.984 305.726)" />
      <path d="M38.1396 0L0 0L0 1L38.1396 1L38.1396 0L38.1396 0Z" fill="#E6E6E6" fill-rule="evenodd" transform="translate(236.149 310.654)" />
      <path d="M5.58978 0L0 0L0 1L5.58978 1L5.58978 0L5.58978 0Z" fill="#E6E6E6" fill-rule="evenodd" transform="translate(222.7 310.654)" />
      <path d="M82.7256 0L0 0L0 1L82.7256 1L82.7256 0L82.7256 0Z" fill="#E6E6E6" fill-rule="evenodd" transform="translate(317.612 305.726)" />
      <path d="M175.545 249.731L5.03348 249.731C3.6977 249.729 2.41744 249.196 1.47373 248.251C0.530029 247.306 -3.8147e-06 246.024 0 244.689L0 4.99815C0.0116272 3.67004 0.546787 2.40015 1.48924 1.46432C2.43169 0.528478 3.70532 0.00227512 5.03348 0L175.545 0C176.882 0 178.164 0.531242 179.11 1.47686C180.056 2.42247 180.587 3.705 180.587 5.0423L180.587 244.689C180.587 246.026 180.056 247.309 179.11 248.254C178.164 249.2 176.882 249.731 175.545 249.731L175.545 249.731ZM5.03348 0.176614C3.75625 0.178953 2.53215 0.687966 1.62984 1.59193C0.727535 2.49589 0.220764 3.72093 0.220764 4.99815L0.220764 244.689C0.220764 245.966 0.727535 247.191 1.62984 248.095C2.53215 248.999 3.75625 249.508 5.03348 249.51L175.545 249.51C176.823 249.508 178.048 248.999 178.951 248.095C179.855 247.192 180.364 245.967 180.366 244.689L180.366 4.99815C180.364 3.72012 179.855 2.4951 178.951 1.59139C178.048 0.687679 176.823 0.178948 175.545 0.176614L5.03348 0.176614L5.03348 0.176614Z" fill="#E6E6E6" fill-rule="evenodd" transform="translate(33.742 0)" />
      <path d="M175.562 249.731L5.0423 249.731C3.7057 249.729 2.42456 249.197 1.47945 248.252C0.534332 247.306 0.00233459 246.025 0 244.689L0 4.99815C0.0139313 3.66924 0.551056 2.39936 1.49492 1.46376C2.43878 0.528169 3.7133 0.00225031 5.0423 0L175.562 0C176.889 0.00459591 178.16 0.531826 179.101 1.46741C180.041 2.403 180.575 3.67157 180.587 4.99815L180.587 244.689C180.587 246.023 180.058 247.303 179.116 248.248C178.175 249.193 176.897 249.726 175.562 249.731L175.562 249.731ZM5.0423 0.176614C3.76427 0.178948 2.53925 0.687679 1.63554 1.59139C0.731827 2.4951 0.223099 3.72012 0.220764 4.99815L0.220764 244.689C0.223099 245.967 0.731827 247.192 1.63554 248.095C2.53925 248.999 3.76427 249.508 5.0423 249.51L175.562 249.51C176.84 249.508 178.065 248.999 178.969 248.095C179.873 247.192 180.382 245.967 180.384 244.689L180.384 4.99815C180.382 3.72012 179.873 2.4951 178.969 1.59139C178.065 0.687679 176.84 0.178948 175.562 0.176614L5.0423 0.176614L5.0423 0.176614Z" fill="#E6E6E6" fill-rule="evenodd" transform="translate(224.74 0)" />
      <path d="M19.4186 0L0 0L0 77.0298L19.4186 77.0298L19.4186 0L19.4186 0Z" fill="#E0E0E0" fill-rule="evenodd" transform="translate(216.713 213.684)" />
      <path d="M3.86783 10.4908L7.55904 10.4908L7.55904 0L0 0L3.86783 10.4908L3.86783 10.4908Z" fill="#FAFAFA" fill-rule="evenodd" transform="translate(228.573 280.223)" />
      <path d="M19.4186 0L0 0L0 77.0298L19.4186 77.0298L19.4186 0L19.4186 0Z" fill="#E0E0E0" fill-rule="evenodd" transform="translate(131.621 213.684)" />
      <path d="M88.3066 0L0 0L0 70.5923L88.3066 70.5923L88.3066 0L88.3066 0Z" fill="#FAFAFA" fill-rule="evenodd" transform="translate(147.825 213.684)" />
      <path d="M82.5843 0L0 0L0 19.3568L82.5843 19.3568L82.5843 0L82.5843 0ZM82.2399 0.344406L82.2399 19.0212L0.317902 19.0212L0.317902 0.344406L82.2399 0.344406L82.2399 0.344406Z" fill="#E0E0E0" fill-rule="evenodd" transform="translate(150.686 216.81)" />
      <path d="M3.6824 10.4908L0 10.4908L0 0L7.55022 0L3.6824 10.4908L3.6824 10.4908Z" fill="#FAFAFA" fill-rule="evenodd" transform="translate(147.825 280.223)" />
      <path d="M0 1.95158C0 2.33759 0.114456 2.7149 0.328903 3.03583C0.543335 3.35677 0.848145 3.60687 1.20474 3.75459C1.56136 3.9023 1.95374 3.94095 2.33231 3.86565C2.71088 3.79034 3.05861 3.60448 3.33154 3.33154C3.60448 3.05861 3.79034 2.71091 3.86565 2.33234C3.94095 1.95377 3.9023 1.56136 3.75459 1.20476C3.60687 0.848145 3.35674 0.54335 3.03581 0.328918C2.71487 0.114471 2.33755 0 1.95157 0C1.43398 0 0.937592 0.205627 0.571609 0.571609C0.205612 0.937607 0 1.43401 0 1.95158L0 1.95158Z" fill="#E6E6E6" fill-rule="evenodd" transform="translate(190.027 224.537)" />
      <path d="M82.5578 0L0 0L0 19.3568L82.5843 19.3568L82.5843 0.00883484L82.5578 0L82.5578 0ZM82.2399 0.335571L82.2399 19.0124L0.317902 19.0124L0.317902 0.335571L82.2399 0.335571L82.2399 0.335571Z" fill="#E0E0E0" fill-rule="evenodd" transform="translate(150.686 239.302)" />
      <path d="M0 1.95157C0 2.33755 0.114456 2.71487 0.328903 3.03581C0.543335 3.35674 0.848145 3.60687 1.20474 3.75459C1.56136 3.9023 1.95374 3.94095 2.33231 3.86565C2.71088 3.79034 3.05861 3.60448 3.33154 3.33154C3.60448 3.05861 3.79034 2.71088 3.86565 2.33231C3.94095 1.95374 3.9023 1.56133 3.75459 1.20473C3.60687 0.848129 3.35674 0.543335 3.03581 0.328888C2.71487 0.114441 2.33755 0 1.95157 0C1.43398 0 0.937592 0.205597 0.571609 0.571594C0.205612 0.937576 0 1.43398 0 1.95157L0 1.95157Z" fill="#E6E6E6" fill-rule="evenodd" transform="translate(190.027 247.073)" />
      <path d="M82.5843 0L0 0L0 19.3656L82.5843 19.3656L82.5843 0L82.5843 0ZM82.2399 0.344391L82.2399 19.0301L0.317902 19.0301L0.317902 0.344391L82.2399 0.344391L82.2399 0.344391Z" fill="#E0E0E0" fill-rule="evenodd" transform="translate(150.686 261.785)" />
      <path d="M1.52588e-05 1.96042C0.00177002 2.34601 0.117706 2.72244 0.333206 3.04221C0.548706 3.362 0.854095 3.61075 1.21085 3.75711C1.56761 3.90347 1.95973 3.94083 2.33771 3.86453C2.7157 3.78824 3.06261 3.60172 3.33466 3.32843C3.6067 3.05515 3.7917 2.7074 3.86629 2.32907C3.94089 1.95074 3.90172 1.55881 3.75375 1.2027C3.60577 0.846619 3.35565 0.542358 3.03491 0.328308C2.71417 0.114227 2.3372 0 1.95158 0C1.69456 0 1.44006 0.0507507 1.20271 0.149384C0.965363 0.248016 0.749817 0.392548 0.568481 0.574707C0.387146 0.756866 0.243591 0.973053 0.146027 1.21085C0.0484772 1.44864 -0.00114441 1.70337 1.52588e-05 1.96042L1.52588e-05 1.96042Z" fill="#E6E6E6" fill-rule="evenodd" transform="translate(190.027 269.512)" />
      <path d="M19.4186 0L0 0L0 121.775L19.4186 121.775L19.4186 0L19.4186 0Z" fill="#E0E0E0" fill-rule="evenodd" transform="translate(119.761 168.948)" />
      <path d="M3.85899 10.4908L7.55022 10.4908L7.55022 0L0 0L3.85899 10.4908L3.85899 10.4908Z" fill="#FAFAFA" fill-rule="evenodd" transform="translate(131.63 280.223)" />
      <path d="M19.4186 0L0 0L0 121.775L19.4186 121.775L19.4186 0L19.4186 0Z" fill="#E0E0E0" fill-rule="evenodd" transform="translate(47.191 168.948)" />
      <path d="M75.7935 0L0 0L0 115.337L75.7935 115.337L75.7935 0L75.7935 0Z" fill="#FAFAFA" fill-rule="evenodd" transform="translate(63.386 168.948)" />
      <path d="M70.0889 0L0 0L0 26.8893L70.0713 26.8893L70.0713 0.00881958L70.0889 0L70.0889 0ZM69.6827 0.397369L69.6827 26.5096L0.423874 26.5096L0.423874 0.397369L69.6827 0.397369L69.6827 0.397369Z" fill="#E0E0E0" fill-rule="evenodd" transform="translate(66.23 171.8)" />
      <path d="M33.7949 0L0 0L0 70.0713L33.7949 70.0713L33.7949 0L33.7949 0ZM33.3887 0.406204L33.3887 69.665L0.397385 69.665L0.397385 0.406204L33.3887 0.406204L33.3887 0.406204Z" fill="#E0E0E0" fill-rule="evenodd" transform="translate(102.524 201.092)" />
      <path d="M33.7949 0L0 0L0 70.0713L33.7949 70.0713L33.7949 0L33.7949 0ZM33.4152 0.406204L33.4152 69.665L0.423874 69.665L0.423874 0.406204L33.4152 0.406204L33.4152 0.406204Z" fill="#E0E0E0" fill-rule="evenodd" transform="translate(66.23 201.092)" />
      <path d="M3.69122 10.4908L0 10.4908L0 0L7.55904 0L3.69122 10.4908L3.69122 10.4908Z" fill="#FAFAFA" fill-rule="evenodd" transform="translate(63.386 280.223)" />
      <path d="M2.28882e-05 1.95157C-0.00173187 2.33968 0.111755 2.71956 0.326103 3.04311C0.540451 3.36665 0.846008 3.61929 1.20407 3.76904C1.56213 3.91878 1.95658 3.95886 2.33744 3.88422C2.7183 3.80957 3.06843 3.62358 3.34348 3.34976C3.61854 3.07594 3.80613 2.72665 3.88249 2.34613C3.95885 1.96561 3.92055 1.57098 3.77243 1.21225C3.62432 0.853516 3.37306 0.546814 3.05048 0.331009C2.72791 0.115204 2.34853 0 1.96042 0C1.44201 0 0.944717 0.205338 0.577324 0.571075C0.20993 0.936813 0.00235748 1.43317 2.28882e-05 1.95157L2.28882e-05 1.95157Z" fill="#E6E6E6" fill-rule="evenodd" transform="translate(99.327 183.316)" />
      <path d="M2.28882e-05 1.96043C2.28882e-05 2.34853 0.115227 2.72791 0.331032 3.05049C0.546829 3.37306 0.853531 3.62431 1.21226 3.77243C1.57099 3.92055 1.96562 3.95885 2.34614 3.88249C2.72666 3.80612 3.07595 3.61856 3.34976 3.34351C3.62358 3.06845 3.80959 2.71831 3.88423 2.33743C3.95887 1.95657 3.91879 1.56213 3.76906 1.20409C3.61932 0.846024 3.36668 0.540451 3.04313 0.326096C2.71958 0.111755 2.3397 -0.00172424 1.95159 1.52588e-05C1.69457 1.52588e-05 1.44007 0.0507965 1.20271 0.149429C0.965363 0.248047 0.749825 0.392578 0.568489 0.574738C0.387154 0.756897 0.243584 0.973099 0.146027 1.21089C0.0484772 1.44868 -0.00114441 1.7034 2.28882e-05 1.96043L2.28882e-05 1.96043Z" fill="#E6E6E6" fill-rule="evenodd" transform="translate(106.321 232.52)" />
      <path d="M2.28882e-05 1.9604C0.00176239 2.34601 0.117706 2.72244 0.333206 3.04222C0.548706 3.36198 0.854103 3.61076 1.21086 3.75713C1.56761 3.90347 1.95973 3.94087 2.33771 3.86456C2.7157 3.78828 3.06261 3.6017 3.33466 3.32841C3.60671 3.05515 3.79171 2.7074 3.8663 2.32907C3.94088 1.95074 3.90172 1.55881 3.75376 1.20271C3.60579 0.846619 3.35565 0.542343 3.03491 0.328293C2.71417 0.114243 2.3372 0 1.95159 0C1.69457 0 1.44007 0.0507813 1.20271 0.149399C0.965363 0.248032 0.749825 0.392563 0.568489 0.574722C0.387154 0.756866 0.243584 0.973083 0.146027 1.21088C0.0484772 1.44867 -0.00114441 1.70338 2.28882e-05 1.9604L2.28882e-05 1.9604Z" fill="#E6E6E6" fill-rule="evenodd" transform="translate(92.342 232.52)" />
      <path d="M8.89024 0L0.704224 0C1.4586 3.97096 1.93368 7.98994 2.12596 12.0274C2.12596 13.0801 1.77155 14.8773 1.35214 17.0041C0.0124664 23.7975 -1.9904 33.9539 4.77515 33.9539C11.5335 33.9539 9.54208 23.8445 8.20243 17.044C7.78116 14.9055 7.42435 13.0942 7.42435 12.0274C7.63121 7.98891 8.12104 3.96992 8.89024 0L8.89024 0Z" fill="#E0E0E0" fill-rule="evenodd" transform="translate(81.244 134.994)" />
      <path d="M0 0L0 5.29839C0.00931168 8.13876 1.14177 10.8601 3.15022 12.8686C5.15867 14.877 7.88005 16.0095 10.7204 16.0188L16.0188 16.0188C18.8592 16.0095 21.5805 14.877 23.589 12.8686C25.5975 10.8601 26.7299 8.13876 26.7392 5.29839L26.7392 0L0 0L0 0Z" fill="#F5F5F5" fill-rule="evenodd" transform="translate(58.989 152.903)" />
      <path d="M0 0C0 6.18146 6.91441 11.2326 15.3654 11.2326L22.995 11.2326C31.446 11.2326 38.3604 6.18146 38.3604 0L0 0L0 0Z" fill="#E0E0E0" fill-rule="evenodd" transform="translate(172.79 202.452)" />
      <path d="M53.5309 108.473C48.9036 112.252 42.5103 119.167 36.6644 128.898C32.7612 135.38 30.4123 142.144 29.3791 151.134C29.3791 140.978 29.4409 130.072 29.4762 119.776C30.6507 117.127 33.3352 111.016 35.2603 106.194C41.6802 90.096 44.091 86.1311 49.8574 72.2493C57.5665 53.7049 65.4611 31.7519 63.2005 33.5092C58.5909 37.0856 40.9296 70.1564 39.0221 74.8896C33.8229 87.5212 30.6088 100.881 29.4939 114.495C29.4939 104.781 29.5645 95.9508 29.5998 89.0982C29.7235 66.7478 30.1032 59.5331 30.2886 57.3078C31.0039 56.1775 31.8428 54.8617 32.3373 54.1553C36.4877 48.1504 38.0861 43.0463 41.9893 34.092C47.5349 21.42 52.3035 -1.08931 50.9082 0.0410156C45.0977 4.77425 40.5234 14.9295 34.5009 27.8841C30.0984 37.3538 29.8343 43.8791 29.5451 51.0231C29.4387 53.6521 29.3289 56.3648 29.0082 59.3389C28.7609 61.5112 28.5666 69.706 28.4254 81.0534C26.8712 68.9554 23.9394 60.9902 18.5968 53.7491C12.0268 44.8389 5.66876 38.8252 1.00616 35.6815C-3.65643 32.5378 9.05972 54.4202 15.1352 63.9396C20.5484 72.4524 25.5377 79.9496 28.3812 87.3409C28.2311 102.733 28.1604 122.213 28.1604 140.325C26.7652 132.077 24.4869 123.185 21.4491 116.305C17.7932 108.04 12.1769 95.3591 7.6998 91.0586C6.63129 90.0254 12.3801 114.689 16.0713 121.242C19.7625 127.794 22.4735 133.984 24.796 137.702C25.3346 138.585 27.1361 141.914 28.1604 143.839C28.1604 165.978 28.2841 185.511 28.4783 192.161L29.4321 192.161C29.3702 190.448 29.3526 179.18 29.3791 164.274C31.6839 156.185 36.9469 146.948 41.2916 138.523C46.0249 129.401 58.1582 104.72 53.5309 108.473L53.5309 108.473Z" fill="#E0E0E0" fill-rule="evenodd" transform="translate(321.428 84.919)" />
      <path d="M29.7681 27.1278L2.09286 27.1278L0 0L31.861 0L29.7681 27.1278L29.7681 27.1278Z" fill="#F0F0F0" fill-rule="evenodd" transform="translate(334.444 263.586)" />
      <path d="M37.0093 9.15738L1.02435 9.15738L0 0L38.0425 0L37.0093 9.15738L37.0093 9.15738Z" fill="#F5F5F5" fill-rule="evenodd" transform="translate(331.353 257.59)" />
      <path d="M49.4958 0L0 0L0 54.3527L49.4958 54.3527L49.4958 0L49.4958 0Z" fill="#E0E0E0" fill-rule="evenodd" transform="translate(60.234 18.103)" />
      <path d="M51.1295 0L0 0L0 54.3527L51.1295 54.3527L51.1295 0L51.1295 0Z" fill="#F5F5F5" fill-rule="evenodd" transform="translate(63.96 18.103)" />
      <path d="M45.787 0L0 0L0 42.5638L45.787 42.5638L45.787 0L45.787 0Z" fill="#FFFFFF" fill-rule="evenodd" transform="matrix(0 1 -1 0 110.807 22.386)" />
      <path d="M23.5867 0L0 0L0 21.9265L23.5867 21.9265L23.5867 0L23.5867 0Z" fill="#F5F5F5" fill-rule="evenodd" transform="matrix(0 1 -1 0 100.484 33.477)" />
      <path d="M45.9812 0L0 0L0 50.4937L45.9812 50.4937L45.9812 0L45.9812 0Z" fill="#E0E0E0" fill-rule="evenodd" transform="translate(316.12 24.434)" />
      <path d="M47.4913 0L0 0L0 50.4937L47.4913 50.4937L47.4913 0L47.4913 0Z" fill="#F5F5F5" fill-rule="evenodd" transform="translate(319.59 24.434)" />
      <path d="M42.5285 0L0 0L0 39.5349L42.5285 39.5349L42.5285 0L42.5285 0Z" fill="#FFFFFF" fill-rule="evenodd" transform="matrix(0 1 -1 0 363.108 28.417)" />
      <path d="M12.3364 24.6729C19.1497 24.6729 24.6729 19.1497 24.6729 12.3364C24.6729 5.52321 19.1497 0 12.3364 0C5.52322 0 0 5.52321 0 12.3364C0 19.1497 5.52322 24.6729 12.3364 24.6729L12.3364 24.6729Z" fill="#F5F5F5" fill-rule="evenodd" transform="translate(331 37.345)" />
      <path d="M36.7179 0L0 0L0 40.3208L36.7179 40.3208L36.7179 0L36.7179 0Z" fill="#E0E0E0" fill-rule="evenodd" transform="translate(124.433 50.511)" />
      <path d="M37.9277 0L0 0L0 40.3208L37.9277 40.3208L37.9277 0L37.9277 0Z" fill="#F5F5F5" fill-rule="evenodd" transform="translate(127.197 50.511)" />
      <path d="M33.9627 0L0 0L0 31.5696L33.9627 31.5696L33.9627 0L33.9627 0Z" fill="#FFFFFF" fill-rule="evenodd" transform="matrix(0 1 -1 0 161.945 53.69)" />
      <path d="M8.63638 0L0 14.9591L17.2728 14.9591L8.63638 0L8.63638 0Z" fill="#F5F5F5" fill-rule="evenodd" transform="translate(137.529 62.08)" />
    </g>
    <g transform="translate(93.361 23.248)">
      <path d="M25.3756 138.124C77.0702 191.425 145.004 228.426 207.976 168.704C240.437 137.938 283.337 54.8505 241.003 16.8168C202.57 -17.7011 174.92 7.72162 148.062 32.4159C134.147 45.2096 120.446 57.8077 105.567 61.7737C93.3947 65.0091 82.0113 59.3176 70.3771 53.5007C53.4322 45.0285 35.9553 36.2905 14.7346 54.4796C-13.5588 78.7197 3.88174 115.967 25.3756 138.124L25.3756 138.124Z" fill="#4CAF4F" fill-rule="evenodd" transform="translate(-0 -0)" />
      <path d="M25.3756 138.124C77.0702 191.425 145.004 228.426 207.976 168.704C240.437 137.938 283.337 54.8505 241.003 16.8168C202.57 -17.7011 174.92 7.72162 148.062 32.4159C134.147 45.2096 120.446 57.8077 105.567 61.7737C93.3947 65.0091 82.0113 59.3176 70.3771 53.5007C53.4322 45.0285 35.9553 36.2905 14.7346 54.4796C-13.5588 78.7197 3.88174 115.967 25.3756 138.124L25.3756 138.124Z" fill="#FFFFFF" fill-rule="evenodd" fill-opacity="0.9" transform="translate(-0 -0)" />
    </g>
    <g transform="translate(49.549 309.002)">
      <path d="M171.218 19.9926C265.778 19.9926 342.435 15.5171 342.435 9.99628C342.435 4.47548 265.778 0 171.218 0C76.6567 0 0 4.47548 0 9.99628C0 15.5171 76.6567 19.9926 171.218 19.9926L171.218 19.9926Z" fill="#F5F5F5" fill-rule="evenodd" />
    </g>
    <g transform="translate(253.59 37.564)">
      <path d="M44.8584 3.53226L36.0984 0C36.0984 0 24.5391 21.0788 21.2276 22.1473C16.7239 23.5955 7.39879 27.6223 1.8708 28.3287C1.12019 29.2118 -0.107285 31.9582 0.00751305 32.956C7.4341 35.4374 23.7532 32.1436 27.2501 29.5474C35.2065 23.6573 44.8584 3.53226 44.8584 3.53226L44.8584 3.53226Z" fill="#E58A7B" fill-rule="evenodd" transform="translate(9.962 54.655)" />
      <path d="M18.8093 4.87867C20.443 10.91 11.5947 23.0433 11.5947 23.0433L0 16.544C0 16.544 2.17233 11.5546 4.82153 6.47702C9.06908 -1.72666 16.946 -2.00041 18.8093 4.87867L18.8093 4.87867Z" fill="#4CAF4F" fill-rule="evenodd" transform="translate(38.705 48.513)" />
      <path d="M18.8093 4.87867C20.443 10.91 11.5947 23.0433 11.5947 23.0433L0 16.544C0 16.544 2.17233 11.5546 4.82153 6.47702C9.06908 -1.72666 16.946 -2.00041 18.8093 4.87867L18.8093 4.87867Z" fill="#000000" fill-rule="evenodd" fill-opacity="0.2" transform="translate(38.705 48.513)" />
      <path d="M0 11.4534L4.56546 14.0143L5.36905 0C2.71103 2.03988 0.838913 8.18602 0 11.4534L0 11.4534Z" fill="#000000" fill-rule="evenodd" fill-opacity="0.2" transform="translate(43.306 56.2)" />
      <path d="M5.41002 2.06431C5.41002 2.06431 -3.61493 22.1452 1.64815 59.5342L37.2092 59.5342C37.3353 58.317 37.3401 56.0465 37.3466 52.9677C37.3694 42.2424 37.4129 21.7083 42.6754 1.72874C38.7744 0.966358 34.8273 0.461926 30.86 0.218704C25.8278 -0.0729027 20.7829 -0.0729027 15.7507 0.218704C12.2623 0.572929 8.80559 1.18988 5.41002 2.06431L5.41002 2.06431Z" fill="#4CAF4F" fill-rule="evenodd" transform="translate(44.474 46.789)" />
      <path d="M5.41002 2.06431C5.41002 2.06431 -3.61493 22.1452 1.64815 59.5342L37.2092 59.5342C37.3353 58.317 37.3401 56.0465 37.3466 52.9677C37.3694 42.2424 37.4129 21.7083 42.6754 1.72874C38.7744 0.966358 34.8273 0.461926 30.86 0.218704C25.8278 -0.0729027 20.7829 -0.0729027 15.7507 0.218704C12.2623 0.572929 8.80559 1.18988 5.41002 2.06431L5.41002 2.06431Z" fill="#000000" fill-rule="evenodd" fill-opacity="0.2" transform="translate(44.474 46.789)" />
      <path d="M0.000156403 1.71317C-0.0528297 2.66687 13.4316 3.43512 30.1127 3.43512C46.7938 3.43512 60.3754 2.66687 60.4283 1.71317C60.4813 0.75943 47.0057 0 30.3158 0C13.6258 0 0.0619698 0.76828 0.000156403 1.71317L0.000156403 1.71317Z" fill="#E8ECF1" fill-rule="evenodd" mix-blend-mode="multiply" transform="translate(41.636 280.516)" />
      <path d="M6.76325 0L0 0L-7.62939e-06 15.05L6.76325 15.05L6.76325 0L6.76325 0Z" fill="#E58A7B" fill-rule="evenodd" transform="matrix(0.933 -0.361 0.361 0.933 59.067 259.612)" />
      <path d="M9.08673 15.3919L2.43724 15.3919L0 0L6.64948 0L9.08673 15.3919L9.08673 15.3919Z" fill="#E58A7B" fill-rule="evenodd" transform="translate(84.412 260.047)" />
      <path d="M10.7085 0L18.1792 0C18.3088 0.000396729 18.4341 0.0467834 18.5327 0.130859C18.6313 0.214966 18.697 0.331299 18.7179 0.459229L19.6804 6.36694C19.7007 6.51514 19.6888 6.66599 19.6456 6.8092C19.6024 6.95239 19.5289 7.08463 19.43 7.1969C19.3312 7.30917 19.2093 7.39883 19.0727 7.45978C18.9361 7.52075 18.788 7.55161 18.6384 7.55023C16.0333 7.50607 14.7794 7.34714 11.4944 7.34714C9.47218 7.34714 5.31292 7.55908 2.50477 7.55908C-0.303383 7.55908 -0.488815 4.80389 0.667999 4.54782C5.86043 3.42633 7.87381 1.89859 9.60462 0.415039C9.9098 0.146973 10.3023 -0.000579834 10.7085 0L10.7085 0Z" fill="#263238" fill-rule="evenodd" transform="translate(75.682 274.67)" />
      <path d="M14.1236 2.08789L21.1881 0.0215149C21.3142 -0.0140076 21.4486 -0.00534058 21.5691 0.046051C21.6896 0.0974426 21.7888 0.188507 21.8504 0.304108L24.4996 5.60251C24.5611 5.73694 24.5926 5.88315 24.5917 6.03101C24.5909 6.17883 24.5578 6.32471 24.4947 6.45844C24.4316 6.59216 24.3401 6.71045 24.2266 6.80515C24.113 6.89981 23.9802 6.96857 23.8373 7.00659C21.2676 7.71304 19.5456 8.14575 16.3312 9.08179C14.1148 9.72644 11.8541 10.7773 9.66411 11.4749C8.14524 11.9606 4.57765 11.9782 2.73204 11.9782C0.00336838 11.9782 -0.605957 9.09943 0.56852 8.96698C3.52679 8.64026 3.92416 8.79037 5.55784 7.96912C8.23093 6.80066 10.6536 5.12759 12.693 3.0416C13.0776 2.60327 13.5711 2.27429 14.1236 2.08789L14.1236 2.08789Z" fill="#263238" fill-rule="evenodd" transform="translate(50.19 270.304)" />
      <path d="M10.323 3.06424L3.01123 0L0 8.10654C2.99691 8.56304 6.04567 8.56304 9.04258 8.10654L10.323 3.06424L10.323 3.06424Z" fill="#E58A7B" fill-rule="evenodd" transform="translate(2.623 79.884)" />
      <path d="M0.194276 0L0 5.38671L2.62271 8.30083L5.63394 0.194275L0.194276 0L0.194276 0Z" fill="#E58A7B" fill-rule="evenodd" transform="translate(0 79.672)" />
      <path d="M6.78198 -3.05176e-05L0 0L0 7.77982L6.78197 7.77979L6.78198 -3.05176e-05L6.78198 -3.05176e-05Z" fill="#CF6F64" fill-rule="evenodd" transform="matrix(0.933 -0.36 0.36 0.933 59.912 260.805)" />
      <path d="M6.64948 0L0 0L1.26278 7.93878L7.91226 7.93878L6.64948 0L6.64948 0Z" fill="#CF6F64" fill-rule="evenodd" transform="translate(84.412 260.047)" />
      <path d="M0 26.4567C0.132462 28.055 0.282589 29.6887 0.476864 31.3665L26.9159 22.7831C31.0447 21.5594 34.633 18.9647 37.0888 15.4272C37.1947 13.0694 37.3272 10.588 37.5303 8.00057C37.6186 6.74662 37.7246 5.45734 37.8394 4.15041C37.9542 2.84347 38.1131 1.39524 38.2809 0L0 26.4567L0 26.4567Z" fill="#000000" fill-rule="evenodd" fill-opacity="0.2" transform="translate(44.992 69.755)" />
      <path d="M0.883064 7.91392L0 7.80796C0.521008 3.39263 3.81484 -0.0866623 7.28529 0.00164413L7.28529 0.884708C4.24755 0.822895 1.35109 3.95778 0.883064 7.91392L0.883064 7.91392Z" fill="#FFFFFF" fill-rule="evenodd" transform="translate(52.746 59.333)" />
      <path d="M0.150131 7.88577L0 7.88577L0 7.0027C3.03775 7.1175 5.89006 3.9473 6.35808 0L7.24115 0.105965C6.77313 4.42415 3.58526 7.88577 0.150131 7.88577L0.150131 7.88577Z" fill="#FFFFFF" fill-rule="evenodd" transform="translate(58.185 67.512)" />
      <path d="M15.7986 0C14.5535 4.86569 13.0876 13.7758 16.2931 17.0167C16.2931 17.0167 14.0501 21.953 5.01638 21.953C-3.24028 21.953 1.18388 17.0167 1.18388 17.0167C6.67655 15.7274 6.77369 11.7183 6.04958 7.9211L15.7986 0L15.7986 0Z" fill="#E58A7B" fill-rule="evenodd" transform="translate(59.041 29.991)" />
      <path d="M5.76642 0L0 4.68908C0.178749 5.56165 0.282127 6.44798 0.309052 7.33827C1.99571 9.0161 5.37785 4.76856 5.72225 2.59622C5.89725 1.74097 5.91223 0.860699 5.76642 0L5.76642 0Z" fill="#CF6F64" fill-rule="evenodd" transform="translate(65.1 33.223)" />
      <path d="M0.420467 4.4524C0.821701 5.14785 1.36209 5.75305 2.00785 6.23016C2.65361 6.70726 3.39086 7.04602 4.1735 7.22524C6.29286 7.69326 7.35254 5.74168 6.76971 3.78127C6.24871 2.01514 4.50907 -0.360304 2.35439 0.0459061C1.89284 0.140982 1.46077 0.345263 1.09441 0.641642C0.728046 0.938023 0.438049 1.31787 0.248669 1.74938C0.0592918 2.18089 -0.0239525 2.65149 0.00593948 3.12177C0.0358315 3.59206 0.177982 4.04834 0.420467 4.4524L0.420467 4.4524Z" fill="#CF6F64" fill-rule="evenodd" transform="translate(54.762 25.476)" />
      <path d="M2.98117 0.265481C-0.321499 1.77553 -1.48716 14.8979 2.66325 16.8406C6.81366 18.7834 9.23327 -2.60448 2.98117 0.265481L2.98117 0.265481Z" fill="#263238" fill-rule="evenodd" transform="translate(55.707 14.095)" />
      <path d="M19.1782 9.70405C18.3834 16.2917 18.2951 20.1684 14.7628 23.5417C13.6683 24.6611 12.2857 25.4563 10.7676 25.8394C9.24962 26.2225 7.65527 26.1787 6.1606 25.7127C4.66592 25.2468 3.32907 24.3769 2.29767 23.199C1.26627 22.0211 0.580441 20.5812 0.315891 19.0381C-0.752621 13.1215 0.722103 3.34598 7.32744 0.72327C8.71527 0.111116 10.2416 -0.118685 11.7481 0.0576839C13.2547 0.234053 14.6867 0.81017 15.8956 1.72632C17.1045 2.64247 18.0464 3.86531 18.6236 5.26805C19.2007 6.67079 19.3922 8.20238 19.1782 9.70405L19.1782 9.70405Z" fill="#E58A7B" fill-rule="evenodd" transform="translate(56.668 12.966)" />
      <path d="M13.3755 17.7689C18.2676 16.5238 21.8617 15.6761 20.5725 19.747C20.3815 20.3564 20.1863 20.9636 19.9939 21.5618C18.4692 26.3029 17.1271 30.4764 19.5658 30.6882C21.2436 30.8383 28.6613 27.6946 27.7165 24.5067C27.1798 22.6948 28.4756 21.7426 29.6107 20.9085C30.2127 20.4661 30.7696 20.057 30.9838 19.5704C32.2798 16.6882 30.7404 15.6546 29.3749 14.7378C28.3306 14.0366 27.3879 13.4037 27.8931 12.0643C29.0587 8.97358 22.5947 3.99309 19.0624 6.47451C13.3136 10.4836 3.4498 10.4218 8.63339 3.82531C12.3511 -0.881432 5.71929 0.0811047 5.71929 0.0811047C5.71929 0.0811047 9.7284 2.45656 2.98178 6.13011C-4.15339 10.0509 2.39011 20.5859 13.3755 17.7689L13.3755 17.7689Z" fill="#263238" fill-rule="evenodd" transform="translate(51.618 -0)" />
      <path d="M6.57945 4.4524C5.61364 5.84988 4.16261 6.83823 2.50853 7.22524C0.327362 7.69326 -0.511574 5.74168 0.309677 3.78127C1.04262 2.01514 3.05602 -0.360304 5.14005 0.0459061C7.22409 0.452118 7.70095 2.72159 6.57945 4.4524L6.57945 4.4524Z" fill="#E58A7B" fill-rule="evenodd" transform="translate(71.863 25.476)" />
      <path d="M6.44567 0C6.44567 0 0.476135 53.4255 0.00811005 73.7007C-0.468742 94.7883 20.2392 160.586 20.2392 160.586L30.8359 156.17C30.8359 156.17 18.473 96.0511 20.2392 75.3432C22.1112 52.7632 29.8469 0.0353165 29.8469 0.0353165L6.44567 0L6.44567 0Z" fill="#4CAF4F" fill-rule="evenodd" transform="translate(39.677 106.323)" />
      <path d="M2.44747 2.13924C-2.31226 12.0119 0.89325 31.5365 3.4718 43.1047C4.452 34.9363 5.61767 26.0703 6.7215 17.8666C6.61553 5.25646 5.63533 -4.48375 2.44747 2.13924L2.44747 2.13924Z" fill="#000000" fill-rule="evenodd" fill-opacity="0.2" transform="translate(58.511 118.851)" />
      <path d="M12.8927 0C12.9457 0 14.1467 3.37332 14.1467 3.37332L1.92508 8.51276L0 4.92752L12.8927 0L12.8927 0Z" fill="#4CAF4F" fill-rule="evenodd" transform="translate(57.152 258.996)" />
      <path d="M0 0C0 0 4.56545 50.8116 7.58553 69.8417C10.9059 90.6908 23.9222 160.126 23.9222 160.126L36.0997 160.126C36.0997 160.126 28.8056 92.3775 27.428 71.7314C25.9268 49.3369 22.9421 0 22.9421 0L0 0L0 0Z" fill="#4CAF4F" fill-rule="evenodd" transform="translate(58.742 106.323)" />
      <path d="M13.9348 0.503357C13.9878 0.503357 14.341 3.90317 14.341 3.90317L0.953697 3.90317L0 0L13.9348 0.503357L13.9348 0.503357Z" fill="#4CAF4F" fill-rule="evenodd" transform="translate(81.092 262.776)" />
      <path d="M12.0719 145.759C12.0443 145.759 12.0175 145.75 11.9964 145.732C11.9753 145.714 11.9613 145.689 11.9571 145.662C11.8864 145.044 5.30761 83.8471 4.07132 65.3027C2.72906 45.1865 0.0268631 0.56517 0.000366211 0.114807C-0.000854492 0.100166 0.000984192 0.085434 0.00576019 0.0715408C0.0105286 0.0576401 0.018158 0.0448837 0.0281219 0.0340881C0.0380936 0.0233002 0.0501785 0.0146942 0.0636444 0.00882721C0.0771103 0.00296021 0.0916672 -5.34058e-05 0.106361 0C0.135338 -8.39233e-05 0.163269 0.0108032 0.184563 0.0304565C0.205856 0.0501099 0.218903 0.0770721 0.22113 0.105965C0.22113 0.556328 2.94982 45.1423 4.29208 65.2939C5.52837 83.8383 12.1072 144.991 12.169 145.653C12.1715 145.667 12.171 145.682 12.1673 145.697C12.1637 145.711 12.1571 145.725 12.1479 145.736C12.1388 145.748 12.1273 145.757 12.1142 145.764C12.1011 145.771 12.0867 145.775 12.0719 145.777L12.0719 145.759L12.0719 145.759Z" fill="#000000" fill-rule="evenodd" fill-opacity="0.2" transform="translate(78.292 113.493)" />
      <path d="M1.26603 0.971371C1.26603 1.51004 0.930473 1.94274 0.57724 1.94274C0.224014 1.94274 -0.0320663 1.51004 0.00325775 0.971371C0.0385818 0.432701 0.338821 0 0.692047 0C1.04527 0 1.30136 0.44153 1.26603 0.971371L1.26603 0.971371Z" fill="#263238" fill-rule="evenodd" transform="translate(64.478 23.535)" />
      <path d="M1.27344 0.971371C1.27344 1.51004 0.92905 1.94274 0.584652 1.94274C0.240257 1.94274 -0.0246658 1.51004 0.00182724 0.971371C0.0283203 0.432701 0.346203 0 0.699429 0C1.05266 0 1.30877 0.44153 1.27344 0.971371L1.27344 0.971371Z" fill="#263238" fill-rule="evenodd" transform="translate(58.413 23.535)" />
      <path d="M2.82582 0C2.0887 1.64489 1.13862 3.18577 0 4.58311C0.883064 5.46617 2.53439 5.05997 2.53439 5.05997L2.82582 0L2.82582 0Z" fill="#DF5753" fill-rule="evenodd" transform="translate(58.768 24.78)" />
      <path d="M0.150394 2.01949C0.129913 2.01953 0.10965 2.01538 0.0908356 2.00728C0.0720215 1.99919 0.0550423 1.98733 0.0409813 1.97244C0.0269165 1.95755 0.0160484 1.93994 0.00904465 1.9207C0.00204086 1.90145 -0.000946045 1.88098 0.000259399 1.86053C0.00252533 1.81758 0.0212097 1.77714 0.052433 1.74756C0.0836563 1.71798 0.125034 1.70153 0.168045 1.70159C0.84343 1.70627 1.51129 1.55957 2.12255 1.27228C2.73381 0.984987 3.27292 0.564402 3.70031 0.04142C3.73088 0.0147133 3.7701 0 3.81069 0C3.85129 0 3.8905 0.0147133 3.92107 0.04142C3.94967 0.0710506 3.96565 0.110624 3.96565 0.151804C3.96565 0.192984 3.94967 0.232555 3.92107 0.262186C3.46361 0.818008 2.8875 1.26435 2.23501 1.56843C1.58252 1.87252 0.870228 2.02664 0.150394 2.01949L0.150394 2.01949Z" fill="#263238" fill-rule="evenodd" transform="translate(61.602 30.073)" />
      <path d="M2.95696 1.03368C2.9146 1.05538 2.86768 1.0667 2.82009 1.0667C2.77249 1.0667 2.72557 1.05538 2.68321 1.03368C2.35287 0.820127 1.97691 0.687277 1.58574 0.645859C1.19456 0.604441 0.799149 0.655619 0.431404 0.795258C0.395554 0.813183 0.356468 0.823748 0.316467 0.826328C0.276466 0.828911 0.236343 0.823458 0.198486 0.810287C0.160622 0.797119 0.12579 0.776506 0.0960236 0.749659C0.0662613 0.722813 0.0421638 0.690269 0.025177 0.653963C-0.00760269 0.575378 -0.00839996 0.487103 0.0229378 0.407932C0.0542755 0.328762 0.115276 0.264957 0.192963 0.230097C0.654633 0.0415382 1.15499 -0.0328369 1.65155 0.0132847C2.14811 0.0594044 2.62622 0.224653 3.04527 0.49501C3.07912 0.518026 3.10806 0.547541 3.1304 0.581827C3.15275 0.616116 3.16807 0.654495 3.17546 0.694752C3.18286 0.735004 3.18217 0.776333 3.17347 0.816324C3.16476 0.856316 3.1482 0.894178 3.12474 0.927717C3.08009 0.978348 3.02186 1.01512 2.95696 1.03368L2.95696 1.03368Z" fill="#263238" fill-rule="evenodd" transform="translate(63.865 21.848)" />
      <path d="M0.216373 1.61701C0.169315 1.60562 0.126461 1.58113 0.0927582 1.54637C0.0633888 1.51759 0.0400467 1.48324 0.0241203 1.44533C0.00819016 1.40743 0 1.36672 0 1.32561C0 1.28449 0.00819016 1.24378 0.0241203 1.20587C0.0400467 1.16796 0.0633888 1.13362 0.0927582 1.10484C0.431198 0.725229 0.852745 0.428907 1.32452 0.238974C1.79629 0.0490398 2.30553 -0.0293808 2.81259 0.00983238C2.85321 0.0161018 2.89213 0.0306454 2.92691 0.0525608C2.96168 0.0744762 2.99158 0.103298 3.01476 0.137241C3.03794 0.171183 3.05389 0.209524 3.06165 0.249887C3.06941 0.290251 3.06879 0.331776 3.05985 0.371893C3.04092 0.453659 2.9928 0.5257 2.92451 0.574482C2.85621 0.623264 2.77246 0.645426 2.68897 0.636808C2.28774 0.611528 1.886 0.677904 1.51421 0.830902C1.14243 0.9839 0.810356 1.21951 0.543133 1.51987C0.502888 1.56457 0.45108 1.59729 0.393429 1.61443C0.335777 1.63157 0.274502 1.63246 0.216373 1.61701L0.216373 1.61701Z" fill="#263238" fill-rule="evenodd" transform="translate(57.13 19.499)" />
      <path d="M41.4364 2.4461L32.2525 0C32.2525 0 23.2452 22.1738 20.0574 23.6132C15.7303 25.5912 4.77149 32.4438 0.108902 35.6847C-0.147186 36.7885 0.0559235 39.7115 0.638748 40.515C8.58634 39.0668 23.8015 33.2121 26.9806 30.2362C34.2306 23.4454 41.4364 2.4461 41.4364 2.4461L41.4364 2.4461Z" fill="#E58A7B" fill-rule="evenodd" transform="translate(49.131 54.761)" />
      <path d="M1.55399 1.68451C1.10583 1.71997 0.659317 1.59821 0.291214 1.34012C0.177475 1.2374 0.0924072 1.10687 0.0444107 0.961334C-0.00358582 0.815796 -0.0128555 0.660248 0.0174637 0.51004C0.0230255 0.416199 0.0538635 0.325623 0.10672 0.247894C0.159576 0.170135 0.232483 0.108185 0.317703 0.068512C1.05216 -0.307465 3.09385 0.978729 3.36551 1.14987C3.36822 1.15158 3.37075 1.15317 3.3731 1.15466C3.39932 1.17081 3.41953 1.19507 3.43069 1.22375C3.44185 1.25244 3.44334 1.28403 3.43492 1.31363C3.42737 1.34445 3.41202 1.3728 3.39038 1.396C3.36873 1.41919 3.3415 1.43643 3.31128 1.44608C2.73561 1.58755 2.14655 1.66748 1.55399 1.68451L1.55399 1.68451ZM0.670921 0.306915C0.604034 0.292053 0.534691 0.292053 0.467812 0.306915C0.43396 0.324097 0.405899 0.35083 0.38707 0.383789C0.36824 0.416748 0.359459 0.454468 0.361847 0.492371C0.33831 0.595123 0.342239 0.702271 0.373245 0.80304C0.404243 0.903778 0.461235 0.994629 0.538467 1.06638C0.882866 1.37546 1.74827 1.41077 2.88743 1.19C2.20911 0.743225 1.44525 0.442505 0.644432 0.306915L0.670921 0.306915L0.670921 0.306915Z" fill="#4CAF4F" fill-rule="evenodd" transform="translate(82.602 274.152)" />
      <path d="M1.81124 2.99207C1.78828 2.99951 1.76354 2.99951 1.74058 2.99207C1.07828 2.62119 -0.166824 1.16415 0.0186157 0.422363C0.0463409 0.304779 0.11277 0.199921 0.20726 0.124664C0.30175 0.0493774 0.418816 0.00805664 0.539627 0.00732422C0.658134 -0.0085144 0.778671 0.00143433 0.892982 0.0364685C1.00729 0.0715332 1.11267 0.13089 1.20192 0.210419C1.93487 0.837402 1.97903 2.76248 1.97903 2.85962C1.9833 2.88867 1.97781 2.91827 1.96342 2.94385C1.94904 2.96942 1.92658 2.9895 1.89955 3.00092C1.8699 3.00696 1.83911 3.00385 1.81124 2.99207L1.81124 2.99207ZM0.627937 0.298706L0.566116 0.298706C0.363007 0.298706 0.336525 0.413544 0.327698 0.457703C0.221733 0.890381 1.00764 1.9942 1.66111 2.51523C1.65814 1.76923 1.42703 1.04205 0.99881 0.431213C0.896332 0.341827 0.763855 0.294464 0.627937 0.298706L0.627937 0.298706Z" fill="#4CAF4F" fill-rule="evenodd" transform="translate(84.058 272.606)" />
      <path d="M2.10589 1.41736C1.56552 1.6058 0.977261 1.6058 0.436886 1.41736C0.314156 1.35089 0.210178 1.25458 0.134544 1.13727C0.0589142 1.01996 0.01408 0.885468 0.00419235 0.746246C-0.00695419 0.658936 0.00421143 0.57019 0.0366402 0.488342C0.0690689 0.406525 0.121696 0.334198 0.189629 0.278198C0.896084 -0.357605 3.78371 0.278229 4.11044 0.401855C4.14153 0.409851 4.16896 0.428192 4.18822 0.453888C4.20748 0.479584 4.21742 0.511047 4.21641 0.543152C4.21773 0.576263 4.20923 0.609039 4.19194 0.637329C4.17465 0.665619 4.14937 0.688141 4.11928 0.702087C3.46904 0.995667 2.79561 1.23489 2.10589 1.41736L2.10589 1.41736ZM0.666492 0.370026C0.565514 0.392395 0.471333 0.442627 0.392746 0.515991C0.364613 0.539185 0.343025 0.570709 0.330521 0.606903C0.318012 0.643066 0.315083 0.682434 0.322083 0.720367C0.327854 0.82254 0.356754 0.921448 0.406113 1.00815C0.455471 1.09482 0.523724 1.1665 0.604671 1.21667C1.0727 1.48917 2.15887 1.27509 3.56295 0.623047C2.61719 0.360168 1.63802 0.274597 0.666492 0.370026L0.666492 0.370026Z" fill="#4CAF4F" fill-rule="evenodd" transform="translate(58.605 273.315)" />
      <path d="M2.77284 2.56458L2.70218 2.56458C1.81911 2.40564 0.0529823 1.39011 0 0.630676C0 0.454071 0.079483 0.206818 0.503353 0.0655212C0.646545 0.0145264 0.798546 -0.00708008 0.950275 0.00201416C1.10201 0.0111389 1.25035 0.0507507 1.38642 0.1185C2.34013 0.586517 2.84347 2.28198 2.86996 2.36148C2.87618 2.38818 2.87538 2.41605 2.86765 2.44235C2.85991 2.46866 2.8455 2.49252 2.82582 2.5116C2.81263 2.53323 2.79447 2.55139 2.77284 2.56458L2.77284 2.56458ZM0.679951 0.330444L0.591667 0.330444C0.317917 0.427551 0.317917 0.542358 0.317917 0.577698C0.317917 1.03687 1.59836 1.87579 2.49025 2.15839C2.28484 1.44913 1.85006 0.828003 1.25397 0.392242C1.07665 0.302063 0.872398 0.28006 0.679951 0.330444L0.679951 0.330444Z" fill="#4CAF4F" fill-rule="evenodd" transform="translate(59.925 271.452)" />
      <path d="M10.2789 0L1.0685 4.23872L0 6.88792L3.39978 9.17505C3.39978 9.17505 9.75786 8.48627 11.5681 4.39768L10.2789 0L10.2789 0Z" fill="#E58A7B" fill-rule="evenodd" transform="translate(39.711 89.924)" />
      <path d="M1.71315 6.09316C1.50731 4.32349 0.923035 2.61885 0 1.09501L1.45705 0C2.5531 1.75579 3.25231 3.72985 3.50577 5.78408L1.71315 6.09316L1.71315 6.09316Z" fill="#263238" fill-rule="evenodd" transform="translate(48.666 89.333)" />
      <path d="M3.25651 0.863976C3.45123 1.17022 3.5469 1.52903 3.53047 1.89157C3.51405 2.25411 3.38632 2.60278 3.16469 2.89016C2.94307 3.17754 2.6383 3.38968 2.29184 3.4977C1.94538 3.60572 1.57406 3.60439 1.22838 3.49389C0.882702 3.38338 0.579453 3.16907 0.359894 2.88011C0.140335 2.59115 0.01511 2.24156 0.00128174 1.87891C-0.0125427 1.51627 0.0856857 1.15816 0.282604 0.853317C0.479519 0.54847 0.765568 0.311691 1.10183 0.175179C1.47927 -0.0171356 1.91737 -0.0526657 2.32087 0.0763168C2.72436 0.205307 3.06062 0.488373 3.25651 0.863976L3.25651 0.863976Z" fill="#263238" fill-rule="evenodd" transform="translate(48.694 90.314)" />
      <path d="M0 3.4263L1.22747 4.66259L9.49296 1.13032L6.22563 0L0 3.4263L0 3.4263Z" fill="#E58A7B" fill-rule="evenodd" transform="translate(34.554 94.163)" />
      <path d="M12.8927 0C12.9457 0 14.1467 3.37332 14.1467 3.37332L1.92508 8.51276L0 4.92752L12.8927 0L12.8927 0Z" fill="#000000" fill-rule="evenodd" fill-opacity="0.2" transform="translate(57.152 258.996)" />
      <path d="M13.9348 0.503357C13.9878 0.503357 14.341 3.90317 14.341 3.90317L0.953697 3.90317L0 0L13.9348 0.503357L13.9348 0.503357Z" fill="#000000" fill-rule="evenodd" fill-opacity="0.2" transform="translate(81.092 262.776)" />
      <path d="M20.1781 6.28211C22.6065 14.1149 13.1135 24.8265 13.1135 24.8265L0 19.4751C1.55435 14.9478 3.34654 10.5057 5.36905 6.16731C9.39583 -2.51323 17.7231 -1.62133 20.1781 6.28211L20.1781 6.28211Z" fill="#4CAF4F" fill-rule="evenodd" transform="translate(72.782 48.381)" />
      <path d="M20.1781 6.28211C22.6065 14.1149 13.1135 24.8265 13.1135 24.8265L0 19.4751C1.55435 14.9478 3.34654 10.5057 5.36905 6.16731C9.39583 -2.51323 17.7231 -1.62133 20.1781 6.28211L20.1781 6.28211Z" fill="#000000" fill-rule="evenodd" fill-opacity="0.2" transform="translate(72.782 48.381)" />
    </g>
    <g transform="translate(167.412 13.749)">
      <path d="M5.64279 0L0 0L0 1L5.64279 1L5.64279 0L5.64279 0Z" fill="#4CAF4F" fill-rule="evenodd" transform="translate(43.191 -0)" />
      <path d="M15.1711 0L0 0L7.62939e-06 1L15.1711 0.999992L15.1711 0L15.1711 0Z" fill="#4CAF4F" fill-rule="evenodd" transform="matrix(0.045 -0.999 0.999 0.045 121.196 51.155)" />
      <path d="M113.898 0L9.69606 0L0 216.987L104.202 216.987L113.898 0L113.898 0Z" fill="#4CAF4F" fill-rule="evenodd" transform="translate(6.226 4.08)" />
      <path d="M113.898 0L9.69606 0L0 216.987L104.202 216.987L113.898 0L113.898 0Z" fill="#FAFAFA" fill-rule="evenodd" fill-opacity="0.56" transform="translate(3.117 7.065)" />
      <path d="M113.907 0L9.7049 0L0 216.987L104.202 216.987L113.907 0L113.907 0Z" fill="#4CAF4F" fill-rule="evenodd" fill-opacity="0.07" transform="translate(-0 10.04)" />
      <path d="M89.6842 0L0.741772 0L0 16.6016L88.9424 16.6016L89.6842 0L89.6842 0Z" fill="#FFFFFF" fill-rule="evenodd" transform="translate(12.363 104.679)" />
      <path d="M48.7011 0L0.32673 0L0 7.42659L48.3743 7.42659L48.7011 0L48.7011 0Z" fill="#4CAF4F" fill-rule="evenodd" transform="translate(13.317 92.563)" />
      <path d="M89.6842 0L0.741772 0L0 16.6016L88.9424 16.6016L89.6842 0L89.6842 0Z" fill="#FFFFFF" fill-rule="evenodd" transform="translate(10.358 149.485)" />
      <path d="M60.7019 0L0.891891 0L0 19.8955L59.8101 19.8955L60.7019 0L60.7019 0Z" fill="#4CAF4F" fill-rule="evenodd" fill-opacity="0.47" transform="translate(23.03 188.508)" />
      <path d="M59.8961 20.0892L0.0860329 20.0892C0.0599689 20.0959 0.0326252 20.0959 0.00656128 20.0892C-0.00218773 20.0634 -0.00218773 20.0355 0.00656128 20.0097L0.889626 0.105423C0.88957 0.0918884 0.892342 0.078476 0.897764 0.0660858C0.903189 0.0536804 0.911139 0.0425568 0.921116 0.0334167C0.931093 0.0242767 0.942881 0.0173187 0.955706 0.0129852C0.968529 0.00866699 0.982111 0.00704956 0.99559 0.00827026L60.8056 0.00827026C60.8166 0.00282288 60.8287 0 60.841 0C60.8532 0 60.8653 0.00282288 60.8763 0.00827026C60.8825 0.0190125 60.8857 0.0312042 60.8857 0.0436096C60.8857 0.0559998 60.8825 0.0681915 60.8763 0.0789337L60.0109 20.0274C60.0003 20.0481 59.9836 20.0651 59.9631 20.0762C59.9426 20.0872 59.9192 20.0918 59.8961 20.0892L59.8961 20.0892ZM0.191998 19.8773L59.7901 19.8773L60.6732 0.184891L1.07506 0.184891L0.191998 19.8773L0.191998 19.8773Z" fill="#FFFFFF" fill-rule="evenodd" transform="translate(19.836 191.405)" />
      <path d="M40.259 0L0.32673 0L0 7.43541L39.9234 7.43541L40.259 0L40.259 0Z" fill="#4CAF4F" fill-rule="evenodd" transform="translate(11.312 137.37)" />
      <path d="M45.2707 22.6251C45.0424 27.4567 43.3242 32.0992 40.352 35.9152C38.1518 38.7977 35.3204 41.1377 32.0752 42.7557C28.83 44.3737 25.2572 45.2267 21.631 45.2492C18.7007 45.2716 15.7969 44.6937 13.0983 43.5513C10.3998 42.4089 7.96375 40.7261 5.94019 38.6066C3.91664 36.4871 2.34845 33.9757 1.33222 31.2272C0.315987 28.4787 -0.12677 25.5512 0.0312271 22.6251C0.341785 16.5531 2.96023 10.8292 7.35111 6.62379C11.742 2.4184 17.5735 0.0492916 23.6532 0.000932693C26.5857 -0.026413 29.4927 0.547873 32.1945 1.68831C34.8963 2.82874 37.3356 4.51109 39.3616 6.63142C41.3875 8.75174 42.9572 11.265 43.9736 14.0159C44.9899 16.7668 45.4314 19.6968 45.2707 22.6251L45.2707 22.6251Z" fill="#FFFFFF" fill-rule="evenodd" transform="translate(37.322 28.425)" />
      <path d="M12.0337 6.00509C11.9761 7.28979 11.5192 8.52454 10.7268 9.53735C10.1404 10.3029 9.38687 10.9245 8.52372 11.3545C7.66057 11.7845 6.71059 12.0117 5.74627 12.0188C4.81197 12.0244 3.8905 11.8013 3.06234 11.3687C2.23417 10.9361 1.52451 10.3074 0.995377 9.53735C0.294693 8.4968 -0.0521088 7.2582 0.00634003 6.00509C0.0917282 4.39297 0.788849 2.87413 1.95554 1.7583C3.12223 0.642483 4.67063 0.0137177 6.28495 0.000238419C7.06375 -0.00687218 7.83575 0.145567 8.55339 0.448156C9.27103 0.75075 9.9191 1.19709 10.4577 1.75967C10.9963 2.32224 11.414 2.98915 11.685 3.71929C11.956 4.44943 12.0747 5.22734 12.0337 6.00509L12.0337 6.00509Z" fill="#4CAF4F" fill-rule="evenodd" transform="translate(72.688 27.154)" />
      <path d="M5.32838 2.64928C5.28597 3.36087 4.97535 4.02993 4.45914 4.52155C3.94294 5.01318 3.25953 5.2908 2.54672 5.29848C2.20255 5.30258 1.86119 5.23604 1.54376 5.10298C1.22632 4.96991 0.939562 4.77314 0.701195 4.52484C0.462828 4.27654 0.277922 3.98198 0.157915 3.65939C0.0379105 3.33679 -0.0146427 2.993 0.00349808 2.64928C0.0417843 1.93622 0.351128 1.26476 0.868225 0.772285C1.38532 0.279808 2.07107 0.00356293 2.78515 8.39233e-05C3.12896 -0.00273132 3.46972 0.0646896 3.78656 0.198204C4.1034 0.331711 4.38965 0.528511 4.62776 0.776543C4.86587 1.02457 5.05082 1.3186 5.1713 1.64062C5.29177 1.96264 5.34522 2.30587 5.32838 2.64928L5.32838 2.64928Z" fill="#263238" fill-rule="evenodd" transform="translate(17.358 110.33)" />
      <path d="M5.31955 2.64938C5.27919 3.3617 4.96921 4.03196 4.45256 4.524C3.93591 5.01605 3.25134 5.29298 2.5379 5.29857C2.19447 5.30146 1.85407 5.23402 1.53767 5.10042C1.22128 4.96681 0.935587 4.76986 0.698172 4.52169C0.460754 4.27352 0.276651 3.97939 0.157183 3.65739C0.037714 3.33539 -0.014595 2.99234 0.00349236 2.64938C0.0416832 1.93783 0.349794 1.26763 0.865013 0.775383C1.38023 0.283134 2.06377 0.00589752 2.77632 0.000175476C3.12049 -0.00392151 3.46185 0.0626297 3.77928 0.195694C4.09672 0.328758 4.38349 0.52552 4.62186 0.773819C4.86022 1.02212 5.04513 1.31667 5.16513 1.63927C5.28514 1.96187 5.33769 2.30566 5.31955 2.64938L5.31955 2.64938Z" fill="#263238" fill-rule="evenodd" transform="translate(29.27 110.33)" />
      <path d="M5.32792 2.64938C5.28755 3.3617 4.97756 4.03196 4.46091 4.524C3.94427 5.01605 3.2597 5.29298 2.54625 5.29857C2.20244 5.30139 1.86168 5.23398 1.54484 5.10047C1.228 4.96696 0.941761 4.77016 0.703651 4.52213C0.465546 4.2741 0.280594 3.98007 0.160118 3.65805C0.0396423 3.33603 -0.0138092 2.99278 0.00303268 2.64938C0.043396 1.93705 0.353374 1.26681 0.870022 0.774757C1.38667 0.282715 2.07124 0.00576782 2.78468 0.000175476C3.12886 -0.00392151 3.47021 0.0626297 3.78765 0.195694C4.10508 0.328758 4.39185 0.52552 4.63022 0.773819C4.86859 1.02212 5.05348 1.31667 5.17349 1.63927C5.29349 1.96187 5.34606 2.30566 5.32792 2.64938L5.32792 2.64938Z" fill="#263238" fill-rule="evenodd" transform="translate(41.174 110.33)" />
      <path d="M5.32792 2.64928C5.2855 3.36087 4.97488 4.02991 4.45868 4.52155C3.94247 5.01315 3.25908 5.2908 2.54627 5.29848C2.20246 5.3013 1.86168 5.23389 1.54484 5.10037C1.228 4.96686 0.94176 4.77007 0.703652 4.52203C0.465545 4.27402 0.280592 3.97997 0.160118 3.65794C0.0396442 3.33592 -0.0138102 2.99269 0.00303173 2.64928C0.043395 1.93697 0.353375 1.26669 0.870023 0.774658C1.38667 0.282608 2.07124 0.00567627 2.78468 9.15527e-05C3.12849 -0.00273132 3.46927 0.064682 3.78611 0.198181C4.10295 0.331696 4.38919 0.528503 4.6273 0.77652C4.8654 1.02457 5.05036 1.3186 5.17083 1.64063C5.29131 1.96265 5.34476 2.30588 5.32792 2.64928L5.32792 2.64928Z" fill="#263238" fill-rule="evenodd" transform="translate(15.353 155.137)" />
      <path d="M5.31954 2.64929C5.27929 3.36011 4.97055 4.02908 4.45577 4.5209C3.941 5.01273 3.25863 5.29066 2.54672 5.29848C2.20255 5.30258 1.86119 5.23605 1.54376 5.10298C1.22632 4.96991 0.939562 4.77313 0.701195 4.52484C0.462828 4.27654 0.277922 3.98199 0.157915 3.65939C0.0379105 3.33679 -0.0146427 2.993 0.00349808 2.64929C0.0438614 1.93697 0.353842 1.26669 0.870489 0.774658C1.38714 0.282608 2.07171 0.00567627 2.78515 9.15527e-05C3.12858 -0.00279236 3.46897 0.0646362 3.78536 0.198242C4.10175 0.331848 4.38745 0.528809 4.62487 0.776978C4.86228 1.02515 5.0464 1.31929 5.16587 1.64128C5.28534 1.96329 5.33763 2.30632 5.31954 2.64929L5.31954 2.64929Z" fill="#263238" fill-rule="evenodd" transform="translate(27.266 155.137)" />
      <path d="M5.32749 2.64938C5.28713 3.36169 4.97715 4.03197 4.4605 4.524C3.94385 5.01605 3.25928 5.29298 2.54584 5.29857C2.20239 5.30013 1.8622 5.23186 1.54595 5.0979C1.22969 4.96394 0.943974 4.76712 0.70612 4.51936C0.468269 4.27159 0.283253 3.97806 0.162315 3.65662C0.041378 3.33514 -0.0129585 2.99248 0.00260162 2.64938C0.0450211 1.93777 0.35564 1.26874 0.871845 0.777115C1.38805 0.285492 2.07144 0.00785828 2.78425 0.000183105C3.12843 -0.00392151 3.46978 0.0626068 3.78722 0.195679C4.10465 0.328751 4.39142 0.525513 4.62979 0.773819C4.86816 1.02213 5.05306 1.31667 5.17307 1.63927C5.29308 1.96187 5.34563 2.30566 5.32749 2.64938L5.32749 2.64938Z" fill="#263238" fill-rule="evenodd" transform="translate(39.197 155.137)" />
      <path d="M5.3275 2.64928C5.28508 3.36087 4.97445 4.02992 4.45825 4.52155C3.94204 5.01315 3.25865 5.2908 2.54584 5.29848C2.20239 5.30003 1.86221 5.23175 1.54596 5.09779C1.22971 4.96385 0.943974 4.76701 0.70612 4.51926C0.468269 4.2715 0.283264 3.97797 0.162331 3.65652C0.0413933 3.33505 -0.0129585 2.99239 0.00260162 2.64928C0.0450211 1.93768 0.355652 1.26865 0.871857 0.777023C1.38806 0.2854 2.07145 0.00776672 2.78427 9.15527e-05C3.12808 -0.00273132 3.46884 0.064682 3.78568 0.198181C4.10252 0.331696 4.38876 0.528503 4.62687 0.77652C4.86497 1.02457 5.04994 1.3186 5.17042 1.64063C5.29089 1.96265 5.34434 2.30588 5.3275 2.64928L5.3275 2.64928Z" fill="#263238" fill-rule="evenodd" transform="translate(51.083 155.137)" />
      <path d="M5.32838 2.64928C5.28597 3.36087 4.97535 4.02991 4.45914 4.52155C3.94294 5.01315 3.25954 5.2908 2.54673 5.29848C2.20256 5.30258 1.8612 5.23604 1.54377 5.10298C1.22633 4.96991 0.939548 4.77313 0.70118 4.52484C0.462814 4.27654 0.27792 3.98198 0.157917 3.65939C0.0379105 3.33679 -0.0146408 2.993 0.00349808 2.64928C0.0438614 1.93697 0.353855 1.26669 0.870502 0.774658C1.38715 0.282608 2.07171 0.00567627 2.78515 9.15527e-05C3.12896 -0.00273132 3.46973 0.064682 3.78658 0.198181C4.10342 0.331696 4.38965 0.528503 4.62776 0.77652C4.86587 1.02457 5.05082 1.3186 5.1713 1.64063C5.29177 1.96265 5.34522 2.30588 5.32838 2.64928L5.32838 2.64928Z" fill="#263238" fill-rule="evenodd" transform="translate(63.039 155.137)" />
      <path d="M9.36049 17.8909C14.5301 17.8909 18.721 13.8859 18.721 8.94545C18.721 4.00501 14.5301 0 9.36049 0C4.19083 0 0 4.00501 0 8.94546C0 13.8859 4.19083 17.8909 9.36049 17.8909L9.36049 17.8909Z" fill="#4CAF4F" fill-rule="evenodd" transform="matrix(0.715 -0.699 0.699 0.715 47.359 43.625)" />
      <path d="M36.5942 7.06453C34.394 9.94698 31.5626 12.287 28.3174 13.905C25.0722 15.5231 21.4994 16.3761 17.8732 16.3985C14.3569 16.4284 10.8873 15.5925 7.77036 13.9647C4.65339 12.337 1.98483 9.96722 0 7.06453C4.2917 2.79049 11.0825 0 18.6062 0C26.1299 0 32.6823 2.79049 36.5942 7.06453L36.5942 7.06453Z" fill="#4CAF4F" fill-rule="evenodd" transform="translate(41.08 57.276)" />
      <path d="M9.36049 17.8909C14.5301 17.8909 18.721 13.8859 18.721 8.94545C18.721 4.00501 14.5301 0 9.36049 0C4.19083 0 0 4.00501 0 8.94546C0 13.8859 4.19083 17.8909 9.36049 17.8909L9.36049 17.8909Z" fill="#FFFFFF" fill-rule="evenodd" fill-opacity="0.1" transform="matrix(0.715 -0.699 0.699 0.715 47.359 43.625)" />
      <path d="M36.5942 7.06453C34.394 9.94698 31.5626 12.287 28.3174 13.905C25.0722 15.5231 21.4994 16.3761 17.8732 16.3985C14.3569 16.4284 10.8873 15.5925 7.77036 13.9647C4.65339 12.337 1.98483 9.96722 0 7.06453C4.2917 2.79049 11.0825 0 18.6062 0C26.1299 0 32.6823 2.79049 36.5942 7.06453L36.5942 7.06453Z" fill="#FFFFFF" fill-rule="evenodd" fill-opacity="0.1" transform="translate(41.08 57.276)" />
    </g>
    <g transform="translate(96.042 90.815)">
      <path d="M14.3763 3.1702C13.5374 5.00698 12.6543 7.0292 11.8861 8.9896C11.1178 10.95 10.3319 12.9722 9.65191 14.9856C8.26358 18.9535 7.20618 23.0295 6.49054 27.1719L6.29626 28.47C6.27773 28.6927 6.29866 28.9169 6.35808 29.1323C6.56648 29.8642 6.89471 30.5565 7.32945 31.181C8.46349 32.7977 9.779 34.2792 11.2503 35.5964C12.8014 37.0392 14.4286 38.3981 16.1248 39.6673C17.8203 40.9742 19.6041 42.2458 21.3614 43.4468L19.71 46.5464C15.5139 44.7181 11.531 42.4349 7.8328 39.738C5.85979 38.2991 4.07918 36.6134 2.5344 34.7221C1.61873 33.5963 0.904701 32.3206 0.423874 30.9514C0.144309 30.0961 0.00126171 29.2021 0 28.3022L0 27.1984L0.0883121 26.3153C0.594565 21.7146 1.56197 17.1764 2.97593 12.7691C3.66473 10.5968 4.39767 8.43327 5.23658 6.32274C6.07549 4.21221 6.9409 2.14585 8.00941 0L14.3763 3.1702L14.3763 3.1702Z" fill="#E58A7B" fill-rule="evenodd" transform="translate(4.742 45.044)" />
      <path d="M1.6425 3.16136L7.88577 0L6.26976 6.85257C6.26976 6.85257 1.9869 8.05354 0 5.96951L1.6425 3.16136L1.6425 3.16136Z" fill="#E58A7B" fill-rule="evenodd" transform="translate(23.216 84.782)" />
      <path d="M7.32945 1.12148L5.66929 6.79078L0 6.85257L1.61601 0L7.32945 1.12148L7.32945 1.12148Z" fill="#E58A7B" fill-rule="evenodd" transform="translate(29.486 84.782)" />
      <path d="M0.0176506 0C0.351593 1.22379 0.816422 2.40805 1.40407 3.53226C1.23239 3.72696 1.01126 3.87161 0.764088 3.95089C0.516911 4.03017 0.252899 4.04113 0 3.98262L0.0176506 0L0.0176506 0Z" fill="#DF5753" fill-rule="evenodd" transform="translate(45.61 15.153)" />
      <path d="M0.6623 2.03105C1.02808 2.03105 1.3246 1.57639 1.3246 1.01553C1.3246 0.454674 1.02808 0 0.6623 0C0.29652 0 0 0.454674 0 1.01553C0 1.57639 0.29652 2.03105 0.6623 2.03105L0.6623 2.03105Z" fill="#263238" fill-rule="evenodd" transform="translate(44.78 13.174)" />
      <path d="M0 0.632832L1.34226 0C1.34226 0 0.688789 1.73658 0 0.632832L0 0.632832Z" fill="#263238" fill-rule="evenodd" transform="translate(45.248 12.83)" />
      <path d="M1.2716 0C2.07519 4.10626 2.87879 11.6388 0 14.3851C0 14.3851 1.13032 18.5532 8.76884 18.5532C17.1668 18.5532 12.7779 14.3851 12.7779 14.3851C8.19484 13.2901 8.30964 9.89034 9.11323 6.69364L1.2716 0L1.2716 0Z" fill="#E58A7B" fill-rule="evenodd" transform="translate(27.11 21.634)" />
      <path d="M0.0222187 10.0233C0.446091 16.8847 0.481417 19.7988 3.94303 23.3223C9.16195 28.6207 17.4981 26.6073 19.1318 19.79C20.6065 13.6086 19.6704 3.43564 12.9503 0.706967C11.4752 0.0992913 9.86946 -0.122033 8.28497 0.0639362C6.70048 0.249905 5.18963 0.837012 3.89532 1.76973C2.60101 2.70244 1.56603 3.94993 0.888294 5.39418C0.21056 6.83844 -0.0875301 8.43173 0.0222187 10.0233L0.0222187 10.0233Z" fill="#E58A7B" fill-rule="evenodd" transform="translate(26.125 2.25)" />
      <path d="M7.2588 0.322757C6.71317 0.521421 6.13873 0.665116 5.56547 0.808517C2.52032 1.57025 -0.49169 2.3237 1.02436 11.2639C2.93178 22.5142 0 26.2142 0 26.2142C0 26.2142 13.0605 28.9959 26.3948 26.0465C26.3948 26.0465 22.3239 18.929 23.4631 13.6835C24.9201 7.06055 23.7721 4.61445 23.7721 4.61445C23.7721 4.61445 12.098 -1.44338 7.2588 0.322757L7.2588 0.322757Z" fill="#263238" fill-rule="evenodd" transform="translate(19.569 4.233)" />
      <path d="M0 1.93168C0.00358582 3.23633 0.377159 4.51322 1.07734 5.61407C2.01339 7.04464 3.11722 6.49714 3.39097 4.97826C3.63823 3.64483 3.45279 1.28705 2.26065 0.368659C1.06851 -0.549728 0.017662 0.350988 0 1.93168L0 1.93168Z" fill="#E58A7B" fill-rule="evenodd" transform="translate(41.398 13.919)" />
      <path d="M0.128895 5.71259C-0.86014 2.93093 3.85543 -1.35194 13.8341 0.414194C23.8127 2.18032 24.2454 10.49 24.2454 10.49L22.232 8.08804L22.3203 10.6136L12.0679 12.5828L0.128895 5.71259L0.128895 5.71259Z" fill="#263238" fill-rule="evenodd" transform="translate(23.705 0)" />
      <path d="M0.0164223 2.95559C-0.0424805 2.55238 0.0584011 2.14212 0.297581 1.81221C0.536762 1.48231 0.89533 1.25885 1.29686 1.18946C4.40526 0.67728 11.4698 -0.364735 15.0197 0.129784C17.6689 0.500671 18.3577 2.0372 18.4725 3.29999C18.4905 3.5211 18.4609 3.7435 18.3858 3.95223C18.3106 4.16097 18.1917 4.3512 18.0369 4.51015C17.8822 4.66909 17.6952 4.79306 17.4885 4.87373C17.2819 4.95439 17.0603 4.98988 16.8388 4.97781L1.49114 4.28902C1.12931 4.27075 0.784903 4.12806 0.516178 3.88508C0.247454 3.6421 0.0709152 3.31376 0.0164223 2.95559L0.0164223 2.95559Z" fill="#4CAF4F" fill-rule="evenodd" transform="translate(24.665 33.532)" />
      <path d="M0.0164223 2.95559C-0.0424805 2.55238 0.0584011 2.14212 0.297581 1.81221C0.536762 1.48231 0.89533 1.25885 1.29686 1.18946C4.40526 0.67728 11.4698 -0.364735 15.0197 0.129784C17.6689 0.500671 18.3577 2.0372 18.4725 3.29999C18.4905 3.5211 18.4609 3.7435 18.3858 3.95223C18.3106 4.16097 18.1917 4.3512 18.0369 4.51015C17.8822 4.66909 17.6952 4.79306 17.4885 4.87373C17.2819 4.95439 17.0603 4.98988 16.8388 4.97781L1.49114 4.28902C1.12931 4.27075 0.784903 4.12806 0.516178 3.88508C0.247454 3.6421 0.0709152 3.31376 0.0164223 2.95559L0.0164223 2.95559Z" fill="#000000" fill-rule="evenodd" fill-opacity="0.6" transform="translate(24.665 33.532)" />
      <path d="M0 12.9104L5.69579 16.8666L15.2241 3.9473L9.52829 0L0 12.9104L0 12.9104Z" fill="#E58A7B" fill-rule="evenodd" transform="translate(33.556 177.849)" />
      <path d="M0 13.661L6.01368 17.0873L14.447 3.4263L8.43328 0L0 13.661L0 13.661Z" fill="#E58A7B" fill-rule="evenodd" transform="translate(20.275 176.842)" />
      <path d="M10.6056 3.9473L5.69577 10.6056L0 6.65833L4.90984 0L10.6056 3.9473L10.6056 3.9473Z" fill="#CF6F64" fill-rule="evenodd" transform="translate(38.166 177.849)" />
      <path d="M4.34468 0L10.3672 3.4351L6.02251 10.4731L0 7.03802L4.34468 0L4.34468 0Z" fill="#CF6F64" fill-rule="evenodd" transform="translate(24.355 176.842)" />
      <path d="M22.2291 0C22.2291 0 44.4647 28.0197 40.2878 54.8207C36.9234 76.4647 17.4076 105.774 17.4076 105.774L8.23256 101.217C14.6997 88.2582 20.2186 74.8475 24.7459 61.0905C26.142 56.8194 26.5495 52.2869 25.9376 47.8353C25.3257 43.3837 23.7104 39.1293 21.2136 35.3933C17.223 29.5668 12.3817 27.0322 8.33225 24.9121C0.947628 21.0459 -3.80391 18.5583 4.038 0L22.2291 0L22.2291 0Z" fill="#4CAF4F" fill-rule="evenodd" transform="translate(16.131 79.616)" />
      <path d="M22.2291 0C22.2291 0 44.4647 28.0197 40.2878 54.8207C36.9234 76.4647 17.4076 105.774 17.4076 105.774L8.23256 101.217C14.6997 88.2582 20.2186 74.8475 24.7459 61.0905C26.142 56.8194 26.5495 52.2869 25.9376 47.8353C25.3257 43.3837 23.7104 39.1293 21.2136 35.3933C17.223 29.5668 12.3817 27.0322 8.33225 24.9121C0.947628 21.0459 -3.80391 18.5583 4.038 0L22.2291 0L22.2291 0Z" fill="#000000" fill-rule="evenodd" fill-opacity="0.6" transform="translate(16.131 79.616)" />
      <path d="M3.23202 3.21437L0 0C0 0.256088 6.26094 38.9079 8.01824 49.7696C9.05525 46.5966 9.84936 43.3493 10.3937 40.0559C12.4601 26.907 8.14187 13.4756 3.23202 3.21437L3.23202 3.21437Z" fill="#000000" fill-rule="evenodd" fill-opacity="0.4" transform="translate(46.034 94.399)" />
      <path d="M25.9975 0C25.9975 0 52.772 35.2167 53.5314 56.3308C54.1584 73.9921 24.3903 108.211 24.3903 108.211L15.7362 102.612C15.7362 102.612 33.1591 78.3103 37.548 58.459C35.8525 38.7843 0 0 0 0L25.9975 0L25.9975 0Z" fill="#4CAF4F" fill-rule="evenodd" transform="translate(22.289 79.616)" />
      <path d="M25.9975 0C25.9975 0 52.772 35.2167 53.5314 56.3308C54.1584 73.9921 24.3903 108.211 24.3903 108.211L15.7362 102.612C15.7362 102.612 33.1591 78.3103 37.548 58.459C35.8525 38.7843 0 0 0 0L25.9975 0L25.9975 0Z" fill="#000000" fill-rule="evenodd" fill-opacity="0.6" transform="translate(22.289 79.616)" />
      <path d="M5.60747 0.121498C2.74633 0.801456 0 11.204 0 11.204L11.1884 18.6747C11.1884 18.6747 14.915 10.4445 13.608 6.84163C12.257 3.0886 9.20154 -0.735077 5.60747 0.121498L5.60747 0.121498Z" fill="#4CAF4F" fill-rule="evenodd" transform="translate(9.555 37.47)" />
      <path d="M0.777102 0L0 9.06909L4.15925 11.8596C5.30768 9.27408 6.15795 6.56623 6.69364 3.78835L0.777102 0L0.777102 0Z" fill="#000000" fill-rule="evenodd" fill-opacity="0.2" transform="translate(16.575 44.294)" />
      <path d="M36.4353 2.00372C36.4353 2.00372 39.738 3.16054 33.1238 43.8169L4.98932 43.8169C5.46618 32.337 5.47501 25.2725 0 1.80062C3.93943 0.988773 7.93252 0.463448 11.9479 0.228764C16.2017 -0.0762558 20.472 -0.0762558 24.7258 0.228764C30.2185 0.732109 36.4353 2.00372 36.4353 2.00372L36.4353 2.00372Z" fill="#4CAF4F" fill-rule="evenodd" transform="translate(15.162 35.791)" />
      <path d="M6.69363 2.8523C7.32943 4.61843 8.00058 6.51702 8.70703 8.34497C9.41348 10.1729 10.0846 12.0538 10.7999 13.9083L12.5928 18.5038C12.8825 17.9055 13.1658 17.2867 13.4491 16.6634C14.2262 14.8973 14.9415 13.0694 15.6568 11.2238C16.372 9.37815 17.052 7.51488 17.7143 5.63395L19.7277 0L23.1275 0.883064C22.4564 4.90985 21.5909 8.83065 20.5489 12.8221C20.0456 14.809 19.4539 16.7782 18.7828 18.7651C18.4472 19.763 18.0763 20.752 17.6525 21.7676C17.2107 22.8697 16.6667 23.9282 16.0276 24.9289C15.7928 25.2658 15.533 25.5846 15.2505 25.8827C14.7996 26.3697 14.2523 26.7576 13.6434 27.0218C13.103 27.2538 12.5178 27.3624 11.9302 27.3397C11.272 27.3152 10.6308 27.1238 10.0669 26.7834C9.40169 26.3682 8.84953 25.7948 8.45976 25.1144C8.3273 24.8848 8.2125 24.6552 8.13303 24.4874L7.96524 24.1518L7.62969 23.463L6.95855 22.0943C6.07548 20.2575 5.19242 18.4031 4.42415 16.5398C3.65589 14.6765 2.84347 12.7868 2.08404 10.8882C1.3246 8.98961 0.644638 7.09101 0 5.0423L6.69363 2.8523L6.69363 2.8523ZM10.798 22.3622C10.7477 22.4169 10.7313 22.1021 11.7801 21.3683C11.476 21.725 11.1477 22.0573 10.798 22.3622L10.798 22.3622Z" fill="#E58A7B" fill-rule="evenodd" transform="translate(47.765 41.441)" />
      <path d="M8.23804 0.264599C11.6202 1.06819 15.4262 11.0645 15.4262 11.0645L5.36808 19.6214C5.36808 19.6214 -1.14012 8.72436 0.175644 5.13028C1.5444 1.38609 3.82271 -0.786251 8.23804 0.264599L8.23804 0.264599Z" fill="#4CAF4F" fill-rule="evenodd" transform="translate(43.36 37.53)" />
      <path d="M1.63931 2.94944L5.17158 0L7.6265 3.82366L5.81621 7.01153C5.81621 7.01153 2.93742 9.66073 0.394188 8.30964C-0.00946808 7.40233 -0.106285 6.38816 0.118408 5.42086C0.343102 4.45357 0.877052 3.58591 1.63931 2.94944L1.63931 2.94944Z" fill="#E58A7B" fill-rule="evenodd" transform="translate(67.452 35.331)" />
      <path d="M6.40223 0.00882721L6.1373 0.971363L0.547493 1.90741L0 0L6.40223 0.00882721L6.40223 0.00882721Z" fill="#E58A7B" fill-rule="evenodd" transform="translate(72.597 35.331)" />
      <path d="M10.0846 9.66074L0 3.14374L1.81029 0L13.14 6.96741L10.0846 9.66074L10.0846 9.66074Z" fill="#4CAF4F" fill-rule="evenodd" transform="translate(37.283 178.617)" />
      <path d="M2.59696 1.65157C1.71214 1.54346 0.861954 1.24197 0.106705 0.768494C0.0755329 0.757645 0.0485229 0.737366 0.0294018 0.710464C0.0102806 0.683563 0 0.651382 0 0.618378C0 0.585388 0.0102806 0.553177 0.0294018 0.526276C0.0485229 0.499374 0.0755329 0.479095 0.106705 0.468246C0.380455 0.379944 2.75591 -0.353012 3.44471 0.212158C3.52213 0.276505 3.58095 0.360367 3.6151 0.455078C3.64926 0.549774 3.6575 0.651886 3.63897 0.750839C3.6267 0.909821 3.57403 1.06302 3.48594 1.19592C3.39785 1.32884 3.27726 1.43703 3.13563 1.51025C2.97025 1.60052 2.78534 1.64903 2.59696 1.65157L2.59696 1.65157ZM0.61006 0.688934C1.71389 1.2688 2.59695 1.47719 3.02082 1.25975C3.11312 1.20728 3.19079 1.13144 3.24644 1.03944C3.30209 0.947464 3.33386 0.842392 3.33873 0.734253C3.33873 0.589279 3.33873 0.525833 3.25926 0.489594C2.88837 0.181549 1.56377 0.417114 0.592394 0.688934L0.61006 0.688934L0.61006 0.688934Z" fill="#263238" fill-rule="evenodd" transform="translate(27.639 191.819)" />
      <path d="M0.143652 2.71999C0.0970669 2.71933 0.0526314 2.70029 0.0200233 2.66701C0.00688362 2.64258 0 2.61528 0 2.58754C0 2.5598 0.00688362 2.5325 0.0200233 2.50806C0.0200233 2.42859 0.594013 0.512344 1.49474 0.0796356C1.60979 0.0271606 1.73477 0 1.86122 0C1.98767 0 2.11264 0.0271606 2.22769 0.0796356C2.3517 0.11879 2.45905 0.198303 2.53266 0.305527C2.60626 0.412735 2.64191 0.541473 2.6339 0.67128C2.57209 1.46603 0.956074 2.56104 0.214298 2.74648L0.143652 2.71999L0.143652 2.71999ZM1.8568 0.309219C1.77091 0.31189 1.68659 0.332977 1.60954 0.371033C1.06204 0.635956 0.611675 1.66913 0.390909 2.29611C1.16801 1.96938 2.23652 1.10397 2.27184 0.618286C2.27184 0.538818 2.27183 0.441696 2.06873 0.353378C2.00266 0.317841 1.93098 0.29393 1.8568 0.282715L1.8568 0.309219L1.8568 0.309219Z" fill="#263238" fill-rule="evenodd" transform="translate(27.664 189.929)" />
      <path d="M3.17356 2.34036C2.17569 2.34036 0.789284 1.05994 0.0298462 0.274002C0.0104408 0.246979 0 0.214539 0 0.181274C0 0.147995 0.0104408 0.115585 0.0298462 0.088562C0.0472794 0.0601044 0.0720673 0.0368652 0.101597 0.0213318C0.131126 0.00578308 0.164291 -0.0014801 0.197617 0.000259399C0.550842 0.000259399 3.61508 0.459442 4.04778 1.32484C4.09362 1.4024 4.1178 1.49086 4.1178 1.58095C4.1178 1.67104 4.09362 1.75946 4.04778 1.83702C3.9829 1.97179 3.88485 2.08788 3.76283 2.17438C3.6408 2.26086 3.49881 2.31493 3.35017 2.33153L3.17356 2.34036L3.17356 2.34036ZM0.612659 0.397614C1.72532 1.47496 2.70552 2.07545 3.26186 2.00481C3.35929 1.99207 3.45211 1.95563 3.53217 1.89865C3.61223 1.84167 3.67709 1.76595 3.72105 1.67807C3.74081 1.64789 3.75133 1.61259 3.75133 1.57652C3.75133 1.54045 3.74081 1.50514 3.72105 1.47496C3.49146 0.998108 1.85778 0.591888 0.612659 0.397614L0.612659 0.397614Z" fill="#263238" fill-rule="evenodd" transform="translate(39.664 194.945)" />
      <path d="M0.735344 1.91112C0.537132 1.91676 0.338871 1.90198 0.143692 1.86697C0.116432 1.8629 0.0907059 1.85178 0.0690308 1.83475C0.0473557 1.81772 0.0304794 1.79535 0.0200653 1.76984C0.00687408 1.74384 0 1.71509 0 1.68593C0 1.65678 0.00687408 1.62804 0.0200653 1.60204C0.0730476 1.54024 1.26519 0.10083 2.39551 0.00369263C2.71549 -0.0211792 3.03249 0.0802612 3.27858 0.286285C3.62297 0.586533 3.60532 0.85144 3.51701 1.01923C3.29624 1.61971 1.76853 1.91112 0.735344 1.91112L0.735344 1.91112ZM3.27858 0.877914C3.07595 1.3096 1.50225 1.63583 0.512768 1.58476C1.01536 0.979584 1.69061 0.541946 2.44849 0.330429C2.56891 0.317856 2.69063 0.330185 2.80608 0.366638C2.92153 0.403107 3.02826 0.462936 3.11962 0.542374C3.34922 0.736649 3.27858 0.877914 3.27858 0.877914L3.27858 0.877914Z" fill="#263238" fill-rule="evenodd" transform="translate(39.638 193.387)" />
      <path d="M10.7587 2.14288L3.27025 0.0235138C3.14117 -0.0155945 3.0022 -0.00566101 2.87998 0.0513763C2.75776 0.108414 2.66089 0.208542 2.60795 0.332596L0.0823765 6.0107C0.0230675 6.15611 -0.00477219 6.31245 0.000667572 6.46942C0.00610733 6.62637 0.044714 6.78043 0.113949 6.92139C0.183182 7.06236 0.281469 7.18707 0.402355 7.28732C0.523245 7.38759 0.66398 7.46111 0.815323 7.50308C3.46452 8.19186 4.73613 8.38615 8.02997 9.33102C10.061 9.89619 12.9575 10.9471 15.7568 11.7418C18.5561 12.5366 19.4922 9.80789 18.406 9.22507C13.4961 6.62886 13.1076 4.80972 11.7653 2.86697C11.5249 2.51517 11.1687 2.25891 10.7587 2.14288L10.7587 2.14288Z" fill="#4CAF4F" fill-rule="evenodd" transform="translate(17.288 189.552)" />
      <path d="M11.6302 4.52026L5.23678 0.104935C5.12838 0.0259857 4.99478 -0.010437 4.8613 0.00259399C4.72783 0.0156097 4.60378 0.077179 4.51268 0.175598L0.273958 4.73222C0.170664 4.85001 0.0936203 4.98839 0.0479507 5.13824C0.00227928 5.28809 -0.0109711 5.44595 0.00907707 5.60133C0.0291233 5.7567 0.0820103 5.90601 0.164223 6.03937C0.246433 6.17271 0.356092 6.28702 0.485899 6.37471C2.73772 7.88477 3.90336 8.49408 6.72034 10.4457C8.48647 11.6466 11.9039 14.3135 14.2882 15.9736C16.6725 17.6338 18.4474 15.3555 17.5997 14.4548C13.8025 10.4015 12.9724 7.85828 12.3455 5.55347C12.2366 5.13538 11.9832 4.76932 11.6302 4.52026L11.6302 4.52026Z" fill="#4CAF4F" fill-rule="evenodd" transform="translate(28.267 189.665)" />
      <path d="M11.524 8.85715L0 3.12605L1.19213 0L13.5021 6.04018L11.524 8.85715L11.524 8.85715Z" fill="#4CAF4F" fill-rule="evenodd" transform="translate(23.189 177.116)" />
      <path d="M0.993856 0.187805L0.0224781 2.73104C-0.0746574 2.92531 0.154943 3.12842 0.481676 3.12842L29.6935 3.12842C29.9496 3.12842 30.1615 3.00479 30.1792 2.84584L30.4264 0.320274C30.4264 0.152489 30.2233 0.00236511 29.9496 0.00236511L1.45304 0.00236511C1.36725 -0.00570679 1.28078 0.00692749 1.20088 0.0391922C1.12098 0.0714645 1.04998 0.122421 0.993856 0.187805L0.993856 0.187805Z" fill="#4CAF4F" fill-rule="evenodd" transform="translate(18.734 77.768)" />
      <path d="M0.993856 0.187805L0.0224781 2.73104C-0.0746574 2.92531 0.154943 3.12842 0.481676 3.12842L29.6935 3.12842C29.9496 3.12842 30.1615 3.00479 30.1792 2.84584L30.4264 0.320274C30.4264 0.152489 30.2233 0.00236511 29.9496 0.00236511L1.45304 0.00236511C1.36725 -0.00570679 1.28078 0.00692749 1.20088 0.0391922C1.12098 0.0714645 1.04998 0.122421 0.993856 0.187805L0.993856 0.187805Z" fill="#FFFFFF" fill-rule="evenodd" fill-opacity="0.4" transform="translate(18.734 77.768)" />
      <path d="M1.02484 3.62056L0.256575 3.62056C0.106453 3.62056 -0.00835419 3.54109 0.000476837 3.44395L0.362537 0.167786C0.362537 0.0794754 0.503828 0 0.653952 0L1.42221 0C1.57233 0 1.68714 0.0794754 1.67831 0.167786L1.31625 3.44395C1.30742 3.54109 1.17496 3.62056 1.02484 3.62056L1.02484 3.62056Z" fill="#4CAF4F" fill-rule="evenodd" transform="translate(23.304 77.524)" />
      <path d="M1.01601 3.62056L0.256573 3.62056C0.106453 3.62056 -0.00835419 3.54109 0.000476837 3.44395L0.35371 0.167786C0.35371 0.0794754 0.50383 0 0.65395 0L1.41339 0C1.56351 0 1.68713 0.0794754 1.66947 0.167786L1.31625 3.44395C1.2721 3.54109 1.17496 3.62056 1.01601 3.62056L1.01601 3.62056Z" fill="#4CAF4F" fill-rule="evenodd" transform="translate(41.327 77.524)" />
      <path d="M23.6573 3.42627C36.7229 3.42627 47.3147 2.65929 47.3147 1.71315C47.3147 0.766998 36.7229 0 23.6573 0C10.5917 0 0 0.766998 0 1.71315C0 2.65929 10.5917 3.42627 23.6573 3.42627L23.6573 3.42627Z" fill="#F5F5F5" fill-rule="evenodd" mix-blend-mode="multiply" transform="translate(0 227.265)" />
      <path d="M29.6929 114.913C25.5072 113.695 20.8623 112.132 18.0541 110.498C17.9746 110.445 17.8863 110.419 17.8069 110.374L17.8069 91.4238L26.2755 91.4238C26.9183 91.3857 27.5223 91.1035 27.964 90.6349C28.4057 90.1663 28.6518 89.5466 28.6518 88.9027C28.6518 88.2587 28.4057 87.639 27.964 87.1704C27.5223 86.7018 26.9183 86.4196 26.2755 86.3815L17.851 86.3815L17.851 0L12.7645 0L12.7645 86.3815L4.34893 86.3815C4.0053 86.3612 3.66113 86.4113 3.33757 86.5288C3.01401 86.6463 2.71789 86.8287 2.46739 87.0648C2.21689 87.3009 2.0173 87.5857 1.88088 87.9018C1.74446 88.2178 1.67409 88.5584 1.67409 88.9027C1.67409 89.2469 1.74446 89.5875 1.88088 89.9035C2.0173 90.2196 2.21689 90.5044 2.46739 90.7405C2.71789 90.9766 3.01401 91.159 3.33757 91.2766C3.66113 91.3941 4.0053 91.4441 4.34893 91.4238L12.7645 91.4238L12.7645 110.348C12.6851 110.348 12.6056 110.419 12.5261 110.472C9.67381 112.132 5.06421 113.695 0.878481 114.887C0.595728 114.972 0.352937 115.156 0.194057 115.405C0.0351763 115.654 -0.0292864 115.952 0.0123386 116.244C0.0539646 116.537 0.198926 116.805 0.420981 117C0.643035 117.194 0.927498 117.303 1.22288 117.306L29.3485 117.306C29.6308 117.287 29.8979 117.172 30.1053 116.979C30.3127 116.787 30.4479 116.529 30.4882 116.249C30.5285 115.969 30.4715 115.684 30.3268 115.441C30.182 115.198 29.9583 115.011 29.6929 114.913L29.6929 114.913Z" fill="#E0E0E0" fill-rule="evenodd" transform="translate(8.376 111.645)" />
      <path d="M35.9761 0L4.57428 0C2.04798 0 0 2.04797 0 4.57427L0 13.9083C0 16.4346 2.04798 18.4826 4.57428 18.4826L35.9761 18.4826C38.5024 18.4826 40.5504 16.4346 40.5504 13.9083L40.5504 4.57427C40.5504 2.04797 38.5024 0 35.9761 0L35.9761 0Z" fill="#4CAF4F" fill-rule="evenodd" transform="translate(3.391 102.85)" />
      <path d="M0 0L0 1.60719C0 2.93178 1.4394 4.00913 3.20553 4.00913L28.8144 4.00913C30.5806 4.00913 32.02 2.93178 32.02 1.60719L32.02 0L0 0L0 0Z" fill="#4CAF4F" fill-rule="evenodd" transform="translate(7.674 121.341)" />
      <path d="M0 0L0 1.60719C0 2.93178 1.4394 4.00913 3.20553 4.00913L28.8144 4.00913C30.5806 4.00913 32.02 2.93178 32.02 1.60719L32.02 0L0 0L0 0Z" fill="#FFFFFF" fill-rule="evenodd" fill-opacity="0.3" transform="translate(7.674 121.341)" />
    </g>
  </g>
</svg>