<?xml version="1.0" encoding="utf-8"?>
<svg width="22.274" height="22.274" viewBox="0 0 22.274 22.274" fill="none" xmlns="http://www.w3.org/2000/svg">
  <g transform="translate(-0 0)">
    <path d="M0 11.1371C0 4.98625 4.98625 0 11.1371 0C17.288 0 22.2742 4.98625 22.2742 11.1371C22.2742 17.288 17.288 22.2742 11.1371 22.2742C4.98625 22.2742 0 17.288 0 11.1371L0 11.1371Z" fill="#FFFFFF" fill-rule="evenodd" fill-opacity="0.1" />
    <path d="M11.8796 5.93156C11.8796 6.33325 11.8387 6.73439 11.7584 7.12541C11.68 7.50714 11.564 7.88191 11.4121 8.24017C11.2636 8.59209 11.0794 8.93122 10.8642 9.24748C10.6522 9.56175 10.4079 9.85659 10.1396 10.1253C9.87076 10.393 9.57492 10.6365 9.2608 10.8494C8.9435 11.0631 8.60388 11.247 8.25175 11.3962C7.89297 11.5474 7.51734 11.6633 7.13594 11.7414C6.7444 11.822 6.3418 11.8631 5.93953 11.8631C5.53695 11.8631 5.13437 11.822 4.74339 11.7414C4.36141 11.6633 3.9858 11.5474 3.6273 11.3962C3.2752 11.247 2.93525 11.0631 2.61795 10.8494C2.30383 10.6365 2.00799 10.393 1.7397 10.1253C1.47112 9.85659 1.22689 9.56175 1.01458 9.24748C0.800531 8.93122 0.616051 8.59207 0.466978 8.24017C0.314977 7.88191 0.198686 7.50712 0.120081 7.12541C0.040616 6.73439 0 6.33325 0 5.93156C0 5.52956 0.0405927 5.12756 0.120104 4.7374C0.198709 4.35567 0.315 3.98033 0.467002 3.62265C0.616074 3.27047 0.800554 2.93104 1.01461 2.61475C1.22692 2.30023 1.47115 2.00595 1.73972 1.73688C2.00801 1.46926 2.30385 1.22628 2.61797 1.0137C2.93527 0.799074 3.27522 0.615185 3.62732 0.465724C3.98582 0.31422 4.36141 0.198097 4.74341 0.120488C5.13439 0.0405574 5.53697 0 5.93955 0C6.34183 0 6.74441 0.0405574 7.13596 0.120488C7.51736 0.19812 7.89297 0.314244 8.25177 0.465724C8.60388 0.615162 8.94352 0.799074 9.26082 1.0137C9.57494 1.22628 9.87081 1.46926 10.1397 1.73688C10.408 2.00595 10.6522 2.30023 10.8642 2.61475C11.0794 2.93104 11.2636 3.27049 11.4121 3.62265C11.564 3.98033 11.68 4.35567 11.7584 4.7374C11.8387 5.12756 11.8796 5.52956 11.8796 5.93156L11.8796 5.93156ZM9.28952 2.12992C8.39646 1.34356 7.22383 0.86658 5.93951 0.86658C5.52735 0.86658 5.12738 0.916401 4.74423 1.0085C4.82021 1.11046 5.77302 2.37263 6.64053 3.96324C8.55455 3.24672 9.27703 2.14844 9.28952 2.12992L9.28952 2.12992ZM3.77519 1.34994C2.36063 2.01697 1.30487 3.31854 0.97567 4.88716L0.98055 4.8872C1.15397 4.88881 3.24889 4.90816 5.65873 4.26879C4.78078 2.71118 3.84278 1.44004 3.77519 1.34994L3.77519 1.34994ZM7.03098 4.71801C7.14871 4.95957 7.26272 5.20542 7.36799 5.4525C7.40542 5.54114 7.44197 5.62803 7.47763 5.71491C9.18705 5.50011 10.8717 5.85053 11.0044 5.87815C11.007 5.87869 11.009 5.8791 11.0104 5.87939C10.9988 4.67862 10.5686 3.57658 9.85688 2.7138C9.84731 2.72739 9.03373 3.90125 7.03098 4.71801L7.03098 4.71801ZM6.079 5.04879C3.46716 5.82959 0.960881 5.77341 0.870978 5.76995C0.869513 5.82439 0.866909 5.87709 0.866909 5.93155C0.866909 7.23282 1.35853 8.41913 2.16659 9.31613C2.16485 9.3135 3.55302 6.8543 6.29045 5.97037C6.35657 5.94836 6.42387 5.92865 6.49057 5.90954C6.36326 5.62167 6.2243 5.3332 6.079 5.04879L6.079 5.04879ZM8.77411 10.1323C9.9131 9.36479 10.722 8.14605 10.9477 6.73437C10.8433 6.70078 9.42408 6.25214 7.78677 6.51426C8.45214 8.34009 8.72247 9.82703 8.77411 10.1323L8.77411 10.1323ZM6.83635 6.74888C6.82505 6.75262 6.81375 6.75584 6.80271 6.75988C3.80979 7.80175 2.83241 9.90141 2.82184 9.92434C3.683 10.5931 4.76312 10.9965 5.93954 10.9965C6.64201 10.9965 7.31114 10.8537 7.91993 10.5951C7.84482 10.1526 7.55014 8.60133 6.83635 6.74888L6.83635 6.74888Z" fill="#FFFFFF" fill-rule="evenodd" transform="translate(5.197 5.197)" />
  </g>
</svg>