<?xml version="1.0" encoding="utf-8"?>
<svg width="22.274" height="22.274" viewBox="0 0 22.274 22.274" fill="none" xmlns="http://www.w3.org/2000/svg">
  <g>
    <path d="M0 11.1371C0 4.98625 4.98625 0 11.1371 0C17.288 0 22.2742 4.98625 22.2742 11.1371C22.2742 17.288 17.288 22.2742 11.1371 22.2742C4.98625 22.2742 0 17.288 0 11.1371L0 11.1371Z" fill="#FFFFFF" fill-rule="evenodd" fill-opacity="0.1" />
    <path d="M5.93849 0C4.32702 5.24521e-06 4.12449 0.00706482 3.49115 0.0358868C2.8588 0.0648432 2.42717 0.164955 2.0495 0.311842C1.65883 0.463556 1.32743 0.666501 0.997277 0.996782C0.666873 1.32694 0.463927 1.65833 0.311719 2.04888C0.16446 2.42668 0.0642247 2.85843 0.0357628 3.49053C0.00742483 4.12412 0 4.32669 0 5.93985C0 7.55302 0.00717735 7.75485 0.0358868 8.38844C0.0649672 9.02078 0.165078 9.45241 0.311842 9.83009C0.46368 10.2208 0.666625 10.5522 0.996906 10.8823C1.32694 11.2127 1.65833 11.4162 2.04875 11.5679C2.42668 11.7148 2.85843 11.8149 3.49065 11.8438C4.12424 11.8727 4.32657 11.8797 5.93961 11.8797C7.5529 11.8797 7.75473 11.8727 8.38831 11.8438C9.02066 11.8149 9.45278 11.7148 9.83071 11.5679C10.2213 11.4162 10.5522 11.2127 10.8822 10.8823C11.2126 10.5522 11.4155 10.2208 11.5677 9.83021C11.7138 9.45241 11.814 9.02066 11.8437 8.38856C11.8722 7.75497 11.8796 7.55302 11.8796 5.93985C11.8796 4.32669 11.8722 4.12424 11.8437 3.49065C11.814 2.85831 11.7138 2.42668 11.5677 2.049C11.4155 1.65833 11.2126 1.32694 10.8822 0.996782C10.5518 0.666377 10.2214 0.463432 9.83034 0.311842C9.45167 0.164955 9.01979 0.0648432 8.38745 0.0358868C7.7541 0.00706482 7.55231 5.24521e-06 5.94035 0L5.93849 0L5.93849 0ZM5.40747 1.07039C5.51094 1.07023 5.62224 1.07028 5.74235 1.07033C5.80583 1.07036 5.87177 1.07039 5.94032 1.07039C7.52627 1.07039 7.71424 1.07609 8.34052 1.10455C8.91966 1.13103 9.23397 1.2278 9.44335 1.3091C9.72055 1.41676 9.91817 1.54546 10.1259 1.75335C10.3338 1.96125 10.4625 2.15924 10.5704 2.43644C10.6517 2.64557 10.7486 2.95989 10.775 3.53902C10.8035 4.16518 10.8096 4.35328 10.8096 5.93848C10.8096 7.52368 10.8035 7.71177 10.775 8.33793C10.7485 8.91707 10.6517 9.23138 10.5704 9.44052C10.4628 9.71771 10.3338 9.91509 10.1259 10.1229C9.91805 10.3308 9.72067 10.4594 9.44335 10.5671C9.23422 10.6488 8.91966 10.7453 8.34052 10.7718C7.71436 10.8002 7.52627 10.8064 5.94032 10.8064C4.35426 10.8064 4.16629 10.8002 3.54013 10.7718C2.96099 10.7451 2.64667 10.6483 2.43717 10.567C2.15998 10.4593 1.96198 10.3306 1.75409 10.1227C1.54619 9.91484 1.4175 9.71734 1.30959 9.44002C1.22829 9.23089 1.13139 8.91657 1.10504 8.33744C1.07657 7.71128 1.07088 7.52318 1.07088 5.93699C1.07088 4.3508 1.07657 4.1637 1.10504 3.53754C1.13152 2.9584 1.22829 2.64408 1.30959 2.43471C1.41725 2.15751 1.54619 1.95952 1.75409 1.75162C1.96198 1.54373 2.15998 1.41503 2.43717 1.30712C2.64655 1.22545 2.96099 1.12893 3.54013 1.10232C4.08808 1.07757 4.30043 1.07015 5.40747 1.06891L5.40747 1.07039L5.40747 1.07039ZM9.11097 2.05666C8.71746 2.05666 8.39819 2.37556 8.39819 2.7692C8.39819 3.16271 8.71746 3.48198 9.11097 3.48198C9.50449 3.48198 9.82376 3.16271 9.82376 2.7692C9.82376 2.37568 9.50449 2.05666 9.11097 2.05666L9.11097 2.05666ZM5.94036 2.88948C4.25579 2.88948 2.89 4.25527 2.89 5.93984C2.89 7.62441 4.25579 8.98958 5.94036 8.98958C7.62493 8.98958 8.99023 7.62441 8.99023 5.93984C8.99023 4.25527 7.62493 2.88948 5.94036 2.88948L5.94036 2.88948ZM5.94034 3.95989C7.03377 3.95989 7.92029 4.84629 7.92029 5.93984C7.92029 7.03327 7.03377 7.91979 5.94034 7.91979C4.84679 7.91979 3.96039 7.03327 3.96039 5.93984C3.96039 4.84629 4.84679 3.95989 5.94034 3.95989L5.94034 3.95989Z" fill="#FFFFFF" fill-rule="evenodd" transform="translate(5.197 5.197)" />
  </g>
</svg>