<?xml version="1.0" encoding="utf-8"?>
<svg width="24" height="24" viewBox="0 0 24 24" fill="none" xmlns="http://www.w3.org/2000/svg">
  <g>
    <g transform="translate(2 2)">
      <path d="M18.97 2.57002C19.4782 1.04559 18.0279 -0.404703 16.5034 0.10344L1.33364 5.16004C-0.267279 5.69368 -0.480541 7.87096 0.986402 8.7051L6.4295 11.8002C6.78155 12.0004 7.07304 12.2918 7.27322 12.6439L10.3684 18.0871C11.2025 19.554 13.3798 19.3407 13.9134 17.7398L18.97 2.57002L18.97 2.57002ZM16.9778 1.52647C17.3296 1.40921 17.6643 1.74389 17.547 2.09568L12.4904 17.2655C12.3673 17.6349 11.8648 17.6841 11.6723 17.3456L8.57716 11.9024C8.24352 11.3157 7.7577 10.8299 7.17095 10.4962L1.72785 7.40116C1.38932 7.20866 1.43854 6.70621 1.80798 6.58307L16.9778 1.52647L16.9778 1.52647Z" fill="#717171" fill-rule="evenodd" transform="matrix(1 0 -0 1 0.983 -0.056)" />
      <path d="M0 0.749999C0 0.335785 0.335785 0 0.75 0L3.57843 0C3.99264 -9.53674e-07 4.32843 0.335785 4.32843 0.75C4.32843 1.16421 3.99264 1.5 3.57843 1.5L0.75 1.5C0.335786 1.5 0 1.16421 0 0.749999L0 0.749999Z" fill="#717171" fill-rule="evenodd" transform="matrix(0.707 -0.707 0.707 0.707 8.036 10.464)" />
    </g>
  </g>
</svg>