<?xml version="1.0" encoding="utf-8"?>
<svg width="22.274" height="22.274" viewBox="0 0 22.274 22.274" fill="none" xmlns="http://www.w3.org/2000/svg">
  <g>
    <path d="M0 11.1371C0 4.98625 4.98625 0 11.1371 0C17.288 0 22.2742 4.98625 22.2742 11.1371C22.2742 17.288 17.288 22.2742 11.1371 22.2742C4.98625 22.2742 0 17.288 0 11.1371L0 11.1371Z" fill="#FFFFFF" fill-rule="evenodd" fill-opacity="0.1" />
    <path d="M5.235 2.37012L5.25837 2.75549L4.86886 2.7083C3.45105 2.52741 2.21241 1.91397 1.16074 0.883693L0.646585 0.372489L0.514152 0.749993C0.233705 1.59151 0.412879 2.48022 0.997143 3.07794C1.30875 3.40825 1.23864 3.45544 0.701116 3.25883C0.514152 3.19591 0.350558 3.14872 0.334978 3.17231C0.280446 3.22737 0.467411 3.94305 0.615424 4.22618C0.817969 4.61941 1.23085 5.00478 1.68268 5.23286L2.0644 5.41375L1.61257 5.42161C1.17632 5.42161 1.16074 5.42948 1.20748 5.59464C1.36328 6.10584 1.97871 6.6485 2.66424 6.88444L3.14723 7.0496L2.72656 7.30127C2.10335 7.66304 1.37107 7.86753 0.638795 7.88326C0.288237 7.89112 0 7.92258 0 7.94617C0 8.02482 0.950402 8.46524 1.5035 8.63826C3.16281 9.14947 5.13373 8.92926 6.61386 8.05628C7.66554 7.43497 8.71721 6.20021 9.20799 5.00478C9.47286 4.36774 9.73772 3.20377 9.73772 2.64538C9.73772 2.28361 9.76109 2.23642 10.1973 1.80386C10.4544 1.55219 10.6959 1.27693 10.7427 1.19828C10.8206 1.04885 10.8128 1.04885 10.4155 1.18255C9.7533 1.41849 9.65982 1.38703 9.98701 1.03312C10.2285 0.781452 10.5167 0.325301 10.5167 0.191601C10.5167 0.168007 10.3999 0.207331 10.2675 0.278113C10.1272 0.356759 9.81563 0.47473 9.58192 0.545512L9.16125 0.679211L8.77953 0.419677C8.5692 0.278113 8.27317 0.120819 8.11737 0.0736313C7.72007 -0.0364742 7.11243 -0.0207453 6.75409 0.10509C5.78031 0.459 5.16489 1.3713 5.235 2.37012L5.235 2.37012Z" fill="#FFFFFF" fill-rule="evenodd" transform="translate(5.569 6.682)" />
  </g>
</svg>