<?xml version="1.0" encoding="utf-8"?>
<svg width="48" height="48" viewBox="0 0 48 48" fill="none" xmlns="http://www.w3.org/2000/svg">
  <g>
    <path d="M32 28L32 24C32 21.8783 31.1571 19.8434 29.6569 18.3431C28.1566 16.8429 26.1217 16 24 16L22 16C21.4696 16 20.9609 15.7893 20.5858 15.4142C20.2107 15.0391 20 14.5304 20 14L20 4C20 2.9391 19.5786 1.92172 18.8284 1.17157C18.0783 0.42143 17.0609 0 16 0C14.9391 0 13.9217 0.42143 13.1716 1.17157C12.4214 1.92172 12 2.9391 12 4L12 22L7.2 15.6C6.82741 15.1032 6.34428 14.7 5.78885 14.4223C5.23343 14.1446 4.62098 14 4 14L3.132 14C1.402 14 0 15.402 0 17.132C0 17.7 0.154 18.258 0.446 18.744L6 28L32 28L32 28Z" fill="#4CAF4F" fill-rule="evenodd" transform="translate(8 14)" />
    <path d="M18 1C18 0.447715 17.5523 0 17 0C16.4477 0 16 0.447715 16 1L16 3C16 3.55228 16.4477 4 17 4C17.5523 4 18 3.55228 18 3L18 1L18 1ZM6.97908 3.56489C6.58855 3.17437 5.95539 3.17437 5.56486 3.56489C5.17434 3.95542 5.17434 4.58858 5.56486 4.97911L6.97886 6.39311C7.36939 6.78363 8.00255 6.78363 8.39308 6.39311C8.7836 6.00258 8.7836 5.36942 8.39308 4.97889L6.97908 3.56489L6.97908 3.56489ZM28.435 4.97911C28.8255 4.58858 28.8255 3.95542 28.435 3.56489C28.0445 3.17437 27.4113 3.17437 27.0208 3.56489L25.6068 4.97889C25.2163 5.36942 25.2163 6.00258 25.6068 6.39311C25.9973 6.78363 26.6305 6.78363 27.021 6.39311L28.435 4.97911L28.435 4.97911ZM17 8C15.6739 8 14.4021 8.52678 13.4645 9.46447C12.5268 10.4022 12 11.6739 12 13L12 28L9 24C8.53427 23.379 7.93035 22.875 7.23607 22.5279C6.54179 22.1807 5.77623 22 5 22L4.132 22C1.84972 22 0 23.8497 0 26.132C0 26.8802 0.202728 27.6162 0.588524 28.2585L0.588823 28.259L6.14252 37.5145C6.42669 37.9881 7.04095 38.1416 7.51452 37.8575C7.98809 37.5733 8.14164 36.959 7.85748 36.4855L2.30348 27.2295L2.30318 27.229C2.10517 26.8994 2 26.5196 2 26.132C2 24.9543 2.95428 24 4.132 24L5 24C5.46574 24 5.92508 24.1084 6.34164 24.3167C6.75821 24.525 7.12056 24.8274 7.4 25.2L12.2 31.6C12.4583 31.9443 12.9079 32.0848 13.3162 31.9487C13.7246 31.8126 14 31.4304 14 31L14 13C14 12.2044 14.3161 11.4413 14.8787 10.8787C15.4413 10.3161 16.2044 10 17 10C17.7956 10 18.5587 10.3161 19.1213 10.8787C19.6839 11.4413 20 12.2044 20 13L20 23C20 23.7957 20.3161 24.5587 20.8787 25.1213C21.4413 25.6839 22.2043 26 23 26L25 26C26.8565 26 28.637 26.7375 29.9497 28.0503C31.2625 29.363 32 31.1435 32 33L32 37C32 37.5523 32.4477 38 33 38C33.5523 38 34 37.5523 34 37L34 33C34 30.6131 33.0518 28.3239 31.364 26.636C29.6761 24.9482 27.3869 24 25 24L23 24C22.7348 24 22.4804 23.8946 22.2929 23.7071C22.1054 23.5196 22 23.2652 22 23L22 13C22 11.6739 21.4732 10.4022 20.5355 9.46447C19.5979 8.52678 18.3261 8 17 8L17 8ZM3 14C2.44772 14 2 14.4477 2 15C2 15.5523 2.44772 16 3 16L5 16C5.55228 16 6 15.5523 6 15C6 14.4477 5.55228 14 5 14L3 14L3 14ZM29 14C28.4477 14 28 14.4477 28 15C28 15.5523 28.4477 16 29 16L31 16C31.5523 16 32 15.5523 32 15C32 14.4477 31.5523 14 31 14L29 14L29 14Z" fill="#4CAF4F" fill-rule="evenodd" transform="translate(7 5)" />
  </g>
</svg>