<?xml version="1.0" encoding="utf-8"?>
<svg width="48" height="48" viewBox="0 0 48 48" fill="none" xmlns="http://www.w3.org/2000/svg">
  <g>
    <path d="M0 6.75C0 4.95979 0.711159 3.2429 1.97703 1.97703C3.2429 0.711159 4.95979 0 6.75 0L35.25 0C37.0402 0 38.7571 0.711159 40.023 1.97703C41.2888 3.2429 42 4.95979 42 6.75L42 26.25C42 28.0402 41.2888 29.7571 40.023 31.023C38.7571 32.2888 37.0402 33 35.25 33L6.75 33C4.95979 33 3.2429 32.2888 1.97703 31.023C0.711159 29.7571 0 28.0402 0 26.25L0 6.75L0 6.75ZM6.75 3C5.75544 3 4.80161 3.39509 4.09835 4.09835C3.39509 4.80161 3 5.75544 3 6.75L3 9L39 9L39 6.75C39 5.75544 38.6049 4.80161 37.9016 4.09835C37.1984 3.39509 36.2446 3 35.25 3L6.75 3L6.75 3ZM3 26.25C3 27.2446 3.39509 28.1984 4.09835 28.9016C4.80161 29.6049 5.75544 30 6.75 30L35.25 30C36.2446 30 37.1984 29.6049 37.9016 28.9016C38.6049 28.1984 39 27.2446 39 26.25L39 12L3 12L3 26.25L3 26.25ZM28.5 21L33 21C33.3978 21 33.7794 21.158 34.0607 21.4393C34.342 21.7206 34.5 22.1022 34.5 22.5C34.5 22.8978 34.342 23.2794 34.0607 23.5607C33.7794 23.842 33.3978 24 33 24L28.5 24C28.1022 24 27.7206 23.842 27.4393 23.5607C27.158 23.2794 27 22.8978 27 22.5C27 22.1022 27.158 21.7206 27.4393 21.4393C27.7206 21.158 28.1022 21 28.5 21L28.5 21Z" fill="#4CAF4F" fill-rule="evenodd" transform="translate(3 7.5)" />
    <path d="M1.97703 1.97703C0.711159 3.2429 0 4.95979 0 6.75L0 26.25C0 28.0402 0.711159 29.7571 1.97703 31.023C3.2429 32.2888 4.95979 33 6.75 33L35.25 33C37.0402 33 38.7571 32.2888 40.023 31.023C41.2888 29.7571 42 28.0402 42 26.25L42 6.75C42 4.95979 41.2888 3.2429 40.023 1.97703C38.7571 0.711159 37.0402 0 35.25 0L6.75 0C4.95979 0 3.2429 0.711159 1.97703 1.97703L1.97703 1.97703ZM6.75 1C5.22501 1 3.76247 1.6058 2.68414 2.68414C1.6058 3.76247 1 5.22501 1 6.75L1 26.25C1 27.775 1.6058 29.2375 2.68414 30.3159C3.76247 31.3942 5.22501 32 6.75 32L35.25 32C36.775 32 38.2375 31.3942 39.3159 30.3159C40.3942 29.2375 41 27.775 41 26.25L41 6.75C41 5.22501 40.3942 3.76247 39.3159 2.68414C38.2375 1.6058 36.775 1 35.25 1L6.75 1L6.75 1ZM3.39124 3.39124C4.28204 2.50044 5.49022 2 6.75 2L35.25 2C36.5098 2 37.718 2.50044 38.6088 3.39124C39.4996 4.28204 40 5.49022 40 6.75L40 10L2 10L2 6.75C2 5.49022 2.50044 4.28204 3.39124 3.39124L3.39124 3.39124ZM4.09835 4.09835C4.80161 3.39509 5.75544 3 6.75 3L35.25 3C36.2446 3 37.1984 3.39509 37.9016 4.09835C38.6049 4.80161 39 5.75544 39 6.75L39 9L3 9L3 6.75C3 5.75544 3.39509 4.80161 4.09835 4.09835L4.09835 4.09835ZM2 11L40 11L40 26.25C40 27.5098 39.4996 28.718 38.6088 29.6088C37.718 30.4996 36.5098 31 35.25 31L6.75 31C5.49022 31 4.28204 30.4996 3.39124 29.6088C2.50044 28.718 2 27.5098 2 26.25L2 11L2 11ZM4.09835 28.9016C3.39509 28.1984 3 27.2446 3 26.25L3 12L39 12L39 26.25C39 27.2446 38.6049 28.1984 37.9016 28.9016C37.1984 29.6049 36.2446 30 35.25 30L6.75 30C5.75544 30 4.80161 29.6049 4.09835 28.9016L4.09835 28.9016ZM33 21L28.5 21C28.1022 21 27.7206 21.158 27.4393 21.4393C27.158 21.7206 27 22.1022 27 22.5C27 22.8978 27.158 23.2794 27.4393 23.5607C27.7206 23.842 28.1022 24 28.5 24L33 24C33.3978 24 33.7794 23.842 34.0607 23.5607C34.342 23.2794 34.5 22.8978 34.5 22.5C34.5 22.1022 34.342 21.7206 34.0607 21.4393C33.7794 21.158 33.3978 21 33 21L33 21ZM28.5 22C28.3674 22 28.2402 22.0527 28.1464 22.1464C28.0527 22.2402 28 22.3674 28 22.5C28 22.6326 28.0527 22.7598 28.1464 22.8536C28.2402 22.9473 28.3674 23 28.5 23L33 23C33.1326 23 33.2598 22.9473 33.3536 22.8536C33.4473 22.7598 33.5 22.6326 33.5 22.5C33.5 22.3674 33.4473 22.2402 33.3536 22.1464C33.2598 22.0527 33.1326 22 33 22L28.5 22L28.5 22Z" fill="#4CAF4F" fill-rule="evenodd" transform="translate(3 7.5)" />
  </g>
</svg>