<?xml version="1.0" encoding="utf-8"?>
<svg width="46.781" height="31.117" viewBox="0 0 46.781 31.117" fill="none" xmlns="http://www.w3.org/2000/svg">
  <path d="M23.4712 21.1828C25.3547 19.5983 26.7054 17.473 27.3402 15.0949C27.975 12.7168 27.8632 10.2011 27.0199 7.88867C26.1766 5.57629 24.6427 3.57915 22.626 2.16801C20.6094 0.756875 18.2075 0 15.7462 0C13.2849 0 10.883 0.756875 8.86637 2.16801C6.84971 3.57915 5.31575 5.57629 4.47247 7.88867C3.62919 10.2011 3.51736 12.7168 4.15217 15.0949C4.78697 17.473 6.13769 19.5983 8.0212 21.1828C4.96653 22.5652 2.33792 24.7406 0.408699 27.4828C0.0662956 27.9704 -0.0687493 28.5739 0.0331856 29.1609C0.135121 29.7479 0.465713 30.2705 0.95245 30.6141C1.3298 30.8838 1.78237 31.0281 2.2462 31.0266C2.60697 31.0276 2.96261 30.9412 3.28264 30.7746C3.60267 30.6081 3.87755 30.3664 4.0837 30.0703C5.3983 28.198 7.14438 26.6696 9.17433 25.6146C11.2043 24.5595 13.4584 24.0087 15.7462 24.0087C18.034 24.0087 20.2881 24.5595 22.3181 25.6146C24.348 26.6696 26.0941 28.198 27.4087 30.0703C27.5717 30.3279 27.7853 30.5497 28.0366 30.7222C28.2879 30.8947 28.5716 31.0144 28.8706 31.0739C29.1695 31.1335 29.4774 31.1317 29.7756 31.0686C30.0739 31.0055 30.3562 30.8825 30.6054 30.707C30.8546 30.5315 31.0656 30.3072 31.2255 30.0478C31.3854 29.7883 31.491 29.499 31.5357 29.1975C31.5804 28.8959 31.5634 28.5885 31.4857 28.2937C31.408 27.999 31.2713 27.7231 31.0837 27.4828C29.1545 24.7406 26.5259 22.5652 23.4712 21.1828L23.4712 21.1828ZM45.8212 30.6141C45.4438 30.8838 44.9912 31.0281 44.5275 31.0266C44.1673 31.0245 43.8126 30.9367 43.4931 30.7704C43.1736 30.6041 42.8983 30.3641 42.6898 30.0703C41.3725 28.2012 39.6257 26.6757 37.5962 25.6218C35.5668 24.5679 33.3142 24.0166 31.0275 24.0141C30.4307 24.0141 29.8584 23.777 29.4365 23.3551C29.0145 22.9331 28.7775 22.3608 28.7775 21.7641C28.7775 21.1673 29.0145 20.595 29.4365 20.1731C29.8584 19.7511 30.4307 19.5141 31.0275 19.5141C33.0166 19.5141 34.9241 18.7239 36.3307 17.3174C37.7373 15.9109 38.5275 14.0032 38.5275 12.0141C38.5275 10.025 37.7373 8.11731 36.3307 6.71079C34.9241 5.30427 33.0166 4.51409 31.0275 4.51409C30.3426 4.5128 29.6609 4.60747 29.0023 4.79534C28.7164 4.88064 28.4164 4.9082 28.1196 4.87642C27.8229 4.84463 27.5354 4.75414 27.274 4.6102C27.0126 4.46626 26.7824 4.27175 26.597 4.038C26.4114 3.80426 26.2743 3.53594 26.1933 3.24867C26.1126 2.9614 26.0897 2.66092 26.1261 2.36472C26.1625 2.06852 26.2575 1.78253 26.4055 1.52338C26.5534 1.26424 26.7516 1.03713 26.9881 0.855266C27.2248 0.673407 27.4951 0.540434 27.7837 0.464089C28.8386 0.163732 29.9305 0.0122662 31.0275 0.0140886C33.4903 0.00693607 35.8958 0.759028 37.916 2.16797C39.9361 3.57691 41.473 5.57422 42.3175 7.88798C43.1618 10.2017 43.2725 12.7195 42.6347 15.0984C41.9967 17.4774 40.6411 19.6019 38.7523 21.1828C41.807 22.5652 44.4356 24.7406 46.365 27.4828C46.5368 27.7234 46.6594 27.9957 46.7252 28.284C46.791 28.5724 46.7988 28.8709 46.7481 29.1622C46.6976 29.4536 46.5896 29.732 46.4305 29.9812C46.2713 30.2305 46.0642 30.4456 45.8212 30.6141L45.8212 30.6141ZM8.24622 12.0141C8.24622 10.5307 8.68609 9.08066 9.5102 7.84729C10.3343 6.61392 11.5056 5.65263 12.8761 5.08497C14.2465 4.51732 15.7545 4.36879 17.2094 4.65818C18.6642 4.94757 20.0006 5.66188 21.0495 6.71077C22.0984 7.75966 22.8127 9.09604 23.1021 10.5509C23.3915 12.0058 23.243 13.5138 22.6753 14.8842C22.1076 16.2547 21.1463 17.426 19.913 18.2501C18.6796 19.0742 17.2296 19.5141 15.7462 19.5141C13.7571 19.5141 11.8494 18.7239 10.4429 17.3174C9.0364 15.9109 8.24622 14.0032 8.24622 12.0141L8.24622 12.0141Z" fill="#4CAF4F" fill-rule="evenodd" />
</svg>