<?xml version="1.0" encoding="utf-8"?>
<svg width="48" height="48" viewBox="0 0 48 48" fill="none" xmlns="http://www.w3.org/2000/svg">
  <g>
    <g transform="translate(7.968 9)">
      <path d="M11.1408 -2.40078C10.9 -2.40078 10.6764 -2.46698 10.4778 -2.57347L10.4778 -2.57064C10.4778 -2.19181 10.3305 -1.83603 10.0634 -1.56957C9.79621 -1.3024 9.4407 -1.15515 9.0623 -1.15515C8.81798 -1.15515 8.59157 -1.223 8.39083 -1.33232C8.37057 -0.985758 8.23204 -0.661821 7.9849 -0.414417C7.71773 -0.147247 7.36222 0 6.98358 0C6.23129 0 5.62038 -0.591351 5.57635 -1.33256C5.34358 -1.20675 5.08042 -1.14078 4.80899 -1.15821C4.06895 -1.20675 3.4894 -1.84615 3.4894 -2.61423L3.4894 -8.98088L2.76444 -7.72492C2.48832 -7.24454 1.97144 -6.94628 1.41493 -6.94628C1.14376 -6.94628 0.875887 -7.01743 0.638645 -7.15337C0.343208 -7.32465 0.131877 -7.59959 0.0439949 -7.92851C-0.0443516 -8.25764 0.00135136 -8.60185 0.17216 -8.89684C0.172395 -8.89684 2.54415 -13.004 2.68884 -13.2563C2.70604 -13.2943 2.75505 -13.4043 2.79675 -13.498C2.83657 -13.5876 2.87073 -13.6795 2.90347 -13.7718C3.61873 -15.7911 5.38976 -17.0454 7.52569 -17.0454C10.2994 -17.0454 12.5559 -14.5985 12.5559 -11.5908L12.5561 -3.81648C12.5561 -3.43811 12.4091 -3.08259 12.1422 -2.81517C11.875 -2.548 11.5195 -2.40075 11.1407 -2.40075L11.1408 -2.40078L11.1408 -2.40078ZM7.52577 -16.2933C5.69044 -16.2933 4.22761 -15.2566 3.61248 -13.5203C3.57313 -13.41 3.53214 -13.2998 3.48431 -13.1923C3.34554 -12.8811 3.34554 -12.8811 3.30644 -12.8363L3.30125 -12.8408C3.10759 -12.4754 2.53226 -11.4791 0.823472 -8.52041C0.753263 -8.39908 0.734648 -8.25818 0.770462 -8.12343C0.806744 -7.98866 0.893682 -7.87511 1.01407 -7.80561C1.38773 -7.59098 1.89947 -7.72951 2.11243 -8.10057L3.53992 -10.572C3.62521 -10.7193 3.79767 -10.7916 3.96306 -10.7468C4.12751 -10.7028 4.24177 -10.5536 4.24177 -10.3835L4.24177 -2.61401C4.24177 -2.24743 4.51836 -1.93103 4.85835 -1.90865C5.05437 -1.89829 5.23719 -1.96402 5.37454 -2.10114C5.49941 -2.226 5.5682 -2.39233 5.5682 -2.57021L5.5682 -7.65159C5.5682 -7.85938 5.73666 -8.02784 5.94445 -8.02784C6.15225 -8.02784 6.3207 -7.85962 6.3207 -7.65159L6.32047 -1.41522C6.32047 -1.04957 6.61803 -0.752014 6.98367 -0.752014C7.16131 -0.752014 7.32811 -0.820807 7.45322 -0.945673C7.57809 -1.07077 7.64688 -1.23757 7.64688 -1.41522L7.64688 -7.65159C7.64688 -7.85939 7.8151 -8.02784 8.02313 -8.02784C8.23093 -8.02784 8.39938 -7.85962 8.39938 -7.65159L8.39915 -2.62866L8.39915 -2.57023C8.39915 -2.20482 8.69671 -1.90727 9.06259 -1.90727C9.23999 -1.90727 9.40633 -1.9763 9.53214 -2.10164C9.657 -2.22627 9.7258 -2.3926 9.7258 -2.57048L9.7258 -7.65185C9.7258 -7.85965 9.89402 -8.0281 10.1021 -8.0281C10.3099 -8.0281 10.4783 -7.85989 10.4783 -7.65185L10.4779 -3.81631C10.4779 -3.45042 10.7754 -3.15286 11.1408 -3.15286C11.3187 -3.15286 11.485 -3.22189 11.6099 -3.34652C11.7352 -3.47186 11.8038 -3.63867 11.8038 -3.81631L11.804 -11.5907C11.804 -14.1834 9.88483 -16.2932 7.52575 -16.2932L7.52577 -16.2933L7.52577 -16.2933Z" fill="#4CAF4F" fill-rule="evenodd" transform="matrix(1 0 0 -1 9.203 17.045)" />
      <path d="M6.98361 0C7.2845 -5.72205e-06 7.57079 -0.0930004 7.80975 -0.265268C7.87119 -0.309568 7.92951 -0.35911 7.98414 -0.413662L7.9849 -0.414417L7.98516 -0.414675C8.08643 -0.516106 8.16945 -0.630388 8.23355 -0.753815C8.28511 -0.853081 8.32444 -0.95826 8.35118 -1.06742C8.37229 -1.15356 8.38556 -1.24217 8.39083 -1.33232C8.56431 -1.23785 8.75696 -1.17434 8.96377 -1.15884C8.99627 -1.1564 9.02912 -1.15515 9.0623 -1.15515L9.06253 -1.15515C9.25101 -1.15518 9.43381 -1.19174 9.60283 -1.26146C9.6902 -1.2975 9.7739 -1.3424 9.8528 -1.39568C9.92739 -1.44607 9.9977 -1.50395 10.0628 -1.56894L10.0633 -1.56944L10.0634 -1.56955L10.0634 -1.56957C10.1848 -1.6907 10.2815 -1.8303 10.3508 -1.98212C10.434 -2.16422 10.4778 -2.36392 10.4778 -2.57048L10.4778 -2.57347C10.4796 -2.57252 10.4813 -2.57158 10.4831 -2.57064L10.4834 -2.57048C10.656 -2.47883 10.8473 -2.41763 11.0522 -2.40377C11.0814 -2.4018 11.1109 -2.40078 11.1407 -2.40078L11.1408 -2.40078L11.1408 -2.40077L11.1407 -2.40075L11.1408 -2.40075C11.3788 -2.40077 11.6076 -2.45892 11.8111 -2.56842C11.931 -2.63295 12.0421 -2.71532 12.1412 -2.81414L12.1417 -2.81464L12.1422 -2.81517C12.3896 -3.06309 12.534 -3.38674 12.5538 -3.73411C12.5553 -3.76136 12.5561 -3.78877 12.5561 -3.81629L12.5561 -3.81648L12.5559 -11.5906L12.5559 -11.5908C12.5559 -14.0211 11.0827 -16.0852 9.05379 -16.7882C8.5717 -16.9552 8.05823 -17.0454 7.52569 -17.0454C5.70514 -17.0454 4.1497 -16.1342 3.28714 -14.6147C3.13793 -14.3518 3.00946 -14.0708 2.90393 -13.7731L2.90349 -13.7718L2.90347 -13.7718L2.90335 -13.7715C2.87073 -13.6795 2.8367 -13.588 2.79707 -13.4987L2.7969 -13.4983L2.79677 -13.498L2.79675 -13.498C2.77364 -13.4461 2.74829 -13.3891 2.72734 -13.3422C2.71051 -13.3045 2.69653 -13.2733 2.68886 -13.2563L2.68884 -13.2563C2.6813 -13.2432 2.66772 -13.2195 2.64874 -13.1866C2.30529 -12.5904 0.195105 -8.93619 0.172345 -8.89715L0.17216 -8.89684L0.172029 -8.89662C0.00162983 -8.6022 -0.0441675 -8.25877 0.0435276 -7.93025L0.0439949 -7.92851L0.044157 -7.9279C0.0735521 -7.8181 0.116708 -7.71431 0.17216 -7.6184C0.181376 -7.60246 0.19093 -7.58674 0.200818 -7.57124C0.309339 -7.40117 0.457954 -7.25831 0.63778 -7.15387L0.638645 -7.15337L0.639188 -7.15306C0.876296 -7.01732 1.14397 -6.94628 1.41493 -6.94628C1.6779 -6.94628 1.93202 -7.01288 2.15607 -7.13382C2.40593 -7.26869 2.61839 -7.47115 2.76402 -7.72419L2.76444 -7.72492L2.76505 -7.72598L2.90838 -7.97429L3.4894 -8.98088L3.4894 -2.61401C3.48949 -2.00576 3.85302 -1.47824 4.37187 -1.261C4.50809 -1.20397 4.65503 -1.16832 4.8089 -1.15822L4.80899 -1.15821C4.81218 -1.158 4.81538 -1.15781 4.81857 -1.15763C4.88068 -1.15409 4.94234 -1.1549 5.00329 -1.15979C5.20538 -1.17601 5.39962 -1.23704 5.57635 -1.33256C5.58867 -1.12514 5.64539 -0.929447 5.73717 -0.755171C5.83662 -0.566341 5.97724 -0.402649 6.14717 -0.276402C6.38084 -0.1028 6.66992 0 6.98358 0L6.98361 0L6.98361 0ZM6.98367 -0.752014C7.16129 -0.752014 7.32808 -0.820793 7.45318 -0.945633L7.45322 -0.945673L7.45346 -0.945917C7.49046 -0.983023 7.52253 -1.02379 7.54934 -1.06742C7.57493 -1.10906 7.59572 -1.1533 7.61143 -1.19945C7.63063 -1.25584 7.64225 -1.31508 7.64575 -1.37589C7.6465 -1.38891 7.64688 -1.40201 7.64688 -1.41516L7.64688 -7.65162C7.64688 -7.67437 7.6489 -7.69664 7.65276 -7.71827C7.6842 -7.89426 7.83788 -8.02784 8.02313 -8.02784C8.20856 -8.02784 8.36266 -7.89388 8.39369 -7.71722C8.39741 -7.69599 8.39936 -7.67415 8.39938 -7.65185L8.39938 -7.65159L8.39934 -6.77131L8.39916 -2.84604L8.39915 -2.66358L8.39915 -2.62866L8.39915 -2.57023C8.39915 -2.47852 8.41789 -2.39108 8.45176 -2.31155C8.51078 -2.17294 8.61572 -2.05834 8.74741 -1.98699C8.81827 -1.9486 8.89686 -1.92272 8.98021 -1.91236C9.00713 -1.90901 9.03455 -1.90728 9.06236 -1.90727L9.06259 -1.90727C9.23981 -1.90727 9.40599 -1.97616 9.53175 -2.10125L9.53214 -2.10164L9.53246 -2.10196C9.62218 -2.19163 9.6829 -2.30286 9.70989 -2.42442C9.72039 -2.47168 9.72578 -2.5205 9.7258 -2.57023L9.7258 -7.65195C9.72581 -7.67426 9.72775 -7.69613 9.73148 -7.71738C9.76245 -7.89394 9.9164 -8.0281 10.1021 -8.0281C10.2838 -8.0281 10.4354 -7.89946 10.4706 -7.72803C10.4756 -7.70343 10.4783 -7.67796 10.4783 -7.65185L10.4782 -6.77152L10.4779 -4.08638L10.4779 -3.91424L10.4779 -3.81635L10.4779 -3.81631C10.4779 -3.56274 10.6207 -3.34198 10.8301 -3.23035C10.9 -3.19308 10.9773 -3.16797 11.0592 -3.15786C11.0859 -3.15456 11.1131 -3.15286 11.1408 -3.15286L11.1409 -3.15286C11.3187 -3.15289 11.485 -3.22191 11.6099 -3.34652L11.6099 -3.34655L11.6104 -3.34704C11.7158 -3.45276 11.781 -3.5879 11.7988 -3.73411C11.8021 -3.76112 11.8038 -3.7885 11.8038 -3.81614L11.8038 -3.81648L11.8038 -3.91635L11.8039 -7.65169L11.8039 -7.65185L11.8039 -7.81625L11.804 -11.5907L11.804 -11.5908C11.8039 -13.677 10.5614 -15.4505 8.84689 -16.0638C8.43076 -16.2127 7.98683 -16.2932 7.52612 -16.2932L7.52575 -16.2932L7.52577 -16.2933L7.5254 -16.2933C7.0071 -16.2933 6.51852 -16.2105 6.07036 -16.0527C5.1214 -15.7186 4.35364 -15.0478 3.86866 -14.1125C3.77174 -13.9256 3.68612 -13.7281 3.6126 -13.5206L3.61254 -13.5205L3.61254 -13.5205L3.61248 -13.5203L3.61246 -13.5203C3.57312 -13.41 3.53214 -13.2998 3.48433 -13.1923L3.48432 -13.1923L3.48431 -13.1923L3.4843 -13.1923C3.42901 -13.0683 3.39575 -12.9937 3.37327 -12.946C3.36284 -12.9239 3.35473 -12.9075 3.34782 -12.8947L3.34781 -12.8947C3.34538 -12.8902 3.34309 -12.8861 3.34091 -12.8824L3.3409 -12.8824C3.33228 -12.8677 3.3252 -12.8583 3.31666 -12.8481L3.30747 -12.8375L3.30644 -12.8363L3.30578 -12.8369L3.30125 -12.8408C3.2966 -12.832 3.29173 -12.8229 3.28663 -12.8134L3.28662 -12.8133C3.18569 -12.625 2.99453 -12.287 2.63253 -11.6566C2.57917 -11.5637 2.52211 -11.4644 2.46108 -11.3583C2.43841 -11.3189 2.41519 -11.2786 2.39141 -11.2373L2.3906 -11.2359C2.05461 -10.6523 1.60674 -9.87663 1.00973 -8.84292L0.964074 -8.76386L0.962249 -8.7607L0.823472 -8.52041L0.823184 -8.51991C0.753223 -8.39872 0.734703 -8.25804 0.770444 -8.1235L0.770462 -8.12343L0.770673 -8.12265C0.79436 -8.03519 0.839393 -7.9567 0.90106 -7.89342C0.933855 -7.85977 0.971354 -7.83042 1.01285 -7.80632L1.01407 -7.80561L1.01615 -7.80442C1.13941 -7.73415 1.27756 -7.70218 1.41499 -7.70419C1.59835 -7.70688 1.78042 -7.77006 1.92413 -7.8835L1.92502 -7.8842C1.96879 -7.91885 2.00899 -7.95818 2.04456 -8.00188C2.06945 -8.03246 2.09207 -8.06517 2.11207 -8.09994L2.11243 -8.10057L2.11275 -8.10112L2.15613 -8.17623L2.62089 -8.98088L2.83807 -9.35688L2.90844 -9.47871L3.09957 -9.80962L3.43104 -10.3835L3.53992 -10.572L3.53993 -10.572C3.55133 -10.5917 3.56429 -10.6101 3.57859 -10.627C3.67121 -10.7365 3.81977 -10.7856 3.96304 -10.7468L3.96306 -10.7468C4.12751 -10.7028 4.24177 -10.5536 4.24177 -10.3835L4.24177 -2.61401C4.24177 -2.59933 4.24221 -2.58472 4.24309 -2.57021C4.26401 -2.22294 4.53139 -1.93078 4.85726 -1.90872L4.85827 -1.90866L4.85835 -1.90865C4.90206 -1.90634 4.94512 -1.90781 4.98716 -1.91302C5.07049 -1.92334 5.14983 -1.94831 5.22241 -1.98755C5.27741 -2.01728 5.32853 -2.05521 5.37454 -2.10114C5.49941 -2.226 5.5682 -2.39233 5.5682 -2.57021L5.5682 -7.65162C5.5682 -7.67626 5.57057 -7.70036 5.5751 -7.72368C5.60873 -7.89699 5.76132 -8.02784 5.94445 -8.02784C6.12953 -8.02784 6.28339 -7.8944 6.31483 -7.71824C6.31869 -7.69661 6.3207 -7.67434 6.3207 -7.65159L6.32067 -6.77128L6.32054 -3.25035L6.32051 -2.57021L6.32047 -1.51L6.32047 -1.41522C6.32047 -1.40233 6.32084 -1.38953 6.32157 -1.37682C6.32512 -1.31485 6.33723 -1.25513 6.35672 -1.19883C6.44665 -0.939087 6.69374 -0.752028 6.98364 -0.752014L6.98367 -0.752014L6.98367 -0.752014Z" fill="#4CAF4F" fill-rule="evenodd" transform="matrix(1 0 0 -1 9.203 17.045)" />
      <path d="M5.56096 -9.95199L11.0207 -13.2273C11.6789 -13.6226 12.5259 -13.4546 12.9481 -12.8447C13.1022 -12.6225 13.1809 -12.3636 13.1931 -12.0999C13.3967 -12.2062 13.6181 -12.2639 13.8436 -12.2639C13.959 -12.2639 14.075 -12.2495 14.1895 -12.221C14.5563 -12.1294 14.8654 -11.9001 15.0598 -11.576C15.2544 -11.2513 15.3112 -10.8709 15.2195 -10.5045C15.1349 -10.1654 14.9288 -9.8801 14.6421 -9.68432C14.8426 -9.56606 15.0155 -9.40467 15.1385 -9.19923C15.3331 -8.87457 15.3899 -8.49429 15.2984 -8.12746C15.2068 -7.76111 14.9776 -7.45202 14.6529 -7.25715L14.651 -7.25597C14.848 -7.13794 15.0178 -6.9782 15.1394 -6.77582C15.3343 -6.45117 15.391 -6.0707 15.2994 -5.70388C15.2075 -5.33729 14.9783 -5.02819 14.6541 -4.83356L7.98769 -0.834263C6.7435 -0.088129 5.30515 0.169407 3.93822 -0.109781C2.55904 -0.391558 1.41683 -1.18432 0.722324 -2.34209C-0.37676 -4.17386 -0.212046 -6.33807 1.15135 -7.98986C1.21379 -8.06525 1.27527 -8.14206 1.33111 -8.22169C1.39025 -8.3058 1.45928 -8.40476 1.48284 -8.43868C1.60266 -8.65271 3.28069 -11.6758 3.78448 -12.5834C3.87403 -12.7447 3.92648 -12.8392 3.92648 -12.8392C4.15902 -13.2588 4.59487 -13.4963 5.04438 -13.4961C5.25407 -13.4961 5.46681 -13.4445 5.66307 -13.3356C5.90009 -13.2032 6.09917 -13.0102 6.23841 -12.7777C6.52466 -12.3006 6.53479 -11.7036 6.26526 -11.2204L5.56096 -9.95199L5.56096 -9.95199ZM5.59377 -12.3909C5.52074 -12.5127 5.42037 -12.6098 5.29762 -12.6786C5.04388 -12.819 4.72441 -12.7276 4.58472 -12.4748C2.93697 -9.50626 2.37527 -8.49463 2.15851 -8.13462L2.16345 -8.13344C2.14531 -8.07313 2.14531 -8.07313 1.94694 -7.78971C1.87956 -7.69382 1.80629 -7.6017 1.73161 -7.511C0.559236 -6.09056 0.42311 -4.30307 1.36713 -2.72908C1.95189 -1.75418 2.91833 -1.08579 4.08852 -0.846888C5.27144 -0.60634 6.51823 -0.83016 7.60037 -1.47945L14.2674 -5.47893C14.4196 -5.5701 14.527 -5.715 14.5699 -5.88675C14.6128 -6.05827 14.5862 -6.23661 14.4948 -6.3888C14.3068 -6.70215 13.8985 -6.8051 13.5851 -6.61639L10.2962 -4.64325C10.1181 -4.53629 9.88668 -4.59377 9.77995 -4.77212C9.67299 -4.95023 9.73071 -5.18136 9.90882 -5.28832L13.198 -7.26146L14.2662 -7.90228C14.4184 -7.99369 14.5261 -8.13859 14.569 -8.30987C14.6119 -8.48162 14.5852 -8.6602 14.4938 -8.81216C14.3056 -9.12574 13.8973 -9.22775 13.5842 -9.03974L9.22677 -6.42578C9.04819 -6.31858 8.81753 -6.37654 8.71057 -6.55465C8.60361 -6.73276 8.66157 -6.96388 8.83944 -7.07084L14.1873 -10.2789C14.3395 -10.3704 14.447 -10.515 14.4898 -10.6868C14.5327 -10.8583 14.5061 -11.0366 14.4149 -11.1888C14.3237 -11.3408 14.1788 -11.4482 14.0071 -11.4911C13.8344 -11.534 13.6568 -11.5073 13.505 -11.4164L12.5151 -10.8225L12.5146 -10.8222L12.5143 -10.8222L8.15717 -8.20827C7.97859 -8.10084 7.7477 -8.15879 7.64097 -8.33714C7.53402 -8.51525 7.59197 -8.74638 7.76985 -8.85333L12.1273 -11.4673C12.2795 -11.5587 12.3871 -11.7036 12.43 -11.8749C12.4771 -12.0629 12.4413 -12.2551 12.3296 -12.4163C12.136 -12.6964 11.7218 -12.7709 11.4078 -12.5821L4.74553 -8.58545C4.5997 -8.49828 4.41287 -8.51948 4.29059 -8.63752C4.16808 -8.75578 4.14051 -8.94167 4.22297 -9.09033L5.6083 -11.5863C5.74731 -11.8358 5.74189 -12.1439 5.5937 -12.3908L5.59377 -12.3909L5.59377 -12.3909Z" fill="#4CAF4F" fill-rule="evenodd" transform="matrix(1 0 0 -1 0 30)" />
      <path d="M7.98749 -0.834145L7.98743 -0.834108C6.7434 -0.0881557 5.30529 0.169346 3.93855 -0.109713L3.93822 -0.109781L3.93799 -0.109829C2.55891 -0.391647 1.41679 -1.18439 0.722324 -2.34209L0.722214 -2.34227L0.7222 -2.3423C-0.196667 -3.87386 -0.232056 -5.63781 0.57797 -7.14031C0.736588 -7.43453 0.927622 -7.71872 1.15079 -7.98918L1.15135 -7.98986C1.21361 -8.06504 1.27492 -8.14163 1.33064 -8.22102L1.33111 -8.22169L1.33145 -8.22218C1.36258 -8.26645 1.39641 -8.31478 1.4249 -8.35556C1.45046 -8.39216 1.47172 -8.42267 1.48284 -8.43868C1.49069 -8.45271 1.50524 -8.47881 1.52572 -8.51559C1.79085 -8.99188 3.04963 -11.2595 3.63095 -12.3068C3.68959 -12.4124 3.74134 -12.5057 3.78448 -12.5834C3.84719 -12.6964 3.89171 -12.7766 3.91276 -12.8145C3.92047 -12.8284 3.92504 -12.8366 3.92619 -12.8387L3.92648 -12.8392L3.92688 -12.8399C4.0335 -13.032 4.18274 -13.1859 4.35639 -13.2962C4.56165 -13.4266 4.80101 -13.4962 5.04438 -13.4961C5.25354 -13.4961 5.46574 -13.4448 5.66159 -13.3364L5.66307 -13.3356L5.66513 -13.3344C5.90121 -13.2021 6.09952 -13.0096 6.23835 -12.7778L6.23841 -12.7777L6.23849 -12.7776L6.2385 -12.7775C6.37374 -12.5521 6.44732 -12.2999 6.45887 -12.0455C6.46337 -11.9465 6.45846 -11.8472 6.44413 -11.749L6.44411 -11.7488C6.41741 -11.5659 6.35801 -11.3869 6.26577 -11.2213L6.26528 -11.2204L6.26526 -11.2204L6.26517 -11.2202L6.12508 -10.9679L5.56096 -9.95199L6.55814 -10.5502L6.99595 -10.8128L6.99759 -10.8138L7.69746 -11.2337L11.0202 -13.227L11.0206 -13.2273L11.0207 -13.2273C11.5427 -13.5408 12.1834 -13.5 12.6369 -13.1655C12.7551 -13.0782 12.8606 -12.971 12.948 -12.8449L12.9481 -12.8447L12.9481 -12.8447L12.9485 -12.8442C12.9856 -12.7906 13.0184 -12.7348 13.0469 -12.6774C13.1364 -12.4969 13.1839 -12.2998 13.1931 -12.0999C13.3747 -12.1947 13.5705 -12.2509 13.7707 -12.2619C13.7949 -12.2632 13.8193 -12.2639 13.8436 -12.2639C13.9586 -12.2639 14.0742 -12.2496 14.1883 -12.2213L14.1892 -12.2211L14.1892 -12.2211L14.1894 -12.221L14.1895 -12.221C14.2581 -12.2039 14.3246 -12.1819 14.3888 -12.1555C14.6679 -12.0404 14.9017 -11.8395 15.0598 -11.576L15.0599 -11.5759L15.0602 -11.5754C15.2154 -11.3161 15.2828 -11.0213 15.2569 -10.7266C15.2504 -10.6524 15.2379 -10.5782 15.2195 -10.5046L15.2195 -10.5045L15.2195 -10.5045L15.2195 -10.5043C15.1847 -10.3651 15.1294 -10.2348 15.0565 -10.1162C14.9519 -9.94604 14.811 -9.79965 14.6421 -9.68432C14.8149 -9.58238 14.9673 -9.44839 15.0848 -9.28177C15.1035 -9.25527 15.1213 -9.22795 15.1382 -9.19979L15.1385 -9.19923L15.1385 -9.19921C15.2349 -9.03836 15.2975 -8.86387 15.325 -8.68412C15.3394 -8.58981 15.3442 -8.49405 15.3391 -8.39805C15.3343 -8.30781 15.3208 -8.21736 15.2985 -8.12772L15.2984 -8.12746L15.2983 -8.12725C15.2567 -7.96072 15.1866 -7.80602 15.092 -7.66851C14.9787 -7.50376 14.8302 -7.36368 14.6534 -7.25748L14.6534 -7.25747L14.6531 -7.25727L14.6531 -7.25727L14.6529 -7.25715L14.651 -7.25599L14.651 -7.25597L14.6511 -7.25593C14.6524 -7.25513 14.6537 -7.25432 14.6551 -7.25352L14.6552 -7.25343L14.6555 -7.25327L14.6555 -7.25325L14.6562 -7.25283L14.6562 -7.25281C14.8262 -7.15008 14.9757 -7.01613 15.0911 -6.85036C15.1079 -6.82624 15.124 -6.80144 15.1393 -6.77597L15.1394 -6.77582L15.1395 -6.77569C15.2536 -6.5855 15.3204 -6.37616 15.3376 -6.16164L15.338 -6.15682C15.3391 -6.14285 15.3399 -6.12886 15.3406 -6.11485C15.347 -5.97857 15.3335 -5.84062 15.2996 -5.70455L15.2995 -5.70431L15.2994 -5.70388C15.2075 -5.33739 14.9784 -5.02835 14.6544 -4.83371L14.6541 -4.83356L14.654 -4.83348L7.98769 -0.834263L7.98749 -0.834145L7.98749 -0.834145ZM10.8444 -3.42552L7.60072 -1.47966L7.60061 -1.4796L7.60037 -1.47945C6.51833 -0.830223 5.27167 -0.606382 4.08885 -0.846821L4.0888 -0.84683L4.08852 -0.846888C2.91839 -1.08578 1.95199 -1.75411 1.36722 -2.72892L1.36718 -2.72899L1.36713 -2.72908L1.36713 -2.72908C0.541754 -4.10525 0.54208 -5.64463 1.33876 -6.9592C1.45308 -7.14782 1.58379 -7.33181 1.73081 -7.51003L1.73159 -7.51099L1.73161 -7.511C1.80612 -7.6015 1.87923 -7.69341 1.94649 -7.78907L1.94694 -7.78971L1.94705 -7.78988C2.02312 -7.89856 2.07 -7.96554 2.09992 -8.01023C2.11822 -8.03756 2.13017 -8.05655 2.13857 -8.07165C2.14223 -8.07821 2.14521 -8.08404 2.14775 -8.08949L2.14776 -8.08952C2.15451 -8.104 2.15815 -8.11585 2.16299 -8.13192L2.16345 -8.13344L2.15851 -8.13462L2.15866 -8.13489C2.16144 -8.1395 2.16427 -8.14421 2.16716 -8.14904C2.27803 -8.3342 2.47433 -8.68043 2.84369 -9.34209C2.89083 -9.42654 2.94079 -9.51613 2.99375 -9.61118C3.01605 -9.6512 3.03888 -9.69219 3.06226 -9.73417L3.06243 -9.73447C3.36975 -10.2863 3.77135 -11.0095 4.29813 -11.9585C4.3274 -12.0112 4.35706 -12.0647 4.38711 -12.1188C4.39359 -12.1305 4.40009 -12.1422 4.40661 -12.1539C4.42057 -12.1791 4.43461 -12.2044 4.44874 -12.2298L4.44979 -12.2317C4.49196 -12.3077 4.53489 -12.3851 4.57859 -12.4638C4.58058 -12.4674 4.58257 -12.471 4.58457 -12.4745L4.58472 -12.4748C4.58985 -12.4841 4.59523 -12.4932 4.60085 -12.502C4.67279 -12.6156 4.7827 -12.6927 4.90484 -12.726C4.95 -12.7383 4.99683 -12.7446 5.04404 -12.7445L5.04444 -12.7445C5.07499 -12.7444 5.1057 -12.7417 5.13621 -12.7362L5.13626 -12.7362L5.13653 -12.7361C5.19115 -12.7262 5.24514 -12.7075 5.29645 -12.6793L5.29762 -12.6786L5.29848 -12.6781C5.42065 -12.6095 5.5206 -12.5127 5.59343 -12.3915L5.59371 -12.391L5.59374 -12.391L5.59377 -12.3909L5.59374 -12.3909L5.5937 -12.3908C5.69116 -12.2284 5.72687 -12.0396 5.70034 -11.8583L5.69997 -11.8558C5.69179 -11.8011 5.67795 -11.7472 5.65844 -11.6949C5.64465 -11.6579 5.62803 -11.6218 5.60858 -11.5868L5.60857 -11.5868L5.6083 -11.5863L5.60828 -11.5863L5.60786 -11.5855L5.60785 -11.5855L5.56581 -11.5098L5.11442 -10.6965L4.90375 -10.3169L4.83578 -10.1945L4.65035 -9.86036L4.32927 -9.28186L4.32854 -9.28054L4.22297 -9.09033C4.21199 -9.07055 4.20296 -9.0501 4.19585 -9.02924C4.14953 -8.89339 4.18438 -8.74004 4.29059 -8.63752C4.41287 -8.51948 4.5997 -8.49828 4.74553 -8.58545L4.93155 -8.69705L4.93176 -8.69718L5.50024 -9.0382L5.82817 -9.23493L5.94805 -9.30684L6.32051 -9.53028L6.95218 -9.90922L7.08648 -9.98979L7.08766 -9.9905L7.11735 -10.0083L11.3616 -12.5544L11.4077 -12.5821L11.4078 -12.5821L11.4078 -12.5821L11.4081 -12.5823C11.4203 -12.5896 11.4326 -12.5965 11.445 -12.6031L11.4457 -12.6034C11.7544 -12.7646 12.1435 -12.6853 12.3295 -12.4164L12.3295 -12.4164L12.3296 -12.4163L12.3296 -12.4163L12.3299 -12.4159L12.3299 -12.4159C12.3547 -12.38 12.3757 -12.3426 12.3929 -12.3041C12.4144 -12.2562 12.4299 -12.2064 12.4393 -12.1556L12.4397 -12.1537L12.4397 -12.1535C12.445 -12.1244 12.4483 -12.095 12.4496 -12.0654C12.4523 -12.0023 12.4459 -11.9384 12.43 -11.8749L12.4299 -11.8749C12.3871 -11.7038 12.2797 -11.5591 12.1279 -11.4677L12.1273 -11.4673L12.1273 -11.4673L12.1273 -11.4673L12.1272 -11.4673L12.0908 -11.4454L12.09 -11.4449L12.0105 -11.3973L11.8943 -11.3276L8.5247 -9.30616L7.77009 -8.85348L7.76985 -8.85333L7.76931 -8.85301C7.74801 -8.84016 7.72844 -8.82552 7.71067 -8.80941C7.58036 -8.69128 7.54694 -8.49372 7.64097 -8.33714C7.73613 -8.17812 7.93 -8.11482 8.09748 -8.17911C8.11741 -8.18676 8.13696 -8.19622 8.15593 -8.20753L8.15691 -8.20811L8.15712 -8.20824L8.15717 -8.20827L8.15758 -8.20852L8.91205 -8.66115L11.934 -10.4741L12.5142 -10.8222L12.5143 -10.8222L12.5146 -10.8222L12.5147 -10.8223L12.5147 -10.8223L12.515 -10.8225L12.5151 -10.8225L13.4232 -11.3674L13.5043 -11.416L13.5049 -11.4164L13.505 -11.4164L13.505 -11.4164C13.5165 -11.4233 13.528 -11.4298 13.5398 -11.4359C13.5938 -11.4641 13.6506 -11.4845 13.709 -11.4969C13.7532 -11.5062 13.7982 -11.511 13.8437 -11.5111C13.898 -11.5112 13.9527 -11.5046 14.007 -11.4911L14.0071 -11.4911L14.0071 -11.4911L14.0077 -11.4909C14.179 -11.448 14.3235 -11.3408 14.4146 -11.1892L14.4147 -11.1891L14.4149 -11.1888C14.506 -11.0367 14.5326 -10.8585 14.4898 -10.687L14.4898 -10.687L14.4898 -10.6868L14.4897 -10.6868L14.4897 -10.6866L14.4897 -10.6865C14.4649 -10.5871 14.4183 -10.4967 14.354 -10.4205C14.3158 -10.3753 14.2713 -10.335 14.2213 -10.3007C14.2102 -10.2932 14.199 -10.286 14.1874 -10.279L14.1873 -10.2789L14.1873 -10.2789L14.1873 -10.2789L14.1869 -10.2787L14.1058 -10.2301L13.3137 -9.7549L13.3136 -9.75484L13.1974 -9.6851L13.1971 -9.68494L13.1968 -9.68477L13.1968 -9.68472L13.0808 -9.61515L13.0804 -9.61491L12.8707 -9.48914L12.6119 -9.3339L9.59442 -7.52374L8.84089 -7.07172L8.83969 -7.071L8.83953 -7.0709L8.83951 -7.07089L8.83944 -7.07084C8.82029 -7.05933 8.80252 -7.04637 8.78621 -7.0322C8.651 -6.91473 8.61512 -6.71359 8.71057 -6.55465C8.80589 -6.39592 8.99947 -6.33261 9.16687 -6.3966C9.18704 -6.40431 9.20683 -6.41387 9.22602 -6.42533L9.2265 -6.42562L9.22654 -6.42565L9.22676 -6.42578L9.22717 -6.42603L9.98164 -6.87862L12.5157 -8.39878L13.3494 -8.89889L13.5014 -8.99011L13.5833 -9.03923L13.5839 -9.03959L13.5842 -9.03974C13.7996 -9.16909 14.06 -9.16117 14.2629 -9.0415L14.2629 -9.0415C14.3325 -9.00046 14.3953 -8.94629 14.4471 -8.88C14.4637 -8.85888 14.4791 -8.83654 14.4933 -8.81299L14.4935 -8.81257L14.4938 -8.81216L14.4938 -8.81214C14.5851 -8.66021 14.6118 -8.48168 14.569 -8.30997L14.569 -8.30987L14.5688 -8.30932C14.5379 -8.1862 14.4734 -8.07674 14.383 -7.99101C14.3481 -7.95784 14.3092 -7.92822 14.2669 -7.90273L14.2664 -7.90244L14.2662 -7.9023L14.2662 -7.90228L14.2658 -7.90209L14.2542 -7.89512L14.2523 -7.894L14.2523 -7.89399L14.1824 -7.85207L13.1981 -7.26153L13.198 -7.26148L13.198 -7.26146L13.1969 -7.26085L12.6233 -6.91675L10.6638 -5.74125L9.90934 -5.28864L9.90905 -5.28847L9.90878 -5.2883C9.88948 -5.27671 9.87159 -5.26366 9.85518 -5.24937C9.72012 -5.13186 9.68458 -4.93092 9.77994 -4.77212C9.87383 -4.61524 10.0641 -4.55188 10.2298 -4.61169C10.2524 -4.61985 10.2745 -4.63029 10.2959 -4.6431L10.2961 -4.64324L10.2962 -4.64325L10.2962 -4.64327L13.3549 -6.47832L13.5037 -6.56759L13.585 -6.61633L13.585 -6.61636L13.585 -6.61637L13.5851 -6.61639L13.5851 -6.61641L13.5857 -6.61679C13.8025 -6.74696 14.0645 -6.73778 14.2676 -6.61608C14.3357 -6.57524 14.3972 -6.52174 14.4482 -6.45658C14.4649 -6.43525 14.4804 -6.41266 14.4947 -6.38886L14.4947 -6.38883L14.4948 -6.3888L14.4949 -6.38859C14.5862 -6.23644 14.6127 -6.05819 14.5699 -5.88675L14.5697 -5.88621C14.5269 -5.71546 14.4203 -5.57129 14.2694 -5.48015L14.2675 -5.479L14.2674 -5.47893L14.2671 -5.47878L14.2669 -5.47864L14.1848 -5.42941L10.9789 -3.50623L10.9784 -3.50593L10.8444 -3.42552L10.8444 -3.42552Z" fill="#4CAF4F" fill-rule="evenodd" transform="matrix(1 0 0 -1 0 30)" />
      <path d="M14.6203 -2.34187C13.926 -1.18393 12.7841 -0.391361 11.4046 -0.109581C10.0375 0.169132 8.59961 -0.0879059 7.35517 -0.834061L0.688166 -4.83354C0.363749 -5.02815 0.134275 -5.33725 0.0423946 -5.70434C-0.0487823 -6.07069 0.00823212 -6.4512 0.202597 -6.77538C0.323929 -6.978 0.494028 -7.13773 0.691229 -7.25576L0.689344 -7.25694C0.364925 -7.45155 0.135454 -7.76065 0.0440559 -8.12726C-0.0478249 -8.49385 0.00918579 -8.8746 0.203789 -9.1992C0.329124 -9.4077 0.500877 -9.57074 0.696896 -9.68642C0.412291 -9.8822 0.207323 -10.1666 0.12298 -10.504C0.0310993 -10.8708 0.0881138 -11.2513 0.282715 -11.5755C0.477085 -11.8999 0.786425 -12.1291 1.15303 -12.2208C1.26753 -12.2495 1.38368 -12.2637 1.49866 -12.2637C1.72436 -12.2634 1.94582 -12.2062 2.14937 -12.0997C2.16186 -12.3633 2.24031 -12.6222 2.39439 -12.8444C2.81682 -13.4539 3.66308 -13.6226 4.3223 -13.227L9.78184 -9.95221L9.07811 -11.2198C8.80811 -11.7037 8.81801 -12.3007 9.10426 -12.778C9.24373 -13.0103 9.44305 -13.2033 9.68123 -13.3368C9.87702 -13.4452 10.0891 -13.4966 10.2982 -13.4966C10.7475 -13.4963 11.1839 -13.2593 11.4161 -12.8397C12.2257 -11.3811 13.7533 -8.63027 13.8607 -8.43823C13.8835 -8.40501 13.9526 -8.30606 14.0117 -8.22196C14.068 -8.14209 14.1288 -8.06576 14.1917 -7.98989C15.5549 -6.33743 15.7193 -4.17346 14.6203 -2.34187L14.6203 -2.34187ZM13.6113 -7.51041C13.5363 -7.60111 13.4628 -7.6937 13.3959 -7.78912C13.1924 -8.07796 13.1872 -8.0855 13.1719 -8.16113C12.9339 -8.55481 12.3534 -9.5999 10.7577 -12.4747C10.6178 -12.7271 10.2997 -12.8192 10.0465 -12.6792C9.92181 -12.6095 9.82168 -12.5122 9.74865 -12.3904C9.60069 -12.1437 9.59504 -11.8355 9.73475 -11.5853L11.1196 -9.0901C11.2023 -8.9412 11.1747 -8.75555 11.0525 -8.63728C10.9304 -8.51878 10.7438 -8.49804 10.5973 -8.58522L3.93509 -12.5819C3.62104 -12.7702 3.20711 -12.6964 3.01297 -12.4161C2.90129 -12.2549 2.86572 -12.0627 2.91236 -11.8749C2.95524 -11.7034 3.06291 -11.5587 3.21534 -11.4673L3.21652 -11.4664L7.57251 -8.85312C7.75062 -8.74616 7.80834 -8.51527 7.70138 -8.33692C7.59442 -8.15905 7.36376 -8.10085 7.18518 -8.20805L1.83735 -11.4162C1.68562 -11.5071 1.50704 -11.534 1.33552 -11.4909C1.16353 -11.448 1.01888 -11.3405 0.927702 -11.1881C0.836292 -11.0362 0.809904 -10.8578 0.85231 -10.6863C0.895189 -10.5148 1.00286 -10.3699 1.15505 -10.2785L2.1957 -9.65435L6.50265 -7.0703C6.68076 -6.96334 6.73849 -6.73245 6.63152 -6.5541C6.52456 -6.37622 6.29391 -6.31826 6.11533 -6.42523L1.75843 -9.0392C1.44509 -9.22767 1.03703 -9.12543 0.848549 -8.81161C0.757139 -8.65942 0.730751 -8.48107 0.773157 -8.30955C0.816036 -8.13803 0.923706 -7.99338 1.07614 -7.90173L2.14434 -7.26091L5.43303 -5.28777C5.61114 -5.18081 5.66887 -4.94992 5.5619 -4.77157C5.45494 -4.5937 5.22429 -4.53526 5.04571 -4.6427L1.75702 -6.61584C1.60529 -6.70678 1.42742 -6.73364 1.25496 -6.69053C1.08344 -6.64765 0.938311 -6.54022 0.847136 -6.38826C0.75596 -6.23606 0.72934 -6.05748 0.771746 -5.8862C0.814625 -5.71468 0.922293 -5.57003 1.07472 -5.47838L7.74173 -1.4789C8.82362 -0.829809 10.0713 -0.605083 11.2536 -0.846336C12.4235 -1.08523 13.39 -1.75363 13.9747 -2.72853C14.9197 -4.30282 14.7838 -6.0905 13.6117 -7.51045L13.6113 -7.51041L13.6113 -7.51041Z" fill="#4CAF4F" fill-rule="evenodd" transform="matrix(1 0 0 -1 17.03 30)" />
      <path d="M7.35494 -0.8342L0.688166 -4.83354L0.687967 -4.83366L0.687328 -4.83404C0.363483 -5.0286 0.13438 -5.33732 0.0425053 -5.7039L0.0423946 -5.70434L0.0420914 -5.70555C0.00845909 -5.84119 -0.00486565 -5.97877 0.00156975 -6.11469C0.00222969 -6.12864 0.00309753 -6.14257 0.00417328 -6.15648L0.00455475 -6.16128C0.0218735 -6.3756 0.0884686 -6.58478 0.202164 -6.77466L0.202427 -6.7751L0.202597 -6.77538C0.217918 -6.80096 0.234016 -6.82587 0.250849 -6.85009C0.366093 -7.01591 0.515743 -7.14979 0.685799 -7.25249L0.687031 -7.25324L0.687145 -7.25331L0.687174 -7.25332C0.688524 -7.25414 0.689877 -7.25495 0.691229 -7.25576L0.689344 -7.25694L0.689329 -7.25695L0.688702 -7.25732C0.512003 -7.36345 0.363499 -7.50355 0.25017 -7.66841C0.155647 -7.80592 0.0855923 -7.96065 0.0440559 -8.12726L0.0440483 -8.12729L0.0435772 -8.12917C0.0213833 -8.21824 0.00797272 -8.30814 0.00318909 -8.39786C-0.00227165 -8.50024 0.00349617 -8.60238 0.0202541 -8.70279C0.0491409 -8.87588 0.110682 -9.04383 0.203644 -9.19896L0.203789 -9.1992C0.220776 -9.22746 0.238617 -9.25488 0.257256 -9.28147C0.376129 -9.45103 0.527447 -9.58642 0.696896 -9.68642C0.529726 -9.80141 0.390032 -9.94699 0.286121 -10.1159C0.213131 -10.2346 0.157795 -10.3647 0.122993 -10.504L0.12298 -10.504L0.122513 -10.5059C0.104679 -10.5775 0.0925159 -10.6496 0.0859413 -10.7217C0.0589218 -11.018 0.12623 -11.3143 0.282036 -11.5744L0.282694 -11.5755L0.282715 -11.5755L0.28298 -11.5759C0.441467 -11.8402 0.676294 -12.0413 0.956228 -12.1562C1.01935 -12.1821 1.08477 -12.2037 1.15212 -12.2206L1.15303 -12.2208L1.15352 -12.2209C1.26786 -12.2495 1.38384 -12.2637 1.49866 -12.2637C1.5231 -12.2637 1.54749 -12.263 1.57182 -12.2616C1.77212 -12.2504 1.96786 -12.1947 2.14937 -12.0997C2.15884 -12.2995 2.20619 -12.4966 2.29565 -12.677C2.32422 -12.7347 2.35709 -12.7906 2.39439 -12.8444L2.39441 -12.8444L2.39443 -12.8445L2.39454 -12.8446C2.48236 -12.9713 2.58849 -13.0789 2.70744 -13.1664C3.1606 -13.4996 3.79984 -13.5403 4.32189 -13.2272L4.32214 -13.2271L4.3223 -13.227L7.64557 -11.2336L8.34618 -10.8134L8.3479 -10.8123L8.78405 -10.5507L9.78184 -9.95221L9.21825 -10.9674L9.07859 -11.2189L9.07813 -11.2198L9.07811 -11.2198L9.07764 -11.2206C8.93559 -11.4756 8.87119 -11.7619 8.88396 -12.0456C8.89539 -12.2997 8.96876 -12.5517 9.1037 -12.7771L9.10377 -12.7772L9.10426 -12.778C9.24333 -13.0096 9.4419 -13.2022 9.67916 -13.3356L9.68123 -13.3368L9.68124 -13.3368L9.68126 -13.3368L9.68268 -13.3376C9.87807 -13.4455 10.0896 -13.4966 10.2982 -13.4966C10.7474 -13.4963 11.1837 -13.2594 11.4159 -12.84L11.416 -12.8398L11.4161 -12.8397L11.4161 -12.8397C12.0581 -11.683 13.1516 -9.71372 13.6304 -8.85224C13.7034 -8.72097 13.762 -8.61543 13.8027 -8.5424C13.8316 -8.49035 13.8514 -8.45481 13.8607 -8.43826L13.8607 -8.43823C13.875 -8.41734 13.9077 -8.37045 13.9446 -8.31761C13.9663 -8.28668 13.9894 -8.25371 14.0112 -8.22272L14.0117 -8.22196L14.0122 -8.22128C14.0683 -8.14165 14.129 -8.06554 14.1917 -7.98989L14.1917 -7.98985L14.192 -7.98952C15.1672 -6.80721 15.5287 -5.3631 15.253 -3.96624C15.1433 -3.41084 14.9329 -2.86291 14.6203 -2.34187L14.6203 -2.34183L14.6201 -2.34149L14.6199 -2.34124C13.9897 -1.29051 12.9908 -0.540722 11.7804 -0.200552C11.6573 -0.165956 11.532 -0.135597 11.4046 -0.109591L11.4046 -0.109581L11.404 -0.109467L11.404 -0.109461L11.404 -0.109453C10.0371 0.169054 8.59942 -0.0880184 7.35517 -0.834061L7.35497 -0.834183L7.35494 -0.8342L7.35494 -0.8342ZM7.74173 -1.4789L4.49937 -3.42396L4.36342 -3.50552L4.36206 -3.50633L1.15636 -5.42941L1.0751 -5.47815L1.07492 -5.47826L1.07491 -5.47827L1.07472 -5.47838L1.0746 -5.47845C0.922337 -5.57004 0.814751 -5.71454 0.771828 -5.88587L0.771746 -5.8862L0.771585 -5.88684C0.729406 -6.05793 0.756077 -6.23625 0.847136 -6.38826L0.847429 -6.38875L0.847637 -6.38909C0.861771 -6.41257 0.877192 -6.43498 0.893801 -6.45625C0.944019 -6.52057 1.00509 -6.57446 1.07421 -6.61588C1.12975 -6.64918 1.19049 -6.67441 1.25496 -6.69053C1.42742 -6.73364 1.60529 -6.70678 1.75702 -6.61584L1.75706 -6.61581L1.75723 -6.61571L1.75727 -6.61569L1.75819 -6.61514L1.8387 -6.56683L1.98737 -6.47763L4.2909 -5.09556L5.04567 -4.64272L5.04571 -4.6427L5.04592 -4.64257C5.06758 -4.62956 5.09001 -4.61898 5.11288 -4.61077C5.27858 -4.55125 5.46795 -4.61534 5.5619 -4.77157C5.65738 -4.93077 5.62164 -5.13183 5.48618 -5.24925C5.47009 -5.26319 5.4526 -5.27596 5.43376 -5.28733L5.43358 -5.28744L5.43303 -5.28777L5.43293 -5.28783L5.43281 -5.2879L4.67817 -5.74067L2.71948 -6.91583L2.14434 -7.26091L2.14412 -7.26104L2.14384 -7.26121L1.1588 -7.85214L1.08982 -7.89352L1.08792 -7.89466L1.07614 -7.90173L1.07603 -7.90179L1.07474 -7.90257C1.03256 -7.92807 0.99383 -7.95763 0.958967 -7.9907C0.868565 -8.07645 0.804192 -8.1858 0.773281 -8.30905L0.773157 -8.30955L0.773056 -8.30996C0.730793 -8.48135 0.757212 -8.65954 0.848549 -8.81161L0.849009 -8.81237C0.863224 -8.83597 0.878681 -8.85837 0.895247 -8.87953C0.946817 -8.94542 1.00913 -8.99936 1.07815 -9.04033C1.28124 -9.16089 1.54235 -9.16916 1.75843 -9.0392L1.75849 -9.03916L1.7596 -9.0385L1.80858 -9.00911L1.80869 -9.00904L1.8401 -8.9902L1.98911 -8.90079L2.82667 -8.3983L2.82673 -8.39826L5.36053 -6.87808L6.11529 -6.42525L6.11533 -6.42523L6.11544 -6.42516L6.11555 -6.4251L6.11589 -6.42489C6.13487 -6.41357 6.15444 -6.4041 6.17438 -6.39644C6.34197 -6.33207 6.53603 -6.3953 6.63152 -6.5541C6.72731 -6.7138 6.69103 -6.91564 6.55451 -7.03289C6.53857 -7.04658 6.52127 -7.05912 6.50265 -7.0703L6.50243 -7.07043L6.50231 -7.0705L6.50196 -7.07071L5.74761 -7.5233L2.72645 -9.33591L2.1957 -9.65435L2.14627 -9.68399L2.14553 -9.68444L1.23572 -10.2301L1.15535 -10.2783L1.15505 -10.2785L1.15491 -10.2786C1.14292 -10.2858 1.13121 -10.2933 1.11979 -10.3012C1.07026 -10.3352 1.02612 -10.3752 0.988155 -10.4202C0.923758 -10.4965 0.877165 -10.5869 0.852318 -10.6863L0.85231 -10.6863L0.852234 -10.6866L0.85223 -10.6866C0.809938 -10.858 0.836349 -11.0363 0.927702 -11.1881L0.927725 -11.1881L0.927773 -11.1882L0.927782 -11.1882L0.928116 -11.1888C1.0193 -11.3408 1.16375 -11.448 1.33545 -11.4909L1.33552 -11.4909L1.33621 -11.4911C1.38975 -11.5045 1.44398 -11.511 1.49786 -11.511L1.49865 -11.511C1.54401 -11.5109 1.58913 -11.5061 1.63338 -11.4966C1.69158 -11.4843 1.74828 -11.4639 1.80208 -11.4359C1.81399 -11.4297 1.82574 -11.4231 1.83735 -11.4162L1.83737 -11.4162L1.83739 -11.4162L1.83811 -11.4157L1.9179 -11.3679L2.82823 -10.8218L2.8294 -10.8211L2.87766 -10.7921L2.87796 -10.7919L2.87815 -10.7918L2.87891 -10.7914L3.40722 -10.4744L7.18514 -8.20807L7.18518 -8.20805L7.18525 -8.20801L7.18543 -8.2079L7.1857 -8.20774C7.20424 -8.19665 7.22333 -8.18734 7.24279 -8.17976C7.41071 -8.11435 7.60562 -8.17767 7.70138 -8.33692C7.79557 -8.49398 7.76205 -8.6918 7.63106 -8.80983C7.61331 -8.82582 7.59377 -8.84035 7.57251 -8.85312L7.57243 -8.85316L7.57224 -8.85328L6.81753 -9.30605L3.44763 -11.3277L3.33249 -11.3968L3.25324 -11.4444L3.25279 -11.4446L3.21654 -11.4664L3.21652 -11.4664L3.21534 -11.4673C3.06291 -11.5587 2.95524 -11.7034 2.91236 -11.8749C2.89668 -11.938 2.89029 -12.0017 2.89296 -12.0645C2.89646 -12.1467 2.91551 -12.2275 2.94959 -12.3038C2.9668 -12.3424 2.98785 -12.3798 3.01266 -12.4156L3.01277 -12.4158L3.01278 -12.4158L3.01294 -12.4161L3.01297 -12.4161C3.181 -12.6587 3.51368 -12.7466 3.80374 -12.6438L3.80512 -12.6433C3.83621 -12.6322 3.8668 -12.6189 3.89664 -12.6034L3.89819 -12.6026C3.91062 -12.5961 3.92292 -12.5892 3.93507 -12.5819L3.93509 -12.5819L3.93518 -12.5818L3.93527 -12.5818L3.9807 -12.5545L4.01612 -12.5333L4.01709 -12.5327L8.22589 -10.0078L8.25482 -9.99047L8.25533 -9.99017L8.38838 -9.91035L9.02191 -9.53029L9.39463 -9.3067L9.51431 -9.2349L9.84257 -9.03797L10.4111 -8.6969L10.4113 -8.69676L10.5973 -8.58522C10.7438 -8.49804 10.9304 -8.51878 11.0525 -8.63725L11.0525 -8.63728C11.1588 -8.74015 11.1935 -8.894 11.1463 -9.03031C11.1393 -9.05071 11.1304 -9.07071 11.1196 -9.0901L11.0141 -9.2801L11.0124 -9.28318L10.6924 -9.85988L10.5067 -10.1944L10.4387 -10.3169L10.2282 -10.6963L9.7764 -11.5102L9.73515 -11.5846L9.73514 -11.5846L9.73475 -11.5853L9.73473 -11.5853L9.7344 -11.5859L9.73439 -11.5859C9.71479 -11.6211 9.69806 -11.6574 9.6842 -11.6946C9.66463 -11.747 9.65076 -11.801 9.64257 -11.8557L9.6425 -11.8562C9.61537 -12.0381 9.65104 -12.2276 9.74863 -12.3904L9.74865 -12.3904L9.74897 -12.3909L9.74916 -12.3912C9.82197 -12.5123 9.92161 -12.6092 10.0456 -12.6787L10.0465 -12.6792L10.0465 -12.6792L10.0465 -12.6792C10.0474 -12.6797 10.0483 -12.6802 10.0492 -12.6807C10.1283 -12.7238 10.2136 -12.7444 10.2978 -12.7446L10.2982 -12.7446C10.4827 -12.745 10.6617 -12.6475 10.7575 -12.4751L10.7577 -12.4747L10.7579 -12.4744C10.8036 -12.392 10.8485 -12.3111 10.8925 -12.2317C10.8931 -12.2308 10.8936 -12.2298 10.8942 -12.2288C10.9083 -12.2034 10.9223 -12.1781 10.9362 -12.153C11.5158 -11.1089 11.9513 -10.3246 12.2802 -9.73467L12.2804 -9.73434C12.3031 -9.69348 12.3254 -9.65355 12.3472 -9.61453C12.8033 -8.79691 13.0401 -8.37914 13.1719 -8.16113C13.1786 -8.12781 13.1834 -8.1077 13.2041 -8.07094C13.2129 -8.05512 13.2247 -8.03622 13.2409 -8.01186C13.2725 -7.96431 13.3206 -7.89596 13.3959 -7.78912L13.3959 -7.78909L13.396 -7.78901L13.3965 -7.78822C13.4632 -7.69326 13.5363 -7.60109 13.611 -7.5108L13.6113 -7.51041L13.6116 -7.51044L13.6117 -7.51045L13.6124 -7.50957C14.5534 -6.36911 14.826 -4.99156 14.4072 -3.67791C14.3706 -3.56316 14.3288 -3.4489 14.2816 -3.33533L14.2816 -3.33521C14.1966 -3.13053 14.0944 -2.92809 13.975 -2.72906L13.9749 -2.72887L13.9747 -2.72855L13.9747 -2.72853C13.5976 -2.09974 13.0616 -1.59845 12.4147 -1.25767C12.0589 -1.07022 11.6694 -0.931328 11.2544 -0.8465L11.2541 -0.846443L11.2536 -0.846336L11.2535 -0.846325C10.0713 -0.605104 8.82376 -0.829792 7.74192 -1.47878L7.74178 -1.47886L7.74173 -1.4789L7.74173 -1.4789Z" fill="#4CAF4F" fill-rule="evenodd" transform="matrix(1 0 0 -1 17.03 30)" />
    </g>
  </g>
</svg>