<?xml version="1.0" encoding="utf-8"?>
<svg width="22.274" height="22.274" viewBox="0 0 22.274 22.274" fill="none" xmlns="http://www.w3.org/2000/svg">
  <g>
    <path d="M0 11.1371C0 4.98625 4.98625 0 11.1371 0C17.288 0 22.2742 4.98625 22.2742 11.1371C22.2742 17.288 17.288 22.2742 11.1371 22.2742C4.98625 22.2742 0 17.288 0 11.1371L0 11.1371Z" fill="#FFFFFF" fill-rule="evenodd" fill-opacity="0.1" />
    <path d="M10.581 0.254914C11.0922 0.395179 11.4947 0.808467 11.6313 1.33331C11.8796 2.28452 11.8796 4.26923 11.8796 4.26923C11.8796 4.26923 11.8796 6.25387 11.6313 7.20515C11.4947 7.72998 11.0922 8.14327 10.581 8.28361C9.65466 8.53845 5.93979 8.53845 5.93979 8.53845C5.93979 8.53845 2.22493 8.53845 1.29852 8.28361C0.78736 8.14327 0.384804 7.72998 0.248189 7.20515C0 6.25387 0 4.26923 0 4.26923C0 4.26923 0 2.28452 0.248189 1.33331C0.384804 0.808467 0.78736 0.395179 1.29852 0.254914C2.22493 0 5.93979 0 5.93979 0C5.93979 0 9.65466 0 10.581 0.254914L10.581 0.254914ZM4.82609 2.59862L4.82609 6.31099L7.79599 4.45488L4.82609 2.59862L4.82609 2.59862Z" fill="#FFFFFF" fill-rule="evenodd" transform="translate(5.197 7.053)" />
  </g>
</svg>